Eeyek-Regular.ufo
<glyph name="exclam-mm" format="2">
  <advance width="410"/>
  <unicode hex="0021"/>
  <outline>
    <contour>
      <point x="149" y="439" type="line"/>
      <point x="101" y="1112" type="line"/>
      <point x="101" y="1394" type="line"/>
      <point x="294" y="1394" type="line"/>
      <point x="294" y="1112" type="line"/>
      <point x="249" y="439" type="line"/>
    </contour>
    <contour>
      <point x="107" y="15" type="line"/>
      <point x="107" y="193" type="line"/>
      <point x="286" y="193" type="line"/>
      <point x="286" y="15" type="line"/>
    </contour>
  </outline>
</glyph>
<glyph name="quotedbl" format="2">
  <advance width="750"/>
  <unicode hex="0022"/>
  <outline>
    <contour>
      <point x="150" y="993" type="line"/>
      <point x="107" y="1235" type="line"/>
      <point x="107" y="1443" type="line"/>
      <point x="284" y="1443" type="line"/>
      <point x="284" y="1235" type="line"/>
      <point x="245" y="993" type="line"/>
    </contour>
    <contour>
      <point x="492" y="996" type="line"/>
      <point x="450" y="1238" type="line"/>
      <point x="450" y="1446" type="line"/>
      <point x="628" y="1446" type="line"/>
      <point x="628" y="1238" type="line"/>
      <point x="586" y="996" type="line"/>
    </contour>
  </outline>
</glyph>
<glyph name="numbersign-mm" format="2">
  <advance width="1150"/>
  <unicode hex="0023"/>
  <outline>
    <contour>
      <point x="164" y="76" type="line"/>
      <point x="239" y="446" type="line"/>
      <point x="93" y="446" type="line"/>
      <point x="93" y="575" type="line"/>
      <point x="265" y="575" type="line"/>
      <point x="329" y="889" type="line"/>
      <point x="93" y="889" type="line"/>
      <point x="93" y="1018" type="line"/>
      <point x="355" y="1018" type="line"/>
      <point x="431" y="1390" type="line"/>
      <point x="561" y="1390" type="line"/>
      <point x="485" y="1018" type="line"/>
      <point x="758" y="1018" type="line"/>
      <point x="834" y="1390" type="line"/>
      <point x="965" y="1390" type="line"/>
      <point x="889" y="1018" type="line"/>
      <point x="1039" y="1018" type="line"/>
      <point x="1039" y="889" type="line"/>
      <point x="863" y="889" type="line"/>
      <point x="798" y="575" type="line"/>
      <point x="1039" y="575" type="line"/>
      <point x="1039" y="446" type="line"/>
      <point x="772" y="446" type="line"/>
      <point x="697" y="76" type="line"/>
      <point x="567" y="76" type="line"/>
      <point x="641" y="446" type="line"/>
      <point x="369" y="446" type="line"/>
      <point x="294" y="76" type="line"/>
    </contour>
    <contour>
      <point x="385" y="575" type="line"/>
      <point x="657" y="575" type="line"/>
      <point x="722" y="889" type="line"/>
      <point x="449" y="889" type="line"/>
    </contour>
  </outline>
</glyph>
<glyph name="numbersign" format="2">
  <advance width="1150"/>
  <unicode hex="0023"/>
  <outline>
    <contour>
      <point x="163" y="0" type="line"/>
      <point x="239" y="375" type="line"/>
      <point x="93" y="375" type="line"/>
      <point x="93" y="504" type="line"/>
      <point x="265" y="504" type="line"/>
      <point x="329" y="818" type="line"/>
      <point x="93" y="818" type="line"/>
      <point x="93" y="947" type="line"/>
      <point x="355" y="947" type="line"/>
      <point x="432" y="1324" type="line"/>
      <point x="562" y="1324" type="line"/>
      <point x="485" y="947" type="line"/>
      <point x="758" y="947" type="line"/>
      <point x="835" y="1324" type="line"/>
      <point x="966" y="1324" type="line"/>
      <point x="889" y="947" type="line"/>
      <point x="1039" y="947" type="line"/>
      <point x="1039" y="818" type="line"/>
      <point x="863" y="818" type="line"/>
      <point x="798" y="504" type="line"/>
      <point x="1039" y="504" type="line"/>
      <point x="1039" y="375" type="line"/>
      <point x="772" y="375" type="line"/>
      <point x="696" y="0" type="line"/>
      <point x="566" y="0" type="line"/>
      <point x="641" y="375" type="line"/>
      <point x="369" y="375" type="line"/>
      <point x="293" y="0" type="line"/>
    </contour>
    <contour>
      <point x="385" y="504" type="line"/>
      <point x="657" y="504" type="line"/>
      <point x="722" y="818" type="line"/>
      <point x="449" y="818" type="line"/>
    </contour>
  </outline>
</glyph>
<glyph name="dollar" format="2">
  <advance width="1040"/>
  <unicode hex="0024"/>
  <outline>
    <contour>
      <point x="475" y="-159" type="line"/>
      <point x="475" y="-3" type="line"/>
      <point x="397" y="7"/>
      <point x="334" y="25"/>
      <point x="285" y="50" type="curve" smooth="yes"/>
      <point x="188" y="100"/>
      <point x="108" y="214"/>
      <point x="97" y="377" type="curve"/>
      <point x="253" y="406" type="line"/>
      <point x="266" y="323"/>
      <point x="287" y="261"/>
      <point x="318" y="222" type="curve" smooth="yes"/>
      <point x="362" y="167"/>
      <point x="414" y="135"/>
      <point x="475" y="129" type="curve"/>
      <point x="475" y="625" type="line"/>
      <point x="411" y="638"/>
      <point x="346" y="663"/>
      <point x="279" y="700" type="curve" smooth="yes"/>
      <point x="179" y="755"/>
      <point x="123" y="858"/>
      <point x="123" y="983" type="curve" smooth="yes"/>
      <point x="123" y="1094"/>
      <point x="162" y="1183"/>
      <point x="241" y="1252" type="curve" smooth="yes"/>
      <point x="294" y="1298"/>
      <point x="372" y="1326"/>
      <point x="475" y="1337" type="curve"/>
      <point x="475" y="1411" type="line"/>
      <point x="567" y="1411" type="line"/>
      <point x="567" y="1337" type="line"/>
      <point x="658" y="1328"/>
      <point x="730" y="1302"/>
      <point x="783" y="1257" type="curve" smooth="yes"/>
      <point x="851" y="1200"/>
      <point x="892" y="1123"/>
      <point x="906" y="1024" type="curve"/>
      <point x="745" y="1000" type="line"/>
      <point x="726" y="1123"/>
      <point x="668" y="1185"/>
      <point x="567" y="1205" type="curve"/>
      <point x="567" y="755" type="line"/>
      <point x="646" y="736"/>
      <point x="698" y="721"/>
      <point x="723" y="710" type="curve" smooth="yes"/>
      <point x="866" y="647"/>
      <point x="937" y="537"/>
      <point x="937" y="385" type="curve" smooth="yes"/>
      <point x="937" y="277"/>
      <point x="903" y="187"/>
      <point x="834" y="115" type="curve" smooth="yes"/>
      <point x="765" y="43"/>
      <point x="676" y="4"/>
      <point x="567" y="-1" type="curve"/>
      <point x="567" y="-159" type="line"/>
    </contour>
    <contour>
      <point x="484" y="1213" type="line"/>
      <point x="363" y="1194"/>
      <point x="288" y="1108"/>
      <point x="288" y="1001" type="curve" smooth="yes"/>
      <point x="288" y="894"/>
      <point x="341" y="824"/>
      <point x="484" y="781" type="curve"/>
    </contour>
    <contour>
      <point x="573" y="129" type="line"/>
      <point x="694" y="144"/>
      <point x="782" y="242"/>
      <point x="782" y="375" type="curve" smooth="yes"/>
      <point x="782" y="488"/>
      <point x="740" y="549"/>
      <point x="573" y="604" type="curve"/>
    </contour>
  </outline>
</glyph>
<glyph name="percent" format="2">
  <advance width="1520"/>
  <unicode hex="0025"/>
  <outline>
    <contour>
      <point x="100" y="1007" type="curve" smooth="yes"/>
      <point x="100" y="1098"/>
      <point x="123" y="1175"/>
      <point x="169" y="1239" type="curve" smooth="yes"/>
      <point x="214" y="1302"/>
      <point x="280" y="1334"/>
      <point x="367" y="1334" type="curve" smooth="yes"/>
      <point x="527" y="1334"/>
      <point x="644" y="1218"/>
      <point x="644" y="998" type="curve" smooth="yes"/>
      <point x="644" y="782"/>
      <point x="524" y="662"/>
      <point x="369" y="662" type="curve" smooth="yes"/>
      <point x="216" y="662"/>
      <point x="100" y="776"/>
    </contour>
    <contour>
      <point x="372" y="1216" type="curve" smooth="yes"/>
      <point x="295" y="1216"/>
      <point x="237" y="1161"/>
      <point x="237" y="982" type="curve" smooth="yes"/>
      <point x="237" y="818"/>
      <point x="296" y="760"/>
      <point x="372" y="760" type="curve" smooth="yes"/>
      <point x="451" y="760"/>
      <point x="508" y="815"/>
      <point x="508" y="994" type="curve" smooth="yes"/>
      <point x="508" y="1158"/>
      <point x="449" y="1216"/>
    </contour>
    <contour>
      <point x="325" y="0" type="line"/>
      <point x="1020" y="1324" type="line"/>
      <point x="1147" y="1324" type="line"/>
      <point x="454" y="0" type="line"/>
    </contour>
    <contour>
      <point x="839" y="335" type="curve" smooth="yes"/>
      <point x="839" y="518"/>
      <point x="932" y="662"/>
      <point x="1107" y="662" type="curve" smooth="yes"/>
      <point x="1266" y="662"/>
      <point x="1383" y="546"/>
      <point x="1383" y="326" type="curve" smooth="yes"/>
      <point x="1383" y="110"/>
      <point x="1263" y="-10"/>
      <point x="1107" y="-10" type="curve" smooth="yes"/>
      <point x="954" y="-10"/>
      <point x="839" y="106"/>
    </contour>
    <contour>
      <point x="1121" y="544" type="curve" smooth="yes"/>
      <point x="1042" y="544"/>
      <point x="985" y="489"/>
      <point x="985" y="310" type="curve" smooth="yes"/>
      <point x="985" y="147"/>
      <point x="1044" y="88"/>
      <point x="1120" y="88" type="curve" smooth="yes"/>
      <point x="1200" y="88"/>
      <point x="1257" y="143"/>
      <point x="1257" y="322" type="curve" smooth="yes"/>
      <point x="1257" y="486"/>
      <point x="1198" y="544"/>
    </contour>
  </outline>
</glyph>
<glyph name="ampersand" format="2">
  <advance width="1280"/>
  <unicode hex="0026"/>
  <outline>
    <contour>
      <point x="857" y="258" type="qcurve"/>
      <point x="779" y="172"/>
      <point x="597" y="86"/>
      <point x="492" y="86" type="qcurve"/>
      <point x="394" y="86"/>
      <point x="240" y="152"/>
      <point x="182" y="218" type="qcurve"/>
      <point x="136" y="272"/>
      <point x="90" y="392"/>
      <point x="90" y="458" type="qcurve"/>
      <point x="90" y="576"/>
      <point x="241" y="766"/>
      <point x="392" y="838" type="qcurve"/>
      <point x="306" y="937"/>
      <point x="249" y="1060"/>
      <point x="249" y="1117" type="qcurve"/>
      <point x="249" y="1231"/>
      <point x="428" y="1400"/>
      <point x="565" y="1400" type="qcurve"/>
      <point x="695" y="1400"/>
      <point x="860" y="1241"/>
      <point x="860" y="1129" type="qcurve"/>
      <point x="860" y="1038"/>
      <point x="740" y="884"/>
      <point x="620" y="820" type="qcurve"/>
      <point x="848" y="529" type="line"/>
      <point x="868" y="567"/>
      <point x="898" y="656"/>
      <point x="909" y="706" type="qcurve"/>
      <point x="1071" y="671" type="line"/>
      <point x="1050" y="588"/>
      <point x="994" y="451"/>
      <point x="958" y="397" type="qcurve"/>
      <point x="1002" y="339"/>
      <point x="1101" y="242"/>
      <point x="1156" y="203" type="qcurve"/>
      <point x="1052" y="79" type="line"/>
      <point x="1004" y="109"/>
      <point x="907" y="198"/>
    </contour>
    <contour>
      <point x="529" y="905" type="line"/>
      <point x="630" y="965"/>
      <point x="690" y="1055"/>
      <point x="690" y="1109" type="qcurve"/>
      <point x="690" y="1174"/>
      <point x="608" y="1257"/>
      <point x="546" y="1257" type="qcurve"/>
      <point x="483" y="1257"/>
      <point x="399" y="1175"/>
      <point x="399" y="1116" type="qcurve"/>
      <point x="399" y="1087"/>
      <point x="429" y="1022"/>
      <point x="459" y="985" type="qcurve"/>
    </contour>
    <contour>
      <point x="751" y="391" type="qcurve"/>
      <point x="465" y="745" type="line"/>
      <point x="339" y="670"/>
      <point x="250" y="541"/>
      <point x="250" y="478" type="qcurve"/>
      <point x="250" y="401"/>
      <point x="373" y="234"/>
      <point x="486" y="234" type="qcurve"/>
      <point x="556" y="234"/>
      <point x="706" y="322"/>
    </contour>
  </outline>
</glyph>
<glyph name="quotesingle-mm" format="2">
  <advance width="360"/>
  <unicode hex="0027"/>
  <outline>
    <contour>
      <point x="133" y="993" type="line"/>
      <point x="93" y="1230" type="line"/>
      <point x="93" y="1443" type="line"/>
      <point x="271" y="1443" type="line"/>
      <point x="271" y="1230" type="line"/>
      <point x="229" y="993" type="line"/>
    </contour>
  </outline>
</glyph>
<glyph name="parenleft-mm" format="2">
  <advance width="680"/>
  <unicode hex="0028"/>
  <outline>
    <contour>
      <point x="423" y="-312" type="line"/>
      <point x="337" y="-203"/>
      <point x="264" y="-76"/>
      <point x="205" y="70" type="curve" smooth="yes"/>
      <point x="145" y="215"/>
      <point x="115" y="366"/>
      <point x="115" y="522" type="curve" smooth="yes"/>
      <point x="115" y="659"/>
      <point x="137" y="791"/>
      <point x="182" y="917" type="curve" smooth="yes"/>
      <point x="234" y="1063"/>
      <point x="314" y="1208"/>
      <point x="423" y="1353" type="curve"/>
      <point x="535" y="1353" type="line"/>
      <point x="465" y="1233"/>
      <point x="419" y="1147"/>
      <point x="396" y="1096" type="curve" smooth="yes"/>
      <point x="361" y="1016"/>
      <point x="333" y="933"/>
      <point x="313" y="847" type="curve" smooth="yes"/>
      <point x="288" y="738"/>
      <point x="276" y="630"/>
      <point x="276" y="521" type="curve" smooth="yes"/>
      <point x="276" y="243"/>
      <point x="362" y="-35"/>
      <point x="535" y="-312" type="curve"/>
    </contour>
  </outline>
</glyph>
<glyph name="parenleft" format="2">
  <advance width="680"/>
  <unicode hex="0028"/>
  <outline>
    <contour>
      <point x="423" y="-312" type="line"/>
      <point x="294" y="-149"/>
      <point x="115" y="288"/>
      <point x="115" y="522" type="qcurve"/>
      <point x="115" y="625" name="inserted"/>
      <point x="148" y="822"/>
      <point x="182" y="917" type="qcurve"/>
      <point x="221" y="1026" name="inserted"/>
      <point x="342" y="1244"/>
      <point x="423" y="1353" type="qcurve"/>
      <point x="535" y="1353" type="line"/>
      <point x="482" y="1263" name="inserted"/>
      <point x="413" y="1134"/>
      <point x="396" y="1096" type="qcurve"/>
      <point x="370" y="1036" name="inserted"/>
      <point x="328" y="912"/>
      <point x="313" y="847" type="qcurve"/>
      <point x="294" y="766" name="inserted"/>
      <point x="276" y="602"/>
      <point x="276" y="521" type="qcurve"/>
      <point x="276" y="312" name="inserted"/>
      <point x="406" y="-104"/>
      <point x="535" y="-312" type="qcurve"/>
    </contour>
  </outline>
</glyph>
<glyph name="parenright-mm" format="2">
  <advance width="650"/>
  <unicode hex="0029"/>
  <outline>
    <contour>
      <point x="209" y="-302" type="curve"/>
      <point x="98" y="-302" type="line"/>
      <point x="271" y="-25"/>
      <point x="357" y="253"/>
      <point x="357" y="531" type="curve" smooth="yes"/>
      <point x="357" y="640"/>
      <point x="345" y="747"/>
      <point x="320" y="854" type="curve" smooth="yes"/>
      <point x="300" y="941"/>
      <point x="272" y="1024"/>
      <point x="237" y="1103" type="curve" smooth="yes"/>
      <point x="214" y="1155"/>
      <point x="168" y="1242"/>
      <point x="98" y="1363" type="curve"/>
      <point x="209" y="1363" type="line"/>
      <point x="318" y="1218"/>
      <point x="398" y="1073"/>
      <point x="450" y="927" type="curve" smooth="yes"/>
      <point x="495" y="801"/>
      <point x="517" y="669"/>
      <point x="517" y="532" type="curve" smooth="yes"/>
      <point x="517" y="376"/>
      <point x="487" y="225"/>
      <point x="428" y="80" type="curve" smooth="yes"/>
      <point x="368" y="-66"/>
      <point x="295" y="-193"/>
    </contour>
  </outline>
</glyph>
<glyph name="parenright" format="2">
  <advance width="650"/>
  <unicode hex="0029"/>
  <outline>
    <contour>
      <point x="209" y="-302" type="qcurve"/>
      <point x="98" y="-302" type="line"/>
      <point x="228" y="-94"/>
      <point x="357" y="322"/>
      <point x="357" y="531" type="qcurve"/>
      <point x="357" y="612"/>
      <point x="338" y="774"/>
      <point x="320" y="854" type="qcurve"/>
      <point x="305" y="919"/>
      <point x="264" y="1044"/>
      <point x="237" y="1103" type="qcurve"/>
      <point x="220" y="1142"/>
      <point x="150" y="1272"/>
      <point x="98" y="1363" type="qcurve"/>
      <point x="209" y="1363" type="line"/>
      <point x="290" y="1254"/>
      <point x="411" y="1036"/>
      <point x="450" y="927" type="qcurve"/>
      <point x="484" y="832"/>
      <point x="517" y="635"/>
      <point x="517" y="532" type="qcurve"/>
      <point x="517" y="298"/>
      <point x="338" y="-139"/>
    </contour>
  </outline>
</glyph>
<glyph name="asterisk" format="2">
  <advance width="800"/>
  <unicode hex="002A"/>
  <outline>
    <contour>
      <point x="97" y="1195" type="qcurve"/>
      <point x="137" y="1318" type="line"/>
      <point x="206" y="1294" name="inserted"/>
      <point x="306" y="1252"/>
      <point x="338" y="1234" type="qcurve"/>
      <point x="330" y="1312" name="inserted"/>
      <point x="320" y="1420"/>
      <point x="320" y="1450" type="qcurve"/>
      <point x="446" y="1450" type="line"/>
      <point x="444" y="1407" name="inserted"/>
      <point x="434" y="1300"/>
      <point x="426" y="1235" type="qcurve"/>
      <point x="470" y="1258" name="inserted"/>
      <point x="572" y="1299"/>
      <point x="630" y="1318" type="qcurve"/>
      <point x="670" y="1195" type="line"/>
      <point x="615" y="1177" name="inserted"/>
      <point x="508" y="1153"/>
      <point x="455" y="1147" type="qcurve"/>
      <point x="481" y="1124" name="inserted"/>
      <point x="556" y="1042"/>
      <point x="604" y="983" type="qcurve"/>
      <point x="500" y="909" type="line"/>
      <point x="474" y="944" name="inserted"/>
      <point x="415" y="1037"/>
      <point x="381" y="1096" type="qcurve"/>
      <point x="349" y="1035" name="inserted"/>
      <point x="292" y="942"/>
      <point x="268" y="909" type="qcurve"/>
      <point x="166" y="983" type="line"/>
      <point x="216" y="1045" name="inserted"/>
      <point x="288" y="1127"/>
      <point x="310" y="1147" type="qcurve"/>
      <point x="254" y="1158" name="inserted"/>
      <point x="148" y="1182"/>
    </contour>
  </outline>
</glyph>
<glyph name="plus" format="2">
  <advance width="1050"/>
  <unicode hex="002B"/>
  <outline>
    <contour>
      <point x="433" y="293" type="line"/>
      <point x="433" y="642" type="line"/>
      <point x="87" y="642" type="line"/>
      <point x="87" y="787" type="line"/>
      <point x="433" y="787" type="line"/>
      <point x="433" y="1133" type="line"/>
      <point x="581" y="1133" type="line"/>
      <point x="581" y="787" type="line"/>
      <point x="926" y="787" type="line"/>
      <point x="926" y="642" type="line"/>
      <point x="581" y="642" type="line"/>
      <point x="581" y="293" type="line"/>
    </contour>
  </outline>
</glyph>
<glyph name="hyphen-mm" format="2">
  <advance width="750"/>
  <unicode hex="002D"/>
  <unicode hex="2010"/>
  <outline>
    <contour>
      <point x="102" y="453" type="line"/>
      <point x="102" y="610" type="line"/>
      <point x="581" y="610" type="line"/>
      <point x="581" y="453" type="line"/>
    </contour>
  </outline>
</glyph>
<glyph name="slash" format="2">
  <advance width="760"/>
  <unicode hex="002F"/>
  <outline>
    <contour>
      <point x="87" y="0" type="line"/>
      <point x="457" y="1324" type="line"/>
      <point x="581" y="1324" type="line"/>
      <point x="213" y="0" type="line"/>
    </contour>
  </outline>
</glyph>
<glyph name="colon-mm" format="2">
  <advance width="400"/>
  <unicode hex="003A"/>
  <outline>
    <contour>
      <point x="89" y="911" type="line"/>
      <point x="89" y="1089" type="line"/>
      <point x="267" y="1089" type="line"/>
      <point x="267" y="911" type="line"/>
    </contour>
    <contour>
      <point x="99" y="25" type="line"/>
      <point x="99" y="203" type="line"/>
      <point x="277" y="203" type="line"/>
      <point x="277" y="25" type="line"/>
    </contour>
  </outline>
</glyph>
<glyph name="semicolon" format="2">
  <advance width="350"/>
  <unicode hex="003B"/>
  <outline>
    <contour>
      <point x="85" y="921" type="line"/>
      <point x="85" y="1099" type="line"/>
      <point x="263" y="1099" type="line"/>
      <point x="263" y="921" type="line"/>
    </contour>
    <contour>
      <point x="85" y="-15" type="line"/>
      <point x="85" y="163" type="line"/>
      <point x="263" y="163" type="line"/>
      <point x="263" y="-15" type="line"/>
      <point x="263" y="-113"/>
      <point x="193" y="-233"/>
      <point x="118" y="-266" type="qcurve"/>
      <point x="75" y="-199" type="line"/>
      <point x="124" y="-178"/>
      <point x="171" y="-94"/>
      <point x="173" y="-15" type="qcurve"/>
    </contour>
  </outline>
</glyph>
<glyph name="less" format="2">
  <advance width="1120"/>
  <unicode hex="003C"/>
  <outline>
    <contour>
      <point x="106" y="654" type="line"/>
      <point x="106" y="799" type="line"/>
      <point x="947" y="1154" type="line"/>
      <point x="947" y="999" type="line"/>
      <point x="280" y="725" type="line"/>
      <point x="947" y="449" type="line"/>
      <point x="947" y="294" type="line"/>
    </contour>
  </outline>
</glyph>
<glyph name="equal-mm" format="2">
  <advance width="1080"/>
  <unicode hex="003D"/>
  <outline>
    <contour>
      <point x="936" y="884" type="line"/>
      <point x="97" y="884" type="line"/>
      <point x="97" y="1030" type="line"/>
      <point x="936" y="1030" type="line"/>
    </contour>
    <contour>
      <point x="936" y="440" type="line"/>
      <point x="97" y="440" type="line"/>
      <point x="97" y="586" type="line"/>
      <point x="936" y="586" type="line"/>
    </contour>
  </outline>
</glyph>
<glyph name="greater-mm" format="2">
  <advance width="1060"/>
  <unicode hex="003E"/>
  <outline>
    <contour>
      <point x="927" y="654" type="line"/>
      <point x="86" y="294" type="line"/>
      <point x="86" y="449" type="line"/>
      <point x="752" y="725" type="line"/>
      <point x="86" y="999" type="line"/>
      <point x="86" y="1154" type="line"/>
      <point x="927" y="799" type="line"/>
    </contour>
  </outline>
</glyph>
<glyph name="question" format="2">
  <advance width="1520"/>
  <unicode hex="003F"/>
  <outline>
    <contour>
      <point x="251" y="427" type="line"/>
      <point x="401" y="539"/>
      <point x="688" y="627"/>
      <point x="830" y="627" type="qcurve" smooth="yes" name="inserted"/>
      <point x="972" y="627"/>
      <point x="1286" y="531"/>
      <point x="1398" y="418" type="qcurve"/>
      <point x="1398" y="257" type="line"/>
      <point x="1200" y="433"/>
      <point x="929" y="505"/>
      <point x="815" y="501" type="qcurve" smooth="yes" name="inserted"/>
      <point x="701" y="497"/>
      <point x="478" y="425"/>
      <point x="251" y="273" type="qcurve"/>
    </contour>
    <contour>
      <point x="251" y="1111" type="line"/>
      <point x="474" y="967"/>
      <point x="697" y="891"/>
      <point x="825" y="889" type="qcurve" smooth="yes" name="inserted"/>
      <point x="953" y="887"/>
      <point x="1188" y="955"/>
      <point x="1398" y="1111" type="qcurve"/>
      <point x="1398" y="978" type="line"/>
      <point x="1286" y="865"/>
      <point x="972" y="769"/>
      <point x="830" y="769" type="qcurve" smooth="yes" name="inserted"/>
      <point x="688" y="769"/>
      <point x="397" y="865"/>
      <point x="251" y="969" type="qcurve"/>
    </contour>
  </outline>
</glyph>
<glyph name="at-mm" format="2">
  <advance width="1610"/>
  <unicode hex="0040"/>
  <outline>
    <contour>
      <point x="926" y="287" type="curve"/>
      <point x="861" y="212"/>
      <point x="776" y="162"/>
      <point x="695" y="162" type="curve" smooth="yes"/>
      <point x="650" y="162"/>
      <point x="607" y="175"/>
      <point x="565" y="201" type="curve" smooth="yes"/>
      <point x="481" y="253"/>
      <point x="424" y="371"/>
      <point x="424" y="500" type="curve" smooth="yes"/>
      <point x="424" y="579"/>
      <point x="444" y="659"/>
      <point x="485" y="739" type="curve" smooth="yes"/>
      <point x="566" y="898"/>
      <point x="699" y="979"/>
      <point x="814" y="979" type="curve" smooth="yes"/>
      <point x="901" y="979"/>
      <point x="983" y="933"/>
      <point x="1040" y="840" type="curve"/>
      <point x="1066" y="957" type="line"/>
      <point x="1200" y="957" type="line"/>
      <point x="1092" y="453" type="line" smooth="yes"/>
      <point x="1077" y="383"/>
      <point x="1069" y="344"/>
      <point x="1069" y="337" type="curve" smooth="yes"/>
      <point x="1069" y="309"/>
      <point x="1093" y="287"/>
      <point x="1122" y="287" type="curve" smooth="yes"/>
      <point x="1149" y="287"/>
      <point x="1183" y="302"/>
      <point x="1226" y="332" type="curve" smooth="yes"/>
      <point x="1341" y="413"/>
      <point x="1412" y="559"/>
      <point x="1412" y="702" type="curve" smooth="yes"/>
      <point x="1412" y="786"/>
      <point x="1391" y="864"/>
      <point x="1348" y="937" type="curve" smooth="yes"/>
      <point x="1262" y="1082"/>
      <point x="1080" y="1176"/>
      <point x="875" y="1176" type="curve" smooth="yes"/>
      <point x="758" y="1176"/>
      <point x="651" y="1149"/>
      <point x="554" y="1094" type="curve" smooth="yes"/>
      <point x="360" y="985"/>
      <point x="249" y="762"/>
      <point x="249" y="529" type="curve" smooth="yes"/>
      <point x="249" y="406"/>
      <point x="276" y="300"/>
      <point x="329" y="212" type="curve" smooth="yes"/>
      <point x="435" y="35"/>
      <point x="650" y="-48"/>
      <point x="895" y="-48" type="curve" smooth="yes"/>
      <point x="1158" y="-48"/>
      <point x="1336" y="54"/>
      <point x="1424" y="179" type="curve"/>
      <point x="1560" y="179" type="line"/>
      <point x="1535" y="126"/>
      <point x="1491" y="73"/>
      <point x="1429" y="18" type="curve" smooth="yes"/>
      <point x="1304" y="-91"/>
      <point x="1138" y="-159"/>
      <point x="898" y="-159" type="curve" smooth="yes"/>
      <point x="558" y="-159"/>
      <point x="303" y="-20"/>
      <point x="200" y="210" type="curve"/>
      <point x="159" y="305"/>
      <point x="138" y="407"/>
      <point x="138" y="517" type="curve" smooth="yes"/>
      <point x="138" y="639"/>
      <point x="163" y="755"/>
      <point x="212" y="866" type="curve"/>
      <point x="335" y="1138"/>
      <point x="561" y="1286"/>
      <point x="881" y="1286" type="curve" smooth="yes"/>
      <point x="1130" y="1286"/>
      <point x="1337" y="1183"/>
      <point x="1450" y="982" type="curve" smooth="yes"/>
      <point x="1498" y="895"/>
      <point x="1522" y="801"/>
      <point x="1522" y="700" type="curve" smooth="yes"/>
      <point x="1522" y="555"/>
      <point x="1471" y="426"/>
      <point x="1370" y="313" type="curve" smooth="yes"/>
      <point x="1279" y="212"/>
      <point x="1179" y="162"/>
      <point x="1071" y="162" type="curve" smooth="yes"/>
      <point x="1002" y="162"/>
      <point x="960" y="183"/>
      <point x="940" y="222" type="curve" smooth="yes"/>
      <point x="934" y="235"/>
      <point x="929" y="256"/>
    </contour>
    <contour>
      <point x="540" y="483" type="curve" smooth="yes"/>
      <point x="540" y="346"/>
      <point x="617" y="266"/>
      <point x="701" y="266" type="curve" smooth="yes"/>
      <point x="757" y="266"/>
      <point x="822" y="300"/>
      <point x="879" y="366" type="curve" smooth="yes"/>
      <point x="935" y="432"/>
      <point x="975" y="543"/>
      <point x="975" y="644" type="curve" smooth="yes"/>
      <point x="975" y="780"/>
      <point x="897" y="859"/>
      <point x="801" y="859" type="curve" smooth="yes"/>
      <point x="736" y="859"/>
      <point x="681" y="828"/>
      <point x="628" y="756" type="curve" smooth="yes"/>
      <point x="575" y="684"/>
      <point x="540" y="568"/>
    </contour>
  </outline>
</glyph>
<glyph name="at" format="2">
  <advance width="1610"/>
  <unicode hex="0040"/>
  <outline>
    <contour>
      <point x="926" y="287" type="qcurve"/>
      <point x="877" y="231"/>
      <point x="756" y="162"/>
      <point x="695" y="162" type="qcurve"/>
      <point x="628" y="162"/>
      <point x="502" y="240"/>
      <point x="463" y="322" type="qcurve" smooth="yes"/>
      <point x="444" y="362"/>
      <point x="424" y="452"/>
      <point x="424" y="500" type="qcurve"/>
      <point x="424" y="619"/>
      <point x="546" y="858"/>
      <point x="637" y="918" type="qcurve" smooth="yes"/>
      <point x="682" y="949"/>
      <point x="771" y="979"/>
      <point x="814" y="979" type="qcurve"/>
      <point x="879" y="979"/>
      <point x="997" y="910"/>
      <point x="1040" y="840" type="qcurve"/>
      <point x="1066" y="957" type="line"/>
      <point x="1200" y="957" type="line"/>
      <point x="1092" y="453" type="line"/>
      <point x="1080" y="400"/>
      <point x="1069" y="342"/>
      <point x="1069" y="337" type="qcurve"/>
      <point x="1069" y="316"/>
      <point x="1100" y="287"/>
      <point x="1122" y="287" type="qcurve"/>
      <point x="1142" y="287"/>
      <point x="1194" y="310"/>
      <point x="1226" y="332" type="qcurve"/>
      <point x="1312" y="393"/>
      <point x="1412" y="595"/>
      <point x="1412" y="702" type="qcurve"/>
      <point x="1412" y="828"/>
      <point x="1283" y="1046"/>
      <point x="1156" y="1111" type="qcurve" smooth="yes"/>
      <point x="1092" y="1144"/>
      <point x="952" y="1176"/>
      <point x="875" y="1176" type="qcurve"/>
      <point x="699" y="1176"/>
      <point x="408" y="1012"/>
      <point x="328" y="858" type="qcurve" smooth="yes"/>
      <point x="289" y="781"/>
      <point x="249" y="616"/>
      <point x="249" y="529" type="qcurve"/>
      <point x="249" y="344"/>
      <point x="408" y="79"/>
      <point x="560" y="16" type="qcurve" smooth="yes"/>
      <point x="635" y="-16"/>
      <point x="803" y="-48"/>
      <point x="895" y="-48" type="qcurve"/>
      <point x="1092" y="-48"/>
      <point x="1358" y="85"/>
      <point x="1424" y="179" type="qcurve"/>
      <point x="1560" y="179" type="line"/>
      <point x="1522" y="100"/>
      <point x="1335" y="-64"/>
      <point x="1206" y="-112" type="qcurve" smooth="yes"/>
      <point x="1142" y="-135"/>
      <point x="988" y="-159"/>
      <point x="898" y="-159" type="qcurve"/>
      <point x="730" y="-159"/>
      <point x="449" y="-73"/>
      <point x="350" y="12" type="qcurve" smooth="yes"/>
      <point x="300" y="55"/>
      <point x="225" y="154"/>
      <point x="200" y="210" type="qcurve"/>
      <point x="169" y="281"/>
      <point x="138" y="434"/>
      <point x="138" y="517" type="qcurve"/>
      <point x="138" y="608"/>
      <point x="175" y="783"/>
      <point x="212" y="866" type="qcurve"/>
      <point x="304" y="1070"/>
      <point x="641" y="1286"/>
      <point x="881" y="1286" type="qcurve"/>
      <point x="1068" y="1286"/>
      <point x="1365" y="1133"/>
      <point x="1450" y="982" type="qcurve"/>
      <point x="1486" y="917"/>
      <point x="1522" y="776"/>
      <point x="1522" y="700" type="qcurve"/>
      <point x="1522" y="591"/>
      <point x="1446" y="398"/>
      <point x="1370" y="313" type="qcurve"/>
      <point x="1302" y="238"/>
      <point x="1152" y="162"/>
      <point x="1071" y="162" type="qcurve"/>
      <point x="1019" y="162"/>
      <point x="955" y="193"/>
      <point x="940" y="222" type="qcurve"/>
      <point x="936" y="232"/>
      <point x="928" y="264"/>
    </contour>
    <contour>
      <point x="540" y="483" type="qcurve"/>
      <point x="540" y="380"/>
      <point x="638" y="266"/>
      <point x="701" y="266" type="qcurve"/>
      <point x="743" y="266"/>
      <point x="836" y="316"/>
      <point x="878" y="366" type="qcurve" smooth="yes"/>
      <point x="921" y="415"/>
      <point x="975" y="568"/>
      <point x="975" y="644" type="qcurve"/>
      <point x="975" y="746"/>
      <point x="873" y="859"/>
      <point x="801" y="859" type="qcurve"/>
      <point x="752" y="859"/>
      <point x="668" y="810"/>
      <point x="628" y="756" type="qcurve" smooth="yes"/>
      <point x="588" y="702"/>
      <point x="540" y="547"/>
    </contour>
  </outline>
</glyph>
<glyph name="bracketleft" format="2">
  <advance width="600"/>
  <unicode hex="005B"/>
  <outline>
    <contour>
      <point x="106" y="-301" type="line"/>
      <point x="106" y="1322" type="line"/>
      <point x="450" y="1322" type="line"/>
      <point x="450" y="1193" type="line"/>
      <point x="262" y="1193" type="line"/>
      <point x="262" y="-172" type="line"/>
      <point x="450" y="-172" type="line"/>
      <point x="450" y="-301" type="line"/>
    </contour>
  </outline>
</glyph>
<glyph name="backslash" format="2">
  <advance width="780"/>
  <unicode hex="005C"/>
  <outline>
    <contour>
      <point x="496" y="0" type="line"/>
      <point x="126" y="1324" type="line"/>
      <point x="252" y="1324" type="line"/>
      <point x="620" y="0" type="line"/>
    </contour>
  </outline>
</glyph>
<glyph name="bracketright-mm" format="2">
  <advance width="590"/>
  <unicode hex="005D"/>
  <outline>
    <contour>
      <point x="440" y="-291" type="line"/>
      <point x="96" y="-291" type="line"/>
      <point x="96" y="-162" type="line"/>
      <point x="284" y="-162" type="line"/>
      <point x="284" y="1203" type="line"/>
      <point x="96" y="1203" type="line"/>
      <point x="96" y="1332" type="line"/>
      <point x="440" y="1332" type="line"/>
    </contour>
  </outline>
</glyph>
<glyph name="asciicircum" format="2">
  <advance width="960"/>
  <unicode hex="005E"/>
  <outline>
    <contour>
      <point x="271" y="734" type="line"/>
      <point x="111" y="734" type="line"/>
      <point x="417" y="1428" type="line"/>
      <point x="542" y="1428" type="line"/>
      <point x="850" y="734" type="line"/>
      <point x="693" y="734" type="line"/>
      <point x="479" y="1251" type="line"/>
    </contour>
  </outline>
</glyph>
<glyph name="braceleft" format="2">
  <advance width="750"/>
  <unicode hex="007B"/>
  <outline>
    <contour>
      <point x="116" y="602" type="line"/>
      <point x="183" y="603"/>
      <point x="267" y="672"/>
      <point x="281" y="732" type="qcurve" smooth="yes"/>
      <point x="295" y="792"/>
      <point x="296" y="1081"/>
      <point x="301" y="1127" type="qcurve"/>
      <point x="308" y="1200"/>
      <point x="351" y="1288"/>
      <point x="382" y="1314" type="qcurve" smooth="yes"/>
      <point x="398" y="1328"/>
      <point x="438" y="1348"/>
      <point x="462" y="1355" type="qcurve"/>
      <point x="478" y="1359"/>
      <point x="532" y="1363"/>
      <point x="569" y="1363" type="qcurve"/>
      <point x="618" y="1363" type="line"/>
      <point x="618" y="1227" type="line"/>
      <point x="591" y="1227" type="line"/>
      <point x="501" y="1227"/>
      <point x="442" y="1162"/>
      <point x="442" y="1050" type="qcurve"/>
      <point x="442" y="936"/>
      <point x="437" y="793"/>
      <point x="432" y="763" type="qcurve"/>
      <point x="417" y="670"/>
      <point x="341" y="570"/>
      <point x="261" y="531" type="qcurve"/>
      <point x="356" y="491"/>
      <point x="442" y="327"/>
      <point x="442" y="141" type="qcurve"/>
      <point x="442" y="56"/>
      <point x="444" y="-44"/>
      <point x="445" y="-60" type="qcurve"/>
      <point x="452" y="-119"/>
      <point x="509" y="-166"/>
      <point x="591" y="-166" type="qcurve"/>
      <point x="618" y="-166" type="line"/>
      <point x="618" y="-302" type="line"/>
      <point x="569" y="-302" type="line"/>
      <point x="526" y="-302"/>
      <point x="465" y="-295"/>
      <point x="446" y="-288" type="qcurve"/>
      <point x="391" y="-268"/>
      <point x="318" y="-179"/>
      <point x="307" y="-110" type="qcurve" smooth="yes"/>
      <point x="296" y="-42"/>
      <point x="295" y="270"/>
      <point x="281" y="330" type="qcurve" smooth="yes"/>
      <point x="267" y="389"/>
      <point x="183" y="459"/>
      <point x="116" y="460" type="qcurve"/>
    </contour>
  </outline>
</glyph>
<glyph name="braceright" format="2">
  <advance width="740"/>
  <unicode hex="007D"/>
  <outline>
    <contour>
      <point x="588" y="592" type="qcurve"/>
      <point x="588" y="450" type="line"/>
      <point x="521" y="449"/>
      <point x="437" y="379"/>
      <point x="423" y="320" type="qcurve" smooth="yes"/>
      <point x="409" y="261"/>
      <point x="408" y="-29"/>
      <point x="403" y="-75" type="qcurve"/>
      <point x="395" y="-148"/>
      <point x="353" y="-236"/>
      <point x="322" y="-262" type="qcurve" smooth="yes"/>
      <point x="306" y="-276"/>
      <point x="266" y="-296"/>
      <point x="242" y="-303" type="qcurve"/>
      <point x="226" y="-308"/>
      <point x="172" y="-312"/>
      <point x="135" y="-312" type="qcurve"/>
      <point x="86" y="-312" type="line"/>
      <point x="86" y="-176" type="line"/>
      <point x="113" y="-176" type="line"/>
      <point x="203" y="-176"/>
      <point x="262" y="-111"/>
      <point x="262" y="2" type="qcurve"/>
      <point x="262" y="110"/>
      <point x="266" y="248"/>
      <point x="270" y="277" type="qcurve"/>
      <point x="284" y="373"/>
      <point x="367" y="489"/>
      <point x="443" y="521" type="qcurve"/>
      <point x="343" y="568"/>
      <point x="262" y="725"/>
      <point x="262" y="912" type="qcurve"/>
      <point x="262" y="996"/>
      <point x="260" y="1096"/>
      <point x="258" y="1113" type="qcurve"/>
      <point x="252" y="1171"/>
      <point x="195" y="1217"/>
      <point x="113" y="1217" type="qcurve"/>
      <point x="86" y="1217" type="line"/>
      <point x="86" y="1353" type="line"/>
      <point x="135" y="1353" type="line"/>
      <point x="178" y="1353"/>
      <point x="239" y="1346"/>
      <point x="258" y="1340" type="qcurve"/>
      <point x="313" y="1321"/>
      <point x="386" y="1230"/>
      <point x="397" y="1162" type="qcurve" smooth="yes"/>
      <point x="408" y="1093"/>
      <point x="409" y="782"/>
      <point x="423" y="722" type="qcurve" smooth="yes"/>
      <point x="437" y="663"/>
      <point x="521" y="593"/>
    </contour>
  </outline>
</glyph>
<glyph name="asciitilde-mm" format="2">
  <advance width="1130"/>
  <unicode hex="007E"/>
  <outline>
    <contour>
      <point x="105" y="591" type="curve"/>
      <point x="105" y="768" type="line"/>
      <point x="166" y="837"/>
      <point x="247" y="872"/>
      <point x="346" y="872" type="curve" smooth="yes"/>
      <point x="415" y="872"/>
      <point x="478" y="857"/>
      <point x="618" y="797" type="curve"/>
      <point x="698" y="764"/>
      <point x="728" y="756"/>
      <point x="768" y="756" type="curve" smooth="yes"/>
      <point x="844" y="756"/>
      <point x="929" y="807"/>
      <point x="992" y="875" type="curve"/>
      <point x="992" y="691" type="line"/>
      <point x="919" y="622"/>
      <point x="847" y="592"/>
      <point x="752" y="592" type="curve" smooth="yes"/>
      <point x="717" y="592"/>
      <point x="684" y="596"/>
      <point x="653" y="605" type="curve" smooth="yes"/>
      <point x="621" y="613"/>
      <point x="571" y="632"/>
      <point x="503" y="663" type="curve" smooth="yes"/>
      <point x="434" y="694"/>
      <point x="377" y="709"/>
      <point x="332" y="709" type="curve" smooth="yes"/>
      <point x="257" y="709"/>
      <point x="202" y="684"/>
    </contour>
  </outline>
</glyph>
<glyph name="asciitilde" format="2">
  <advance width="1130"/>
  <unicode hex="007E"/>
  <outline>
    <contour>
      <point x="105" y="591" type="qcurve"/>
      <point x="105" y="768" type="line"/>
      <point x="151" y="820" name="inserted"/>
      <point x="272" y="872"/>
      <point x="346" y="872" type="qcurve"/>
      <point x="398" y="872"/>
      <point x="513" y="842"/>
      <point x="618" y="797" type="qcurve"/>
      <point x="678" y="772"/>
      <point x="738" y="756"/>
      <point x="768" y="756" type="qcurve"/>
      <point x="825" y="756"/>
      <point x="945" y="824"/>
      <point x="992" y="875" type="qcurve"/>
      <point x="992" y="691" type="line"/>
      <point x="937" y="639"/>
      <point x="823" y="592"/>
      <point x="752" y="592" type="qcurve"/>
      <point x="700" y="592"/>
      <point x="605" y="617"/>
      <point x="502" y="663" type="qcurve" smooth="yes" name="inserted"/>
      <point x="451" y="686" name="inserted"/>
      <point x="366" y="709"/>
      <point x="332" y="709" type="qcurve"/>
      <point x="276" y="709"/>
      <point x="178" y="661"/>
    </contour>
  </outline>
</glyph>
<glyph name="danda" format="2">
  <advance width="570"/>
  <unicode hex="0964"/>
  <outline>
    <contour>
      <point x="380" y="1418" type="line"/>
      <point x="380" y="0" type="line"/>
      <point x="250" y="0" type="line"/>
      <point x="250" y="1418" type="line"/>
    </contour>
  </outline>
</glyph>
<glyph name="kok" format="2">
  <advance width="1660"/>
  <unicode hex="ABC0"/>
  <outline>
    <contour>
      <point x="113" y="1324" type="line"/>
      <point x="1513" y="1324" type="line"/>
      <point x="1513" y="1156" type="line"/>
      <point x="1447" y="1156" type="line"/>
      <point x="1447" y="0" type="line"/>
      <point x="175" y="0" type="line"/>
      <point x="175" y="1156" type="line"/>
      <point x="113" y="1156" type="line"/>
    </contour>
    <contour>
      <point x="369" y="392" type="line"/>
      <point x="556" y="566" type="line"/>
      <point x="556" y="1156" type="line"/>
      <point x="369" y="1156" type="line"/>
    </contour>
    <contour>
      <point x="369" y="159" type="line"/>
      <point x="556" y="162" type="line"/>
      <point x="556" y="323" type="line"/>
    </contour>
    <contour>
      <point x="1094" y="987" type="line"/>
      <point x="1281" y="1156" type="line"/>
      <point x="1094" y="1156" type="line"/>
    </contour>
    <contour>
      <point x="1094" y="778" type="line"/>
      <point x="1094" y="162" type="line"/>
      <point x="1281" y="158" type="line"/>
      <point x="1281" y="942" type="line"/>
    </contour>
    <contour>
      <point x="734" y="696" type="line"/>
      <point x="921" y="856" type="line"/>
      <point x="921" y="1156" type="line"/>
      <point x="734" y="1156" type="line"/>
    </contour>
    <contour>
      <point x="754" y="484" type="line"/>
      <point x="754" y="162" type="line"/>
      <point x="941" y="162" type="line"/>
      <point x="941" y="662" type="line"/>
    </contour>
  </outline>
</glyph>
<glyph name="sam" format="2">
  <advance width="1536"/>
  <unicode hex="ABC1"/>
  <outline>
    <contour>
      <point x="770" y="842" type="line"/>
      <point x="853" y="841" type="line"/>
      <point x="896" y="1002"/>
      <point x="952" y="1096"/>
      <point x="1023" y="1122" type="curve" smooth="yes"/>
      <point x="1093" y="1147"/>
      <point x="1155" y="1135"/>
      <point x="1210" y="1085" type="curve" smooth="yes"/>
      <point x="1264" y="1035"/>
      <point x="1296" y="969"/>
      <point x="1305" y="887" type="curve" smooth="yes"/>
      <point x="1314" y="804"/>
      <point x="1306" y="721"/>
      <point x="1281" y="637" type="curve" smooth="yes"/>
      <point x="1230" y="469"/>
      <point x="1079" y="332"/>
      <point x="880" y="207" type="curve"/>
      <point x="880" y="0" type="line"/>
      <point x="1040" y="113"/>
      <point x="1148" y="192"/>
      <point x="1203" y="235" type="curve" smooth="yes"/>
      <point x="1258" y="278"/>
      <point x="1313" y="342"/>
      <point x="1370" y="428" type="curve" smooth="yes"/>
      <point x="1426" y="514"/>
      <point x="1460" y="623"/>
      <point x="1472" y="754" type="curve" smooth="yes"/>
      <point x="1484" y="885"/>
      <point x="1465" y="999"/>
      <point x="1414" y="1095" type="curve" smooth="yes"/>
      <point x="1363" y="1190"/>
      <point x="1302" y="1253"/>
      <point x="1231" y="1282" type="curve" smooth="yes"/>
      <point x="1160" y="1311"/>
      <point x="1081" y="1313"/>
      <point x="995" y="1290" type="curve" smooth="yes"/>
      <point x="909" y="1266"/>
      <point x="833" y="1185"/>
      <point x="768" y="1047" type="curve"/>
    </contour>
    <contour>
      <point x="766" y="842" type="line"/>
      <point x="683" y="841" type="line"/>
      <point x="640" y="1002"/>
      <point x="584" y="1096"/>
      <point x="514" y="1122" type="curve" smooth="yes"/>
      <point x="443" y="1147"/>
      <point x="381" y="1135"/>
      <point x="327" y="1085" type="curve" smooth="yes"/>
      <point x="272" y="1035"/>
      <point x="240" y="969"/>
      <point x="231" y="887" type="curve" smooth="yes"/>
      <point x="222" y="804"/>
      <point x="230" y="721"/>
      <point x="255" y="637" type="curve" smooth="yes"/>
      <point x="306" y="469"/>
      <point x="458" y="332"/>
      <point x="654" y="207" type="curve"/>
      <point x="656" y="0" type="line"/>
      <point x="496" y="113"/>
      <point x="389" y="192"/>
      <point x="334" y="235" type="curve" smooth="yes"/>
      <point x="279" y="278"/>
      <point x="223" y="342"/>
      <point x="167" y="428" type="curve" smooth="yes"/>
      <point x="110" y="514"/>
      <point x="76" y="623"/>
      <point x="64" y="754" type="curve" smooth="yes"/>
      <point x="52" y="885"/>
      <point x="71" y="999"/>
      <point x="122" y="1095" type="curve" smooth="yes"/>
      <point x="173" y="1190"/>
      <point x="235" y="1253"/>
      <point x="309" y="1283" type="curve" smooth="yes"/>
      <point x="382" y="1313"/>
      <point x="461" y="1316"/>
      <point x="545" y="1291" type="curve" smooth="yes"/>
      <point x="628" y="1266"/>
      <point x="703" y="1185"/>
      <point x="768" y="1047" type="curve"/>
    </contour>
  </outline>
</glyph>
<glyph name="lai" format="2">
  <advance width="1544"/>
  <unicode hex="ABC2"/>
  <outline>
    <contour>
      <point x="1407" y="1156" type="line"/>
      <point x="1212" y="1156" type="line"/>
      <point x="1212" y="679" type="line"/>
      <point x="1022" y="681" type="line"/>
      <point x="814" y="831"/>
      <point x="576" y="865"/>
      <point x="472" y="802" type="qcurve" smooth="yes"/>
      <point x="369" y="740"/>
      <point x="294" y="511"/>
      <point x="338" y="411" type="qcurve" smooth="yes"/>
      <point x="381" y="311"/>
      <point x="623" y="175"/>
      <point x="818" y="209" type="qcurve" smooth="yes"/>
      <point x="916" y="226"/>
      <point x="1087" y="340"/>
      <point x="1160" y="436" type="qcurve"/>
      <point x="1238" y="246" type="line"/>
      <point x="1050" y="57"/>
      <point x="732" y="-11"/>
      <point x="578" y="21" type="qcurve" smooth="yes"/>
      <point x="425" y="53"/>
      <point x="219" y="221"/>
      <point x="164" y="348" type="qcurve" smooth="yes"/>
      <point x="108" y="474"/>
      <point x="190" y="806"/>
      <point x="310" y="908" type="qcurve" smooth="yes"/>
      <point x="430" y="1011"/>
      <point x="850" y="1037"/>
      <point x="1037" y="867" type="qcurve"/>
      <point x="1037" y="1156" type="line"/>
      <point x="132" y="1156" type="line"/>
      <point x="132" y="1324" type="line"/>
      <point x="1407" y="1324" type="line"/>
    </contour>
  </outline>
</glyph>
<glyph name="mit-mm" format="2">
  <advance width="1640"/>
  <unicode hex="ABC3"/>
  <outline>
    <contour>
      <point x="121" y="1156" type="line"/>
      <point x="291" y="1156" type="line"/>
      <point x="293" y="654" type="line"/>
      <point x="541" y="652" type="line"/>
      <point x="541" y="1156" type="line"/>
      <point x="711" y="1156" type="line"/>
      <point x="711" y="652" type="line"/>
      <point x="1309" y="652" type="line"/>
      <point x="1309" y="505" type="line"/>
      <point x="1192" y="486"/>
      <point x="1114" y="457"/>
      <point x="1076" y="416" type="curve" smooth="yes"/>
      <point x="1037" y="375"/>
      <point x="1017" y="331"/>
      <point x="1015" y="284" type="curve" smooth="yes"/>
      <point x="1013" y="237"/>
      <point x="1030" y="203"/>
      <point x="1066" y="181" type="curve" smooth="yes"/>
      <point x="1102" y="159"/>
      <point x="1147" y="154"/>
      <point x="1202" y="167" type="curve" smooth="yes"/>
      <point x="1256" y="180"/>
      <point x="1287" y="223"/>
      <point x="1296" y="297" type="curve"/>
      <point x="1462" y="299" type="line"/>
      <point x="1449" y="163"/>
      <point x="1400" y="76"/>
      <point x="1314" y="38" type="curve" smooth="yes"/>
      <point x="1227" y="-1"/>
      <point x="1140" y="-7"/>
      <point x="1051" y="20" type="curve" smooth="yes"/>
      <point x="962" y="46"/>
      <point x="903" y="93"/>
      <point x="874" y="162" type="curve" smooth="yes"/>
      <point x="845" y="231"/>
      <point x="841" y="299"/>
      <point x="862" y="368" type="curve" smooth="yes"/>
      <point x="883" y="436"/>
      <point x="920" y="483"/>
      <point x="973" y="509" type="curve"/>
      <point x="704" y="509" type="line"/>
      <point x="704" y="0" type="line"/>
      <point x="541" y="0" type="line"/>
      <point x="541" y="500" type="line"/>
      <point x="293" y="500" type="line"/>
      <point x="291" y="1" type="line"/>
      <point x="133" y="0" type="line"/>
      <point x="133" y="1156" type="line"/>
      <point x="1505" y="1156" type="line"/>
      <point x="1505" y="1324" type="line"/>
      <point x="122" y="1324" type="line"/>
    </contour>
  </outline>
</glyph>
<glyph name="mit" format="2">
  <advance width="1640"/>
  <unicode hex="ABC3"/>
  <outline>
    <contour>
      <point x="121" y="1156" type="line"/>
      <point x="291" y="1156" type="line"/>
      <point x="293" y="654" type="line"/>
      <point x="541" y="652" type="line"/>
      <point x="541" y="1156" type="line"/>
      <point x="711" y="1156" type="line"/>
      <point x="711" y="652" type="line"/>
      <point x="1309" y="652" type="line"/>
      <point x="1309" y="505" type="line"/>
      <point x="1133" y="477"/>
      <point x="1018" y="354"/>
      <point x="1015" y="284" type="qcurve" smooth="yes" name="inserted"/>
      <point x="1012" y="214"/>
      <point x="1120" y="148"/>
      <point x="1202" y="167" type="qcurve" smooth="yes" name="inserted"/>
      <point x="1242" y="176" name="inserted"/>
      <point x="1290" y="242"/>
      <point x="1296" y="297" type="qcurve"/>
      <point x="1462" y="299" type="line"/>
      <point x="1443" y="95"/>
      <point x="1184" y="-20"/>
      <point x="1050" y="20" type="qcurve" smooth="yes" name="inserted"/>
      <point x="917" y="59"/>
      <point x="830" y="265"/>
      <point x="862" y="368" type="qcurve" smooth="yes" name="inserted"/>
      <point x="877" y="419" name="inserted"/>
      <point x="933" y="490"/>
      <point x="973" y="509" type="qcurve"/>
      <point x="704" y="509" type="line"/>
      <point x="704" y="0" type="line"/>
      <point x="541" y="0" type="line"/>
      <point x="541" y="500" type="line"/>
      <point x="293" y="500" type="line"/>
      <point x="291" y="1" type="line"/>
      <point x="133" y="0" type="line"/>
      <point x="133" y="1156" type="line"/>
      <point x="1505" y="1156" type="line"/>
      <point x="1505" y="1324" type="line"/>
      <point x="122" y="1324" type="line"/>
    </contour>
  </outline>
</glyph>
<glyph name="pa" format="2">
  <advance width="1699"/>
  <unicode hex="ABC4"/>
  <outline>
    <contour>
      <point x="1543" y="1324" type="line"/>
      <point x="839" y="1324" type="line"/>
      <point x="818" y="1156" type="line"/>
      <point x="924" y="1149" type="line"/>
      <point x="924" y="0" type="line"/>
      <point x="1099" y="0" type="line"/>
      <point x="1099" y="1153" type="line"/>
      <point x="1353" y="1153" type="line"/>
      <point x="1151" y="685"/>
      <point x="1220" y="100"/>
      <point x="1324" y="26" type="qcurve" smooth="yes"/>
      <point x="1377" y="-11"/>
      <point x="1478" y="60"/>
      <point x="1526" y="168" type="qcurve"/>
      <point x="1469" y="388" type="line"/>
      <point x="1402" y="176"/>
      <point x="1321" y="389"/>
      <point x="1372" y="703" type="qcurve"/>
      <point x="1404" y="859"/>
      <point x="1489" y="1086"/>
      <point x="1543" y="1156" type="qcurve"/>
    </contour>
    <contour>
      <point x="143" y="1324" type="line"/>
      <point x="839" y="1324" type="line"/>
      <point x="818" y="1156" type="line"/>
      <point x="817" y="0" type="line"/>
      <point x="637" y="0" type="line"/>
      <point x="637" y="1151" type="line"/>
      <point x="356" y="1151" type="line"/>
      <point x="431" y="993"/>
      <point x="514" y="667"/>
      <point x="533" y="500" type="qcurve" smooth="yes"/>
      <point x="552" y="334"/>
      <point x="451" y="40"/>
      <point x="339" y="8" type="qcurve" smooth="yes"/>
      <point x="283" y="-7"/>
      <point x="186" y="84"/>
      <point x="145" y="191" type="qcurve"/>
      <point x="247" y="366" type="line"/>
      <point x="300" y="167"/>
      <point x="395" y="270"/>
      <point x="387" y="434" type="qcurve" smooth="yes"/>
      <point x="379" y="597"/>
      <point x="252" y="1012"/>
      <point x="143" y="1156" type="qcurve"/>
    </contour>
  </outline>
</glyph>
<glyph name="na" format="2">
  <advance width="1581"/>
  <unicode hex="ABC5"/>
  <outline>
    <contour>
      <point x="121" y="1324" type="line"/>
      <point x="1421" y="1324" type="line"/>
      <point x="1421" y="1156" type="line"/>
      <point x="1249" y="1156" type="line"/>
      <point x="882" y="418" type="line"/>
      <point x="739" y="484" type="line"/>
      <point x="1069" y="1156" type="line"/>
      <point x="496" y="1156" type="line"/>
      <point x="389" y="969"/>
      <point x="330" y="799"/>
      <point x="318" y="644" type="curve" smooth="yes"/>
      <point x="305" y="489"/>
      <point x="333" y="376"/>
      <point x="400" y="307" type="curve" smooth="yes"/>
      <point x="467" y="237"/>
      <point x="547" y="199"/>
      <point x="639" y="193" type="curve" smooth="yes"/>
      <point x="822" y="181"/>
      <point x="992" y="289"/>
      <point x="1225" y="533" type="curve"/>
      <point x="1290" y="358" type="line"/>
      <point x="1123" y="199"/>
      <point x="987" y="97"/>
      <point x="882" y="52" type="curve" smooth="yes"/>
      <point x="777" y="7"/>
      <point x="664" y="-3"/>
      <point x="543" y="24" type="curve" smooth="yes"/>
      <point x="422" y="51"/>
      <point x="322" y="117"/>
      <point x="243" y="224" type="curve" smooth="yes"/>
      <point x="163" y="330"/>
      <point x="131" y="472"/>
      <point x="148" y="651" type="curve" smooth="yes"/>
      <point x="164" y="830"/>
      <point x="218" y="998"/>
      <point x="310" y="1155" type="curve"/>
      <point x="121" y="1156" type="line"/>
    </contour>
  </outline>
</glyph>
<glyph name="chil-mm" format="2">
  <advance width="1679"/>
  <unicode hex="ABC6"/>
  <outline>
    <contour>
      <point x="141" y="1023" type="line"/>
      <point x="321" y="1003"/>
      <point x="433" y="833"/>
      <point x="454" y="611" type="curve" smooth="yes"/>
      <point x="465" y="500"/>
      <point x="462" y="409"/>
      <point x="447" y="338" type="curve" smooth="yes"/>
      <point x="432" y="267"/>
      <point x="405" y="218"/>
      <point x="368" y="193" type="curve" smooth="yes"/>
      <point x="330" y="168"/>
      <point x="273" y="187"/>
      <point x="196" y="251" type="curve"/>
      <point x="137" y="88" type="line"/>
      <point x="225" y="19"/>
      <point x="304" y="-9"/>
      <point x="374" y="6" type="curve" smooth="yes"/>
      <point x="444" y="21"/>
      <point x="496" y="56"/>
      <point x="531" y="113" type="curve" smooth="yes"/>
      <point x="565" y="169"/>
      <point x="595" y="259"/>
      <point x="620" y="384" type="curve"/>
      <point x="1008" y="384" type="line"/>
      <point x="1079" y="20"/>
      <point x="1324" y="-94"/>
      <point x="1547" y="100" type="curve"/>
      <point x="1469" y="251" type="line"/>
      <point x="1423" y="187"/>
      <point x="1370" y="167"/>
      <point x="1309" y="191" type="curve" smooth="yes"/>
      <point x="1248" y="215"/>
      <point x="1207" y="270"/>
      <point x="1187" y="356" type="curve" smooth="yes"/>
      <point x="1166" y="441"/>
      <point x="1164" y="536"/>
      <point x="1180" y="641" type="curve" smooth="yes"/>
      <point x="1212" y="849"/>
      <point x="1343" y="987"/>
      <point x="1539" y="1023" type="curve"/>
      <point x="1539" y="1324" type="line"/>
      <point x="139" y="1324" type="line"/>
    </contour>
    <contour>
      <point x="310" y="1156" type="curve"/>
      <point x="1356" y="1156" type="line"/>
      <point x="1214" y="1074"/>
      <point x="1121" y="980"/>
      <point x="1077" y="874" type="curve" smooth="yes"/>
      <point x="1033" y="768"/>
      <point x="1009" y="657"/>
      <point x="1005" y="540" type="curve"/>
      <point x="624" y="540" type="line"/>
      <point x="618" y="673"/>
      <point x="594" y="791"/>
      <point x="551" y="892" type="curve" smooth="yes"/>
      <point x="508" y="993"/>
      <point x="428" y="1081"/>
    </contour>
  </outline>
</glyph>
<glyph name="chil" format="2">
  <advance width="1679"/>
  <unicode hex="ABC6"/>
  <outline>
    <contour>
      <point x="141" y="1023" type="line"/>
      <point x="276" y="1008"/>
      <point x="438" y="777"/>
      <point x="454" y="610" type="qcurve" smooth="yes" name="inserted"/>
      <point x="470" y="444"/>
      <point x="424" y="231"/>
      <point x="368" y="193" type="qcurve" smooth="yes" name="inserted"/>
      <point x="339" y="174" name="inserted"/>
      <point x="254" y="203"/>
      <point x="196" y="251" type="qcurve"/>
      <point x="137" y="88" type="line"/>
      <point x="269" y="-16"/>
      <point x="479" y="28"/>
      <point x="530" y="112" type="qcurve" smooth="yes" name="inserted"/>
      <point x="556" y="155" name="inserted"/>
      <point x="601" y="290"/>
      <point x="620" y="384" type="qcurve"/>
      <point x="1008" y="384" type="line"/>
      <point x="1043" y="205"/>
      <point x="1218" y="9"/>
      <point x="1325" y="4" type="qcurve" smooth="yes" name="inserted"/>
      <point x="1378" y="2" name="inserted"/>
      <point x="1490" y="50"/>
      <point x="1547" y="100" type="qcurve"/>
      <point x="1469" y="251" type="line"/>
      <point x="1400" y="155"/>
      <point x="1217" y="227"/>
      <point x="1186" y="356" type="qcurve" smooth="yes" name="inserted"/>
      <point x="1156" y="484"/>
      <point x="1204" y="797"/>
      <point x="1298" y="896" type="qcurve" smooth="yes" name="inserted"/>
      <point x="1345" y="946" name="inserted"/>
      <point x="1466" y="1010"/>
      <point x="1539" y="1023" type="qcurve"/>
      <point x="1539" y="1324" type="line"/>
      <point x="139" y="1324" type="line"/>
    </contour>
    <contour>
      <point x="310" y="1156" type="qcurve"/>
      <point x="1356" y="1156" type="line"/>
      <point x="1143" y="1033"/>
      <point x="1011" y="715"/>
      <point x="1005" y="540" type="qcurve"/>
      <point x="624" y="540" type="line"/>
      <point x="615" y="740"/>
      <point x="487" y="1044"/>
    </contour>
  </outline>
</glyph>
<glyph name="til" format="2">
  <advance width="1694"/>
  <unicode hex="ABC7"/>
  <outline>
    <contour>
      <point x="148" y="1156" type="line"/>
      <point x="233" y="998" type="line"/>
      <point x="283" y="885"/>
      <point x="346" y="735"/>
      <point x="423" y="548" type="curve"/>
      <point x="464" y="417"/>
      <point x="485" y="322"/>
      <point x="487" y="264" type="curve" smooth="yes"/>
      <point x="488" y="206"/>
      <point x="465" y="177"/>
      <point x="417" y="176" type="curve" smooth="yes"/>
      <point x="368" y="175"/>
      <point x="342" y="211"/>
      <point x="339" y="284" type="curve"/>
      <point x="159" y="284" type="line"/>
      <point x="188" y="107"/>
      <point x="255" y="11"/>
      <point x="360" y="-4" type="curve" smooth="yes"/>
      <point x="464" y="-19"/>
      <point x="545" y="3"/>
      <point x="604" y="61" type="curve" smooth="yes"/>
      <point x="662" y="118"/>
      <point x="684" y="193"/>
      <point x="670" y="285" type="curve" smooth="yes"/>
      <point x="655" y="376"/>
      <point x="621" y="499"/>
      <point x="568" y="652" type="curve"/>
      <point x="483" y="882" type="line"/>
      <point x="373" y="1156" type="line"/>
      <point x="688" y="1156" type="line"/>
      <point x="691" y="1011"/>
      <point x="712" y="905"/>
      <point x="753" y="836" type="curve" smooth="yes"/>
      <point x="793" y="767"/>
      <point x="855" y="708"/>
      <point x="938" y="659" type="curve" smooth="yes"/>
      <point x="1021" y="610"/>
      <point x="1124" y="597"/>
      <point x="1246" y="619" type="curve" smooth="yes"/>
      <point x="1367" y="641"/>
      <point x="1453" y="706"/>
      <point x="1504" y="814" type="curve" smooth="yes"/>
      <point x="1554" y="922"/>
      <point x="1558" y="1025"/>
      <point x="1516" y="1124" type="curve" smooth="yes"/>
      <point x="1474" y="1223"/>
      <point x="1409" y="1282"/>
      <point x="1321" y="1302" type="curve" smooth="yes"/>
      <point x="1232" y="1322"/>
      <point x="1106" y="1329"/>
      <point x="941" y="1324" type="curve"/>
      <point x="975" y="1393"/>
      <point x="1049" y="1436"/>
      <point x="1164" y="1455" type="curve"/>
      <point x="1076" y="1626" type="line"/>
      <point x="897" y="1568"/>
      <point x="775" y="1467"/>
      <point x="709" y="1322" type="curve"/>
      <point x="148" y="1324" type="line"/>
    </contour>
    <contour>
      <point x="886" y="1152" type="curve"/>
      <point x="1092" y="1155"/>
      <point x="1221" y="1142"/>
      <point x="1272" y="1113" type="curve" smooth="yes"/>
      <point x="1323" y="1083"/>
      <point x="1346" y="1039"/>
      <point x="1343" y="982" type="curve" smooth="yes"/>
      <point x="1340" y="925"/>
      <point x="1323" y="883"/>
      <point x="1294" y="857" type="curve" smooth="yes"/>
      <point x="1264" y="831"/>
      <point x="1221" y="814"/>
      <point x="1166" y="805" type="curve" smooth="yes"/>
      <point x="1111" y="796"/>
      <point x="1047" y="819"/>
      <point x="976" y="872" type="curve" smooth="yes"/>
      <point x="905" y="925"/>
      <point x="875" y="1019"/>
    </contour>
  </outline>
</glyph>
<glyph name="khou" format="2">
  <advance width="1536"/>
  <unicode hex="ABC8"/>
  <outline>
    <contour>
      <point x="112" y="1324" type="line"/>
      <point x="112" y="1156" type="line"/>
      <point x="180" y="1156" type="line"/>
      <point x="316" y="866"/>
      <point x="380" y="694"/>
      <point x="416" y="516" type="qcurve" smooth="yes" name="inserted"/>
      <point x="452" y="338"/>
      <point x="292" y="162"/>
      <point x="116" y="162" type="qcurve"/>
      <point x="116" y="0" type="line"/>
      <point x="328" y="-18"/>
      <point x="520" y="142"/>
      <point x="562" y="252" type="qcurve" smooth="yes" name="inserted"/>
      <point x="604" y="362"/>
      <point x="620" y="510"/>
      <point x="702" y="630" type="qcurve" smooth="yes" name="inserted"/>
      <point x="784" y="750"/>
      <point x="992" y="802"/>
      <point x="1006" y="674" type="qcurve" smooth="yes" name="inserted"/>
      <point x="1020" y="546"/>
      <point x="1136" y="354"/>
      <point x="1222" y="328" type="qcurve" smooth="yes" name="inserted"/>
      <point x="1265" y="315" name="inserted"/>
      <point x="1356" y="422"/>
      <point x="1404" y="542" type="qcurve"/>
      <point x="1328" y="722" type="line"/>
      <point x="1268" y="494"/>
      <point x="1177" y="586"/>
      <point x="1164" y="734" type="qcurve" smooth="yes" name="inserted"/>
      <point x="1150" y="882"/>
      <point x="912" y="986"/>
      <point x="769" y="911" type="qcurve" smooth="yes" name="inserted"/>
      <point x="698" y="874" name="inserted"/>
      <point x="585" y="755"/>
      <point x="544" y="674" type="qcurve"/>
      <point x="512" y="798" name="inserted"/>
      <point x="418" y="1039"/>
      <point x="356" y="1156" type="qcurve"/>
      <point x="1420" y="1156" type="line"/>
      <point x="1420" y="1324" type="line"/>
    </contour>
  </outline>
</glyph>
<glyph name="ngou" format="2">
  <advance width="1624"/>
  <unicode hex="ABC9"/>
  <outline>
    <contour>
      <point x="622" y="1324" type="line"/>
      <point x="1491" y="1324" type="line"/>
      <point x="1493" y="-4" type="line"/>
      <point x="142" y="-4" type="line"/>
      <point x="142" y="156" type="line"/>
      <point x="264" y="255"/>
      <point x="399" y="428"/>
      <point x="402" y="509" type="qcurve" smooth="yes" name="inserted"/>
      <point x="405" y="590"/>
      <point x="286" y="621"/>
      <point x="261" y="460" type="qcurve"/>
      <point x="96" y="460" type="line"/>
      <point x="119" y="675"/>
      <point x="301" y="819"/>
      <point x="403" y="786" type="qcurve" smooth="yes" name="inserted"/>
      <point x="505" y="754"/>
      <point x="577" y="571"/>
      <point x="557" y="426" type="qcurve" smooth="yes" name="inserted"/>
      <point x="547" y="354" name="inserted"/>
      <point x="444" y="218"/>
      <point x="352" y="156" type="qcurve"/>
      <point x="622" y="156" type="line"/>
    </contour>
    <contour>
      <point x="801" y="156" type="line"/>
      <point x="983" y="156" type="line"/>
      <point x="983" y="1156" type="line"/>
      <point x="801" y="1156" type="line"/>
    </contour>
    <contour>
      <point x="1148" y="156" type="line"/>
      <point x="1327" y="154" type="line"/>
      <point x="1327" y="1156" type="line"/>
      <point x="1148" y="1156" type="line"/>
    </contour>
  </outline>
</glyph>
<glyph name="thou" format="2">
  <advance width="1588"/>
  <unicode hex="ABCA"/>
  <outline>
    <contour>
      <point x="116" y="1324" type="line"/>
      <point x="116" y="1156" type="line"/>
      <point x="676" y="1156" type="line"/>
      <point x="680" y="520"/>
      <point x="659" y="372"/>
      <point x="606" y="281" type="qcurve" smooth="yes" name="inserted"/>
      <point x="553" y="190"/>
      <point x="343" y="145"/>
      <point x="302" y="222" type="qcurve" smooth="yes" name="inserted"/>
      <point x="261" y="299"/>
      <point x="364" y="412"/>
      <point x="468" y="420" type="qcurve"/>
      <point x="408" y="596" type="line"/>
      <point x="244" y="560"/>
      <point x="132" y="416"/>
      <point x="122" y="334" type="qcurve" smooth="yes" name="inserted"/>
      <point x="112" y="252"/>
      <point x="188" y="88"/>
      <point x="302" y="32" type="qcurve" smooth="yes" name="inserted"/>
      <point x="416" y="-24"/>
      <point x="652" y="52"/>
      <point x="706" y="116" type="qcurve" smooth="yes" name="inserted"/>
      <point x="733" y="148" name="inserted"/>
      <point x="774" y="218"/>
      <point x="788" y="256" type="qcurve"/>
      <point x="824" y="172"/>
      <point x="952" y="40"/>
      <point x="1062" y="12" type="qcurve" smooth="yes" name="inserted"/>
      <point x="1172" y="-16"/>
      <point x="1376" y="64"/>
      <point x="1416" y="152" type="qcurve" smooth="yes" name="inserted"/>
      <point x="1456" y="240"/>
      <point x="1444" y="400"/>
      <point x="1382" y="488" type="qcurve" smooth="yes" name="inserted"/>
      <point x="1351" y="532" name="inserted"/>
      <point x="1246" y="582"/>
      <point x="1172" y="588" type="qcurve"/>
      <point x="1104" y="420" type="line"/>
      <point x="1240" y="416"/>
      <point x="1299" y="248"/>
      <point x="1238" y="194" type="qcurve" smooth="yes" name="inserted"/>
      <point x="1176" y="141"/>
      <point x="988" y="222"/>
      <point x="934" y="328" type="qcurve" smooth="yes" name="inserted"/>
      <point x="881" y="433"/>
      <point x="847" y="587"/>
      <point x="853" y="1156" type="qcurve"/>
      <point x="1440" y="1156" type="line"/>
      <point x="1440" y="1324" type="line"/>
    </contour>
  </outline>
</glyph>
<glyph name="wai-mm" format="2">
  <advance width="1548"/>
  <unicode hex="ABCB"/>
  <outline>
    <contour>
      <point x="107" y="1156" type="line"/>
      <point x="207" y="1051"/>
      <point x="272" y="947"/>
      <point x="301" y="844" type="curve" smooth="yes"/>
      <point x="330" y="741"/>
      <point x="345" y="639"/>
      <point x="345" y="538" type="curve" smooth="yes"/>
      <point x="345" y="437"/>
      <point x="324" y="349"/>
      <point x="283" y="274" type="curve" smooth="yes"/>
      <point x="242" y="199"/>
      <point x="183" y="163"/>
      <point x="107" y="166" type="curve"/>
      <point x="107" y="0" type="line"/>
      <point x="250" y="9"/>
      <point x="349" y="58"/>
      <point x="404" y="149" type="curve" smooth="yes"/>
      <point x="459" y="240"/>
      <point x="493" y="337"/>
      <point x="506" y="442" type="curve" smooth="yes"/>
      <point x="532" y="651"/>
      <point x="494" y="916"/>
      <point x="329" y="1156" type="curve"/>
      <point x="1209" y="1156" type="line"/>
      <point x="1144" y="1063"/>
      <point x="1091" y="949"/>
      <point x="1049" y="812" type="curve" smooth="yes"/>
      <point x="1006" y="675"/>
      <point x="1000" y="522"/>
      <point x="1029" y="354" type="curve"/>
      <point x="960" y="442"/>
      <point x="823" y="529"/>
      <point x="618" y="614" type="curve"/>
      <point x="618" y="442" type="line"/>
      <point x="772" y="378"/>
      <point x="913" y="277"/>
      <point x="1041" y="138" type="curve" smooth="yes"/>
      <point x="1169" y="0" type="line"/>
      <point x="1409" y="0" type="line"/>
      <point x="1298" y="112"/>
      <point x="1228" y="213"/>
      <point x="1199" y="302" type="curve" smooth="yes"/>
      <point x="1169" y="391"/>
      <point x="1158" y="481"/>
      <point x="1167" y="574" type="curve" smooth="yes"/>
      <point x="1176" y="666"/>
      <point x="1212" y="790"/>
      <point x="1277" y="946" type="curve"/>
      <point x="1413" y="1156" type="line"/>
      <point x="1413" y="1324" type="line"/>
      <point x="107" y="1324" type="line"/>
    </contour>
  </outline>
</glyph>
<glyph name="wai" format="2">
  <advance width="1548"/>
  <unicode hex="ABCB"/>
  <outline>
    <contour>
      <point x="107" y="1156" type="line"/>
      <point x="257" y="998"/>
      <point x="345" y="690"/>
      <point x="345" y="538" type="qcurve" smooth="yes"/>
      <point x="345" y="386"/>
      <point x="221" y="162"/>
      <point x="107" y="166" type="qcurve"/>
      <point x="107" y="0" type="line"/>
      <point x="321" y="13"/>
      <point x="486" y="285"/>
      <point x="506" y="442" type="qcurve" smooth="yes"/>
      <point x="525" y="599"/>
      <point x="453" y="976"/>
      <point x="329" y="1156" type="qcurve"/>
      <point x="1209" y="1156" type="line"/>
      <point x="1112" y="1017"/>
      <point x="985" y="606"/>
      <point x="1029" y="354" type="qcurve"/>
      <point x="977" y="420"/>
      <point x="772" y="550"/>
      <point x="618" y="614" type="qcurve"/>
      <point x="618" y="442" type="line"/>
      <point x="734" y="394"/>
      <point x="945" y="242"/>
      <point x="1041" y="138" type="qcurve"/>
      <point x="1169" y="0" type="line"/>
      <point x="1409" y="0" type="line"/>
      <point x="1243" y="168"/>
      <point x="1154" y="435"/>
      <point x="1167" y="574" type="qcurve" smooth="yes"/>
      <point x="1174" y="643"/>
      <point x="1228" y="829"/>
      <point x="1277" y="946" type="qcurve"/>
      <point x="1413" y="1156" type="line"/>
      <point x="1413" y="1324" type="line"/>
      <point x="107" y="1324" type="line"/>
    </contour>
  </outline>
</glyph>
<glyph name="yang-mm" format="2">
  <advance width="1605"/>
  <unicode hex="ABCC"/>
  <outline>
    <contour>
      <point x="151" y="1156" type="line"/>
      <point x="342" y="1155" type="line"/>
      <point x="207" y="1068"/>
      <point x="161" y="920"/>
      <point x="177" y="785" type="curve" smooth="yes"/>
      <point x="185" y="718"/>
      <point x="218" y="653"/>
      <point x="277" y="591" type="curve" smooth="yes"/>
      <point x="336" y="529"/>
      <point x="426" y="507"/>
      <point x="549" y="526" type="curve"/>
      <point x="469" y="370" type="line"/>
      <point x="293" y="0" type="line"/>
      <point x="469" y="0" type="line"/>
      <point x="817" y="710" type="line"/>
      <point x="633" y="714" type="line"/>
      <point x="530" y="663"/>
      <point x="450" y="663"/>
      <point x="395" y="715" type="curve" smooth="yes"/>
      <point x="340" y="766"/>
      <point x="322" y="831"/>
      <point x="343" y="909" type="curve" smooth="yes"/>
      <point x="363" y="987"/>
      <point x="421" y="1053"/>
      <point x="517" y="1106" type="curve" smooth="yes"/>
      <point x="613" y="1159"/>
      <point x="750" y="1173"/>
      <point x="929" y="1146" type="curve"/>
      <point x="1110" y="1090"/>
      <point x="1196" y="989"/>
      <point x="1185" y="842" type="curve"/>
      <point x="1154" y="719"/>
      <point x="1072" y="672"/>
      <point x="937" y="702" type="curve"/>
      <point x="933" y="506" type="line"/>
      <point x="970" y="234"/>
      <point x="1016" y="80"/>
      <point x="1131" y="26" type="curve" smooth="yes"/>
      <point x="1246" y="-29"/>
      <point x="1382" y="9"/>
      <point x="1441" y="158" type="curve"/>
      <point x="1393" y="334" type="line"/>
      <point x="1341" y="234" type="line"/>
      <point x="1261" y="154"/>
      <point x="1203" y="149"/>
      <point x="1167" y="218" type="curve" smooth="yes"/>
      <point x="1130" y="287"/>
      <point x="1107" y="395"/>
      <point x="1096" y="541" type="curve"/>
      <point x="1195" y="566"/>
      <point x="1262" y="605"/>
      <point x="1295" y="658" type="curve" smooth="yes"/>
      <point x="1328" y="711"/>
      <point x="1346" y="763"/>
      <point x="1349" y="814" type="curve" smooth="yes"/>
      <point x="1354" y="915"/>
      <point x="1336" y="1053"/>
      <point x="1213" y="1154" type="curve"/>
      <point x="1453" y="1156" type="line"/>
      <point x="1453" y="1324" type="line"/>
      <point x="151" y="1324" type="line"/>
    </contour>
  </outline>
</glyph>
<glyph name="yang" format="2">
  <advance width="1605"/>
  <unicode hex="ABCC"/>
  <outline>
    <contour>
      <point x="151" y="1156" type="line"/>
      <point x="342" y="1155" type="line"/>
      <point x="241" y="1090"/>
      <point x="165" y="886"/>
      <point x="177" y="785" type="qcurve" smooth="yes"/>
      <point x="189" y="684"/>
      <point x="365" y="498"/>
      <point x="549" y="526" type="qcurve"/>
      <point x="469" y="370" type="line"/>
      <point x="293" y="0" type="line"/>
      <point x="469" y="0" type="line"/>
      <point x="817" y="710" type="line"/>
      <point x="633" y="714" type="line"/>
      <point x="478" y="637"/>
      <point x="312" y="792"/>
      <point x="342" y="909" type="qcurve" smooth="yes"/>
      <point x="373" y="1026"/>
      <point x="661" y="1186"/>
      <point x="929" y="1146" type="qcurve"/>
      <point x="1065" y="1104"/>
      <point x="1193" y="952"/>
      <point x="1185" y="842" type="qcurve"/>
      <point x="1162" y="750"/>
      <point x="1038" y="680"/>
      <point x="937" y="702" type="qcurve"/>
      <point x="933" y="506" type="line"/>
      <point x="961" y="302"/>
      <point x="1045" y="66"/>
      <point x="1131" y="26" type="qcurve" smooth="yes"/>
      <point x="1217" y="-15"/>
      <point x="1397" y="46"/>
      <point x="1441" y="158" type="qcurve"/>
      <point x="1393" y="334" type="line"/>
      <point x="1341" y="234" type="line"/>
      <point x="1221" y="114"/>
      <point x="1112" y="322"/>
      <point x="1096" y="541" type="qcurve"/>
      <point x="1245" y="578"/>
      <point x="1345" y="738"/>
      <point x="1349" y="814" type="qcurve" smooth="yes"/>
      <point x="1353" y="890"/>
      <point x="1305" y="1078"/>
      <point x="1213" y="1154" type="qcurve"/>
      <point x="1453" y="1156" type="line"/>
      <point x="1453" y="1324" type="line"/>
      <point x="151" y="1324" type="line"/>
    </contour>
  </outline>
</glyph>
<glyph name="huk" format="2">
  <advance width="1647"/>
  <unicode hex="ABCD"/>
  <outline>
    <contour>
      <point x="121" y="1324" type="line"/>
      <point x="1521" y="1324" type="line"/>
      <point x="1523" y="1157" type="line"/>
      <point x="121" y="1156" type="line"/>
    </contour>
    <contour>
      <point x="119" y="180" type="line"/>
      <point x="387" y="208"/>
      <point x="635" y="532"/>
      <point x="759" y="718" type="qcurve" smooth="yes"/>
      <point x="883" y="904"/>
      <point x="1115" y="1092"/>
      <point x="1233" y="1074" type="qcurve" smooth="yes"/>
      <point x="1351" y="1056"/>
      <point x="1495" y="772"/>
      <point x="1505" y="590" type="qcurve" smooth="yes"/>
      <point x="1515" y="408"/>
      <point x="1459" y="152"/>
      <point x="1397" y="76" type="qcurve" smooth="yes"/>
      <point x="1335" y="0"/>
      <point x="1119" y="8"/>
      <point x="1039" y="132" type="qcurve" smooth="yes"/>
      <point x="999" y="194"/>
      <point x="955" y="334"/>
      <point x="951" y="412" type="qcurve"/>
      <point x="1123" y="412" type="line"/>
      <point x="1139" y="280"/>
      <point x="1239" y="132"/>
      <point x="1275" y="196" type="qcurve" smooth="yes"/>
      <point x="1311" y="260"/>
      <point x="1347" y="548"/>
      <point x="1313" y="716" type="qcurve" smooth="yes"/>
      <point x="1279" y="884"/>
      <point x="1095" y="912"/>
      <point x="957" y="712" type="qcurve" smooth="yes"/>
      <point x="819" y="512"/>
      <point x="463" y="12"/>
      <point x="121" y="0" type="qcurve"/>
    </contour>
  </outline>
</glyph>
<glyph name="un" format="2">
  <advance width="1576"/>
  <unicode hex="ABCE"/>
  <outline>
    <contour>
      <point x="129" y="1156" type="line"/>
      <point x="205" y="1154" type="line"/>
      <point x="233" y="990"/>
      <point x="346" y="763"/>
      <point x="430" y="690" type="qcurve" smooth="yes" name="inserted"/>
      <point x="513" y="618"/>
      <point x="753" y="562"/>
      <point x="851" y="576" type="qcurve" smooth="yes" name="inserted"/>
      <point x="900" y="583" name="inserted"/>
      <point x="982" y="606"/>
      <point x="1015" y="623" type="qcurve"/>
      <point x="1221" y="530"/>
      <point x="1322" y="248"/>
      <point x="1262" y="181" type="qcurve" smooth="yes" name="inserted"/>
      <point x="1201" y="114"/>
      <point x="1135" y="371"/>
      <point x="1053" y="444" type="qcurve" smooth="yes" name="inserted"/>
      <point x="971" y="518"/>
      <point x="723" y="470"/>
      <point x="689" y="226" type="qcurve"/>
      <point x="647" y="411"/>
      <point x="493" y="514"/>
      <point x="415" y="510" type="qcurve" smooth="yes" name="inserted"/>
      <point x="337" y="506"/>
      <point x="205" y="394"/>
      <point x="176" y="312" type="qcurve" smooth="yes" name="inserted"/>
      <point x="162" y="270" name="inserted"/>
      <point x="146" y="114"/>
      <point x="146" y="0" type="qcurve"/>
      <point x="313" y="0" type="line"/>
      <point x="306" y="157"/>
      <point x="371" y="335"/>
      <point x="441" y="333" type="qcurve" smooth="yes" name="inserted"/>
      <point x="476" y="332" name="inserted"/>
      <point x="538" y="240"/>
      <point x="565" y="150" type="qcurve"/>
      <point x="585" y="0" type="line"/>
      <point x="785" y="0" type="line"/>
      <point x="820" y="173"/>
      <point x="861" y="322"/>
      <point x="915" y="320" type="qcurve" smooth="yes" name="inserted"/>
      <point x="969" y="319"/>
      <point x="1025" y="162"/>
      <point x="1056" y="93" type="qcurve" smooth="yes" name="inserted"/>
      <point x="1086" y="24"/>
      <point x="1229" y="-26"/>
      <point x="1299" y="0" type="qcurve" smooth="yes" name="inserted"/>
      <point x="1369" y="26"/>
      <point x="1457" y="202"/>
      <point x="1441" y="324" type="qcurve" smooth="yes" name="inserted"/>
      <point x="1425" y="446"/>
      <point x="1281" y="642"/>
      <point x="1149" y="718" type="qcurve"/>
      <point x="1257" y="870"/>
      <point x="1193" y="1058"/>
      <point x="1093" y="1090" type="qcurve" smooth="yes" name="inserted"/>
      <point x="993" y="1121"/>
      <point x="795" y="1034"/>
      <point x="778" y="906" type="qcurve" smooth="yes" name="inserted"/>
      <point x="769" y="842" name="inserted"/>
      <point x="816" y="752"/>
      <point x="872" y="726" type="qcurve"/>
      <point x="696" y="689"/>
      <point x="381" y="954"/>
      <point x="369" y="1154" type="qcurve"/>
      <point x="1437" y="1154" type="line"/>
      <point x="1437" y="1324" type="line"/>
      <point x="129" y="1324" type="line"/>
    </contour>
    <contour>
      <point x="1009" y="798" type="qcurve"/>
      <point x="897" y="870"/>
      <point x="988" y="972"/>
      <point x="1049" y="936" type="qcurve" smooth="yes" name="inserted"/>
      <point x="1080" y="917" name="inserted"/>
      <point x="1060" y="848"/>
    </contour>
  </outline>
</glyph>
<glyph name="i" format="2">
  <advance width="1588"/>
  <unicode hex="ABCF"/>
  <unicode hex="ABE2"/>
  <outline>
    <contour>
      <point x="112" y="1324" type="line"/>
      <point x="112" y="1156" type="line"/>
      <point x="232" y="1017"/>
      <point x="308" y="883"/>
      <point x="340" y="754" type="curve" smooth="yes"/>
      <point x="372" y="625"/>
      <point x="385" y="521"/>
      <point x="380" y="444" type="curve" smooth="yes"/>
      <point x="369" y="289"/>
      <point x="303" y="187"/>
      <point x="116" y="175" type="curve"/>
      <point x="116" y="0" type="line"/>
      <point x="228" y="8"/>
      <point x="319" y="42"/>
      <point x="390" y="101" type="curve" smooth="yes"/>
      <point x="530" y="219"/>
      <point x="583" y="412"/>
      <point x="519" y="724" type="curve"/>
      <point x="682" y="679"/>
      <point x="806" y="644"/>
      <point x="890" y="620" type="curve" smooth="yes"/>
      <point x="974" y="596"/>
      <point x="1060" y="561"/>
      <point x="1148" y="514" type="curve" smooth="yes"/>
      <point x="1236" y="467"/>
      <point x="1287" y="410"/>
      <point x="1300" y="342" type="curve" smooth="yes"/>
      <point x="1313" y="274"/>
      <point x="1299" y="223"/>
      <point x="1258" y="190" type="curve" smooth="yes"/>
      <point x="1217" y="157"/>
      <point x="1158" y="149"/>
      <point x="1082" y="166" type="curve" smooth="yes"/>
      <point x="1006" y="183"/>
      <point x="973" y="265"/>
      <point x="984" y="412" type="curve"/>
      <point x="820" y="412" type="line"/>
      <point x="812" y="268"/>
      <point x="831" y="167"/>
      <point x="878" y="108" type="curve" smooth="yes"/>
      <point x="925" y="49"/>
      <point x="986" y="15"/>
      <point x="1062" y="4" type="curve" smooth="yes"/>
      <point x="1138" y="-7"/>
      <point x="1206" y="-3"/>
      <point x="1266" y="16" type="curve" smooth="yes"/>
      <point x="1386" y="53"/>
      <point x="1476" y="171"/>
      <point x="1460" y="352" type="curve" smooth="yes"/>
      <point x="1444" y="533"/>
      <point x="1263" y="673"/>
      <point x="980" y="764" type="curve" smooth="yes"/>
      <point x="839" y="809"/>
      <point x="719" y="841"/>
      <point x="620" y="860" type="curve" smooth="yes"/>
      <point x="521" y="879"/>
      <point x="461" y="910"/>
      <point x="438" y="954" type="curve" smooth="yes"/>
      <point x="415" y="998"/>
      <point x="375" y="1065"/>
      <point x="316" y="1156" type="curve"/>
      <point x="1468" y="1156" type="line"/>
      <point x="1468" y="1324" type="line"/>
    </contour>
  </outline>
</glyph>
<glyph name="pham-mm" format="2">
  <advance width="1488"/>
  <unicode hex="ABD0"/>
  <outline>
    <contour>
      <point x="112" y="1324" type="line"/>
      <point x="112" y="0" type="line"/>
      <point x="189" y="31"/>
      <point x="247" y="57"/>
      <point x="284" y="78" type="curve" smooth="yes"/>
      <point x="321" y="99"/>
      <point x="375" y="115"/>
      <point x="446" y="126" type="curve" smooth="yes"/>
      <point x="517" y="137"/>
      <point x="610" y="123"/>
      <point x="726" y="86" type="curve" smooth="yes"/>
      <point x="842" y="49"/>
      <point x="935" y="23"/>
      <point x="1004" y="10" type="curve" smooth="yes"/>
      <point x="1143" y="-17"/>
      <point x="1295" y="59"/>
      <point x="1364" y="214" type="curve"/>
      <point x="1288" y="402" type="line"/>
      <point x="1213" y="274"/>
      <point x="1158" y="213"/>
      <point x="1054" y="200" type="curve" smooth="yes"/>
      <point x="1002" y="193"/>
      <point x="929" y="209"/>
      <point x="834" y="246" type="curve" smooth="yes"/>
      <point x="739" y="283"/>
      <point x="652" y="308"/>
      <point x="572" y="320" type="curve" smooth="yes"/>
      <point x="492" y="332"/>
      <point x="395" y="323"/>
      <point x="280" y="294" type="curve"/>
      <point x="280" y="526" type="line"/>
      <point x="384" y="577"/>
      <point x="473" y="594"/>
      <point x="546" y="578" type="curve" smooth="yes"/>
      <point x="619" y="562"/>
      <point x="692" y="532"/>
      <point x="764" y="488" type="curve" smooth="yes"/>
      <point x="836" y="444"/>
      <point x="919" y="421"/>
      <point x="1014" y="420" type="curve" smooth="yes"/>
      <point x="1109" y="419"/>
      <point x="1203" y="470"/>
      <point x="1296" y="574" type="curve"/>
      <point x="1232" y="766" type="line"/>
      <point x="1109" y="585"/>
      <point x="967" y="569"/>
      <point x="844" y="652" type="curve" smooth="yes"/>
      <point x="783" y="693"/>
      <point x="705" y="727"/>
      <point x="610" y="754" type="curve" smooth="yes"/>
      <point x="515" y="781"/>
      <point x="405" y="768"/>
      <point x="280" y="715" type="curve"/>
      <point x="280" y="1157" type="line"/>
      <point x="1376" y="1156" type="line"/>
      <point x="1376" y="1324" type="line"/>
    </contour>
  </outline>
</glyph>
<glyph name="pham" format="2">
  <advance width="1488"/>
  <unicode hex="ABD0"/>
  <outline>
    <contour>
      <point x="112" y="1324" type="line"/>
      <point x="112" y="0" type="line"/>
      <point x="228" y="46"/>
      <point x="340" y="110"/>
      <point x="446" y="126" type="qcurve" smooth="yes" name="inserted"/>
      <point x="552" y="142"/>
      <point x="900" y="30"/>
      <point x="1004" y="10" type="qcurve" smooth="yes" name="inserted"/>
      <point x="1108" y="-10"/>
      <point x="1312" y="98"/>
      <point x="1364" y="214" type="qcurve"/>
      <point x="1288" y="402" type="line"/>
      <point x="1232" y="306"/>
      <point x="1132" y="210"/>
      <point x="1054" y="200" type="qcurve" smooth="yes" name="inserted"/>
      <point x="976" y="190"/>
      <point x="692" y="302"/>
      <point x="572" y="320" type="qcurve" smooth="yes" name="inserted"/>
      <point x="512" y="329" name="inserted"/>
      <point x="366" y="316"/>
      <point x="280" y="294" type="qcurve"/>
      <point x="280" y="526" type="line"/>
      <point x="436" y="602"/>
      <point x="656" y="554"/>
      <point x="764" y="488" type="qcurve" smooth="yes" name="inserted"/>
      <point x="872" y="422"/>
      <point x="1156" y="418"/>
      <point x="1296" y="574" type="qcurve"/>
      <point x="1232" y="766" type="line"/>
      <point x="1140" y="630"/>
      <point x="936" y="590"/>
      <point x="844" y="652" type="qcurve" smooth="yes" name="inserted"/>
      <point x="752" y="714"/>
      <point x="468" y="794"/>
      <point x="280" y="715" type="qcurve"/>
      <point x="280" y="1157" type="line"/>
      <point x="1376" y="1156" type="line"/>
      <point x="1376" y="1324" type="line"/>
    </contour>
  </outline>
</glyph>
<glyph name="atiya-mm" format="2">
  <advance width="1693"/>
  <unicode hex="ABD1"/>
  <outline>
    <contour>
      <point x="118" y="1156" type="line"/>
      <point x="196" y="1156" type="line"/>
      <point x="196" y="908" type="line"/>
      <point x="205" y="691"/>
      <point x="231" y="531"/>
      <point x="273" y="430" type="curve" smooth="yes"/>
      <point x="315" y="329"/>
      <point x="383" y="232"/>
      <point x="476" y="141" type="curve" smooth="yes"/>
      <point x="569" y="49"/>
      <point x="735" y="2"/>
      <point x="972" y="-1" type="curve"/>
      <point x="1168" y="2"/>
      <point x="1309" y="46"/>
      <point x="1396" y="133" type="curve" smooth="yes"/>
      <point x="1483" y="219"/>
      <point x="1527" y="301"/>
      <point x="1530" y="378" type="curve"/>
      <point x="1375" y="378" type="line"/>
      <point x="1347" y="303"/>
      <point x="1288" y="235"/>
      <point x="1217" y="199" type="curve"/>
      <point x="1217" y="1156" type="line"/>
      <point x="1540" y="1156" type="line"/>
      <point x="1540" y="1324" type="line"/>
      <point x="118" y="1324" type="line"/>
    </contour>
    <contour>
      <point x="356" y="1152" type="curve"/>
      <point x="621" y="1152" type="line"/>
      <point x="621" y="225" type="line"/>
      <point x="533" y="274"/>
      <point x="468" y="360"/>
      <point x="426" y="482" type="curve"/>
      <point x="389" y="637" type="line"/>
      <point x="362" y="794"/>
      <point x="351" y="966"/>
    </contour>
    <contour>
      <point x="1047" y="1156" type="line"/>
      <point x="1049" y="158" type="line"/>
      <point x="934" y="152" type="line"/>
      <point x="800" y="168" type="line"/>
      <point x="800" y="1158" type="line"/>
    </contour>
  </outline>
</glyph>
<glyph name="atiya" format="2">
  <advance width="1693"/>
  <unicode hex="ABD1"/>
  <outline>
    <contour>
      <point x="118" y="1156" type="line"/>
      <point x="196" y="1156" type="line"/>
      <point x="196" y="908" type="line"/>
      <point x="210" y="582"/>
      <point x="336" y="278"/>
      <point x="476" y="140" type="qcurve" smooth="yes"/>
      <point x="546" y="72"/>
      <point x="794" y="1"/>
      <point x="972" y="-1" type="qcurve"/>
      <point x="1266" y="3"/>
      <point x="1526" y="262"/>
      <point x="1530" y="378" type="qcurve"/>
      <point x="1375" y="378" type="line"/>
      <point x="1354" y="322"/>
      <point x="1270" y="226"/>
      <point x="1217" y="199" type="qcurve"/>
      <point x="1217" y="1156" type="line"/>
      <point x="1540" y="1156" type="line"/>
      <point x="1540" y="1324" type="line"/>
      <point x="118" y="1324" type="line"/>
    </contour>
    <contour>
      <point x="356" y="1152" type="qcurve"/>
      <point x="621" y="1152" type="line"/>
      <point x="621" y="225" type="line"/>
      <point x="555" y="262"/>
      <point x="458" y="390"/>
      <point x="426" y="482" type="qcurve"/>
      <point x="389" y="637" type="line"/>
      <point x="369" y="755"/>
      <point x="352" y="1012"/>
    </contour>
    <contour>
      <point x="1047" y="1156" type="line"/>
      <point x="1049" y="158" type="line"/>
      <point x="934" y="152" type="line"/>
      <point x="800" y="168" type="line"/>
      <point x="800" y="1158" type="line"/>
    </contour>
  </outline>
</glyph>
<glyph name="gok" format="2">
  <advance width="1567"/>
  <unicode hex="ABD2"/>
  <outline>
    <contour>
      <point x="155" y="1156" type="line"/>
      <point x="219" y="1158" type="line"/>
      <point x="219" y="0" type="line"/>
      <point x="389" y="2" type="line"/>
      <point x="390" y="1156" type="line"/>
      <point x="555" y="1158" type="line"/>
      <point x="555" y="0" type="line"/>
      <point x="733" y="0" type="line"/>
      <point x="734" y="1158" type="line"/>
      <point x="896" y="1158" type="line"/>
      <point x="891" y="678"/>
      <point x="991" y="489"/>
      <point x="1112" y="466" type="qcurve" smooth="yes" name="inserted"/>
      <point x="1232" y="442"/>
      <point x="1420" y="587"/>
      <point x="1438" y="845" type="qcurve"/>
      <point x="1262" y="845" type="line"/>
      <point x="1260" y="636"/>
      <point x="1075" y="623"/>
      <point x="1074" y="807" type="qcurve"/>
      <point x="1074" y="1151" type="line"/>
      <point x="1314" y="1151" type="line"/>
      <point x="1314" y="1325" type="line"/>
      <point x="155" y="1324" type="line"/>
    </contour>
  </outline>
</glyph>
<glyph name="jham" format="2">
  <advance width="1436"/>
  <unicode hex="ABD3"/>
  <outline>
    <contour>
      <point x="64" y="1156" type="line"/>
      <point x="1056" y="1156" type="line"/>
      <point x="104" y="460" type="line"/>
      <point x="132" y="300" type="line"/>
      <point x="776" y="364" type="line"/>
      <point x="747" y="303"/>
      <point x="745" y="238"/>
      <point x="770" y="170" type="curve" smooth="yes"/>
      <point x="795" y="102"/>
      <point x="839" y="54"/>
      <point x="902" y="26" type="curve" smooth="yes"/>
      <point x="965" y="-2"/>
      <point x="1041" y="-6"/>
      <point x="1132" y="14" type="curve" smooth="yes"/>
      <point x="1223" y="34"/>
      <point x="1279" y="115"/>
      <point x="1300" y="256" type="curve"/>
      <point x="1108" y="256" type="line"/>
      <point x="1116" y="195"/>
      <point x="1091" y="163"/>
      <point x="1032" y="162" type="curve" smooth="yes"/>
      <point x="973" y="161"/>
      <point x="939" y="193"/>
      <point x="930" y="258" type="curve" smooth="yes"/>
      <point x="921" y="323"/>
      <point x="1021" y="379"/>
      <point x="1232" y="424" type="curve"/>
      <point x="1216" y="592" type="line"/>
      <point x="452" y="508" type="line"/>
      <point x="1344" y="1156" type="line"/>
      <point x="1344" y="1316" type="line"/>
      <point x="64" y="1316" type="line"/>
    </contour>
  </outline>
</glyph>
<glyph name="rai-mm" format="2">
  <advance width="1537"/>
  <unicode hex="ABD4"/>
  <outline>
    <contour>
      <point x="263" y="1216" type="curve" smooth="yes"/>
      <point x="326" y="1289"/>
      <point x="397" y="1323"/>
      <point x="474" y="1320" type="curve"/>
      <point x="628" y="1312"/>
      <point x="738" y="1247"/>
      <point x="797" y="1094" type="curve"/>
      <point x="840" y="1171"/>
      <point x="897" y="1230"/>
      <point x="969" y="1270" type="curve" smooth="yes"/>
      <point x="1041" y="1309"/>
      <point x="1122" y="1315"/>
      <point x="1211" y="1286" type="curve" smooth="yes"/>
      <point x="1300" y="1257"/>
      <point x="1364" y="1191"/>
      <point x="1401" y="1090" type="curve"/>
      <point x="1420" y="994"/>
      <point x="1416" y="914"/>
      <point x="1389" y="850" type="curve"/>
      <point x="1222" y="887" type="line"/>
      <point x="1249" y="979"/>
      <point x="1246" y="1045"/>
      <point x="1211" y="1084" type="curve" smooth="yes"/>
      <point x="1176" y="1123"/>
      <point x="1130" y="1133"/>
      <point x="1073" y="1114" type="curve" smooth="yes"/>
      <point x="1016" y="1094"/>
      <point x="972" y="1039"/>
      <point x="941" y="950" type="curve" smooth="yes"/>
      <point x="909" y="861"/>
      <point x="893" y="544"/>
      <point x="893" y="0" type="curve"/>
      <point x="135" y="0" type="line"/>
      <point x="134" y="523"/>
      <point x="139" y="839"/>
      <point x="151" y="946" type="curve" smooth="yes"/>
      <point x="162" y="1053"/>
      <point x="200" y="1143"/>
    </contour>
    <contour>
      <point x="308" y="727" type="curve"/>
      <point x="725" y="727" type="line"/>
      <point x="709" y="900"/>
      <point x="674" y="1017"/>
      <point x="619" y="1079" type="curve" smooth="yes"/>
      <point x="564" y="1141"/>
      <point x="505" y="1159"/>
      <point x="444" y="1134" type="curve" smooth="yes"/>
      <point x="321" y="1083"/>
      <point x="297" y="967"/>
    </contour>
    <contour>
      <point x="305" y="166" type="line"/>
      <point x="728" y="165" type="line"/>
      <point x="725" y="555" type="line"/>
      <point x="305" y="555" type="line"/>
    </contour>
  </outline>
</glyph>
<glyph name="rai" format="2">
  <advance width="1537"/>
  <unicode hex="ABD4"/>
  <outline>
    <contour>
      <point x="133" y="785"/>
      <point x="168" y="1106"/>
      <point x="263" y="1216" type="qcurve" smooth="yes"/>
      <point x="358" y="1325"/>
      <point x="589" y="1314"/>
      <point x="671" y="1262" type="qcurve" smooth="yes"/>
      <point x="712" y="1235"/>
      <point x="775" y="1152"/>
      <point x="797" y="1094" type="qcurve"/>
      <point x="861" y="1210"/>
      <point x="1077" y="1329"/>
      <point x="1211" y="1286" type="qcurve" smooth="yes"/>
      <point x="1278" y="1264"/>
      <point x="1373" y="1166"/>
      <point x="1401" y="1090" type="qcurve"/>
      <point x="1415" y="1018"/>
      <point x="1409" y="898"/>
      <point x="1389" y="850" type="qcurve"/>
      <point x="1222" y="887" type="line"/>
      <point x="1263" y="1025"/>
      <point x="1158" y="1143"/>
      <point x="1073" y="1114" type="qcurve" smooth="yes"/>
      <point x="988" y="1084"/>
      <point x="893" y="816"/>
      <point x="893" y="0" type="qcurve"/>
      <point x="135" y="0" type="line"/>
    </contour>
    <contour>
      <point x="308" y="727" type="qcurve"/>
      <point x="725" y="727" type="line"/>
      <point x="701" y="986"/>
      <point x="536" y="1172"/>
      <point x="444" y="1134" type="qcurve" smooth="yes"/>
      <point x="352" y="1096"/>
      <point x="300" y="907"/>
    </contour>
    <contour>
      <point x="305" y="166" type="line"/>
      <point x="728" y="165" type="line"/>
      <point x="725" y="555" type="line"/>
      <point x="305" y="555" type="line"/>
    </contour>
  </outline>
</glyph>
<glyph name="ba-mm" format="2">
  <advance width="1407"/>
  <unicode hex="ABD5"/>
  <outline>
    <contour>
      <point x="113" y="1156" type="line"/>
      <point x="172" y="1156" type="line"/>
      <point x="276" y="1083"/>
      <point x="415" y="934"/>
      <point x="588" y="710" type="curve"/>
      <point x="481" y="622"/>
      <point x="411" y="513"/>
      <point x="376" y="384" type="curve" smooth="yes"/>
      <point x="341" y="255"/>
      <point x="364" y="157"/>
      <point x="444" y="92" type="curve" smooth="yes"/>
      <point x="524" y="27"/>
      <point x="628" y="-2"/>
      <point x="756" y="6" type="curve" smooth="yes"/>
      <point x="884" y="14"/>
      <point x="974" y="56"/>
      <point x="1026" y="132" type="curve" smooth="yes"/>
      <point x="1130" y="284"/>
      <point x="1091" y="455"/>
      <point x="840" y="722" type="curve"/>
      <point x="963" y="879"/>
      <point x="1099" y="1024"/>
      <point x="1248" y="1156" type="curve"/>
      <point x="1324" y="1156" type="line"/>
      <point x="1324" y="1324" type="line"/>
      <point x="112" y="1324" type="line"/>
    </contour>
    <contour>
      <point x="412" y="1156" type="curve"/>
      <point x="1020" y="1156" type="line"/>
      <point x="940" y="1104"/>
      <point x="837" y="999"/>
      <point x="712" y="842" type="curve"/>
      <point x="571" y="999"/>
      <point x="471" y="1103"/>
    </contour>
    <contour>
      <point x="720" y="590" type="curve"/>
      <point x="899" y="410"/>
      <point x="935" y="309"/>
      <point x="842" y="218" type="curve" smooth="yes"/>
      <point x="795" y="173"/>
      <point x="732" y="163"/>
      <point x="652" y="190" type="curve" smooth="yes"/>
      <point x="572" y="217"/>
      <point x="541" y="269"/>
      <point x="558" y="348" type="curve" smooth="yes"/>
      <point x="575" y="427"/>
      <point x="629" y="507"/>
    </contour>
  </outline>
</glyph>
<glyph name="ba" format="2">
  <advance width="1407"/>
  <unicode hex="ABD5"/>
  <outline>
    <contour>
      <point x="113" y="1156" type="line"/>
      <point x="172" y="1156" type="line"/>
      <point x="250" y="1101" name="inserted"/>
      <point x="458" y="878"/>
      <point x="588" y="710" type="qcurve"/>
      <point x="428" y="578"/>
      <point x="324" y="190"/>
      <point x="444" y="92" type="qcurve" smooth="yes" name="inserted"/>
      <point x="564" y="-6"/>
      <point x="948" y="18"/>
      <point x="1026" y="132" type="qcurve" smooth="yes" name="inserted"/>
      <point x="1104" y="246"/>
      <point x="1028" y="522"/>
      <point x="840" y="722" type="qcurve"/>
      <point x="932" y="840" name="inserted"/>
      <point x="1136" y="1057"/>
      <point x="1248" y="1156" type="qcurve"/>
      <point x="1324" y="1156" type="line"/>
      <point x="1324" y="1324" type="line"/>
      <point x="112" y="1324" type="line"/>
    </contour>
    <contour>
      <point x="412" y="1156" type="qcurve"/>
      <point x="1020" y="1156" type="line"/>
      <point x="960" y="1117" name="inserted"/>
      <point x="806" y="960"/>
      <point x="712" y="842" type="qcurve"/>
      <point x="606" y="960" name="inserted"/>
      <point x="456" y="1116"/>
    </contour>
    <contour>
      <point x="854" y="455"/>
      <point x="912" y="286"/>
      <point x="842" y="218" type="qcurve" smooth="yes" name="inserted"/>
      <point x="772" y="150"/>
      <point x="532" y="230"/>
      <point x="558" y="348" type="qcurve" smooth="yes" name="inserted"/>
      <point x="571" y="407" name="inserted"/>
      <point x="652" y="528"/>
      <point x="720" y="590" type="qcurve"/>
    </contour>
  </outline>
</glyph>
<glyph name="jil" format="2">
  <advance width="1319"/>
  <unicode hex="ABD6"/>
  <outline>
    <contour>
      <point x="118" y="1324" type="line"/>
      <point x="1188" y="1322" type="line"/>
      <point x="1188" y="1156" type="line"/>
      <point x="1067" y="1111"/>
      <point x="945" y="1053"/>
      <point x="820" y="982" type="curve" smooth="yes"/>
      <point x="695" y="910"/>
      <point x="592" y="842"/>
      <point x="512" y="778" type="curve" smooth="yes"/>
      <point x="432" y="714"/>
      <point x="374" y="626"/>
      <point x="337" y="514" type="curve" smooth="yes"/>
      <point x="300" y="401"/>
      <point x="322" y="310"/>
      <point x="403" y="240" type="curve" smooth="yes"/>
      <point x="484" y="170"/>
      <point x="594" y="144"/>
      <point x="733" y="163" type="curve" smooth="yes"/>
      <point x="872" y="182"/>
      <point x="953" y="276"/>
      <point x="976" y="446" type="curve"/>
      <point x="1140" y="446" type="line"/>
      <point x="1119" y="270"/>
      <point x="1065" y="152"/>
      <point x="978" y="92" type="curve" smooth="yes"/>
      <point x="891" y="31"/>
      <point x="782" y="1"/>
      <point x="651" y="-1" type="curve" smooth="yes"/>
      <point x="520" y="-2"/>
      <point x="415" y="24"/>
      <point x="335" y="76" type="curve" smooth="yes"/>
      <point x="255" y="128"/>
      <point x="202" y="207"/>
      <point x="177" y="312" type="curve" smooth="yes"/>
      <point x="151" y="417"/>
      <point x="162" y="523"/>
      <point x="211" y="630" type="curve" smooth="yes"/>
      <point x="308" y="843"/>
      <point x="540" y="1036"/>
      <point x="829" y="1156" type="curve"/>
      <point x="118" y="1156" type="line"/>
    </contour>
  </outline>
</glyph>
<glyph name="dil-mm" format="2">
  <advance width="1628"/>
  <unicode hex="ABD7"/>
  <outline>
    <contour>
      <point x="142" y="1035" type="line"/>
      <point x="250" y="1020"/>
      <point x="370" y="941"/>
      <point x="501" y="797" type="curve"/>
      <point x="343" y="684"/>
      <point x="252" y="571"/>
      <point x="228" y="456" type="curve" smooth="yes"/>
      <point x="204" y="341"/>
      <point x="219" y="242"/>
      <point x="272" y="159" type="curve" smooth="yes"/>
      <point x="325" y="76"/>
      <point x="407" y="25"/>
      <point x="518" y="8" type="curve" smooth="yes"/>
      <point x="629" y="-9"/>
      <point x="719" y="9"/>
      <point x="788" y="62" type="curve" smooth="yes"/>
      <point x="856" y="115"/>
      <point x="899" y="180"/>
      <point x="916" y="256" type="curve" smooth="yes"/>
      <point x="933" y="332"/>
      <point x="932" y="409"/>
      <point x="912" y="488" type="curve" smooth="yes"/>
      <point x="892" y="567"/>
      <point x="836" y="663"/>
      <point x="744" y="778" type="curve"/>
      <point x="942" y="873"/>
      <point x="1104" y="953"/>
      <point x="1229" y="1016" type="curve"/>
      <point x="1138" y="846"/>
      <point x="1097" y="684"/>
      <point x="1106" y="529" type="curve"/>
      <point x="1106" y="412"/>
      <point x="1129" y="304"/>
      <point x="1174" y="204" type="curve" smooth="yes"/>
      <point x="1219" y="104"/>
      <point x="1294" y="36"/>
      <point x="1398" y="0" type="curve"/>
      <point x="1480" y="151" type="line"/>
      <point x="1420" y="161"/>
      <point x="1368" y="208"/>
      <point x="1323" y="292" type="curve" smooth="yes"/>
      <point x="1278" y="375"/>
      <point x="1267" y="507"/>
      <point x="1290" y="686" type="curve" smooth="yes"/>
      <point x="1313" y="865"/>
      <point x="1383" y="982"/>
      <point x="1498" y="1039" type="curve"/>
      <point x="1498" y="1324" type="line"/>
      <point x="144" y="1324" type="line"/>
    </contour>
    <contour>
      <point x="306" y="1156" type="curve"/>
      <point x="1162" y="1156" type="line"/>
      <point x="927" y="1056"/>
      <point x="749" y="971"/>
      <point x="628" y="900" type="curve"/>
      <point x="521" y="1017"/>
      <point x="414" y="1103"/>
    </contour>
    <contour>
      <point x="616" y="666" type="curve"/>
      <point x="704" y="581"/>
      <point x="751" y="502"/>
      <point x="758" y="428" type="curve" smooth="yes"/>
      <point x="765" y="354"/>
      <point x="747" y="291"/>
      <point x="706" y="240" type="curve" smooth="yes"/>
      <point x="665" y="188"/>
      <point x="611" y="168"/>
      <point x="545" y="179" type="curve" smooth="yes"/>
      <point x="478" y="190"/>
      <point x="433" y="226"/>
      <point x="409" y="288" type="curve" smooth="yes"/>
      <point x="360" y="412"/>
      <point x="433" y="530"/>
    </contour>
  </outline>
</glyph>
<glyph name="dil" format="2">
  <advance width="1628"/>
  <unicode hex="ABD7"/>
  <outline>
    <contour>
      <point x="142" y="1035" type="line"/>
      <point x="223" y="1024" name="inserted"/>
      <point x="402" y="905"/>
      <point x="501" y="797" type="qcurve"/>
      <point x="264" y="628"/>
      <point x="192" y="284"/>
      <point x="272" y="159" type="qcurve" smooth="yes" name="inserted"/>
      <point x="351" y="34"/>
      <point x="685" y="-18"/>
      <point x="788" y="62" type="qcurve" smooth="yes" name="inserted"/>
      <point x="890" y="142"/>
      <point x="942" y="370"/>
      <point x="912" y="488" type="qcurve" smooth="yes" name="inserted"/>
      <point x="897" y="547" name="inserted"/>
      <point x="813" y="692"/>
      <point x="744" y="778" type="qcurve"/>
      <point x="892" y="850" name="inserted"/>
      <point x="1135" y="968"/>
      <point x="1229" y="1016" type="qcurve"/>
      <point x="1160" y="888" name="inserted"/>
      <point x="1099" y="645"/>
      <point x="1106" y="529" type="qcurve"/>
      <point x="1106" y="354"/>
      <point x="1242" y="54"/>
      <point x="1398" y="0" type="qcurve"/>
      <point x="1480" y="151" type="line"/>
      <point x="1390" y="166"/>
      <point x="1255" y="417"/>
      <point x="1290" y="686" type="qcurve" smooth="yes" name="inserted"/>
      <point x="1308" y="820" name="inserted"/>
      <point x="1412" y="996"/>
      <point x="1498" y="1039" type="qcurve"/>
      <point x="1498" y="1324" type="line"/>
      <point x="144" y="1324" type="line"/>
    </contour>
    <contour>
      <point x="306" y="1156" type="qcurve"/>
      <point x="1162" y="1156" type="line"/>
      <point x="986" y="1081" name="inserted"/>
      <point x="719" y="953"/>
      <point x="628" y="900" type="qcurve"/>
      <point x="548" y="988" name="inserted"/>
      <point x="387" y="1116"/>
    </contour>
    <contour>
      <point x="748" y="539"/>
      <point x="768" y="317"/>
      <point x="706" y="240" type="qcurve" smooth="yes" name="inserted"/>
      <point x="644" y="162"/>
      <point x="445" y="195"/>
      <point x="408" y="288" type="qcurve" smooth="yes" name="inserted"/>
      <point x="372" y="381"/>
      <point x="479" y="564"/>
      <point x="616" y="666" type="qcurve"/>
    </contour>
  </outline>
</glyph>
<glyph name="ghou-mm" format="2">
  <advance width="1651"/>
  <unicode hex="ABD8"/>
  <outline>
    <contour>
      <point x="127" y="1156" type="line"/>
      <point x="395" y="1158" type="line"/>
      <point x="395" y="610" type="line"/>
      <point x="219" y="583"/>
      <point x="105" y="447"/>
      <point x="129" y="218" type="curve" smooth="yes"/>
      <point x="141" y="103"/>
      <point x="184" y="33"/>
      <point x="258" y="8" type="curve" smooth="yes"/>
      <point x="331" y="-17"/>
      <point x="402" y="-1"/>
      <point x="470" y="56" type="curve" smooth="yes"/>
      <point x="537" y="113"/>
      <point x="568" y="250"/>
      <point x="563" y="466" type="curve"/>
      <point x="1139" y="466" type="line"/>
      <point x="1032" y="351"/>
      <point x="983" y="253"/>
      <point x="992" y="172" type="curve" smooth="yes"/>
      <point x="1001" y="91"/>
      <point x="1052" y="38"/>
      <point x="1146" y="14" type="curve" smooth="yes"/>
      <point x="1240" y="-11"/>
      <point x="1324" y="-2"/>
      <point x="1399" y="42" type="curve" smooth="yes"/>
      <point x="1474" y="85"/>
      <point x="1518" y="186"/>
      <point x="1531" y="346" type="curve"/>
      <point x="1363" y="342" type="line"/>
      <point x="1355" y="211"/>
      <point x="1316" y="147"/>
      <point x="1245" y="150" type="curve" smooth="yes"/>
      <point x="1174" y="152"/>
      <point x="1150" y="186"/>
      <point x="1172" y="252" type="curve" smooth="yes"/>
      <point x="1194" y="317"/>
      <point x="1260" y="386"/>
      <point x="1371" y="458" type="curve"/>
      <point x="1371" y="618" type="line"/>
      <point x="555" y="618" type="line"/>
      <point x="555" y="1156" type="line"/>
      <point x="1531" y="1156" type="line"/>
      <point x="1531" y="1322" type="line"/>
      <point x="127" y="1324" type="line"/>
    </contour>
    <contour>
      <point x="407" y="438" type="curve"/>
      <point x="412" y="302"/>
      <point x="398" y="217"/>
      <point x="365" y="184" type="curve" smooth="yes"/>
      <point x="332" y="151"/>
      <point x="304" y="152"/>
      <point x="283" y="188" type="curve" smooth="yes"/>
      <point x="262" y="224"/>
      <point x="262" y="272"/>
      <point x="283" y="332" type="curve" smooth="yes"/>
      <point x="304" y="392"/>
      <point x="346" y="427"/>
    </contour>
  </outline>
</glyph>
<glyph name="ghou" format="2">
  <advance width="1651"/>
  <unicode hex="ABD8"/>
  <outline>
    <contour>
      <point x="127" y="1156" type="line"/>
      <point x="395" y="1158" type="line"/>
      <point x="395" y="610" type="line"/>
      <point x="263" y="590"/>
      <point x="111" y="390"/>
      <point x="129" y="218" type="qcurve" smooth="yes" name="inserted"/>
      <point x="147" y="46"/>
      <point x="368" y="-30"/>
      <point x="470" y="56" type="qcurve" smooth="yes" name="inserted"/>
      <point x="520" y="99" name="inserted"/>
      <point x="567" y="304"/>
      <point x="563" y="466" type="qcurve"/>
      <point x="1139" y="466" type="line"/>
      <point x="979" y="294"/>
      <point x="1005" y="50"/>
      <point x="1146" y="14" type="qcurve" smooth="yes" name="inserted"/>
      <point x="1287" y="-23"/>
      <point x="1511" y="106"/>
      <point x="1531" y="346" type="qcurve"/>
      <point x="1363" y="342" type="line"/>
      <point x="1351" y="146"/>
      <point x="1139" y="153"/>
      <point x="1172" y="252" type="qcurve" smooth="yes" name="inserted"/>
      <point x="1188" y="301" name="inserted"/>
      <point x="1288" y="404"/>
      <point x="1371" y="458" type="qcurve"/>
      <point x="1371" y="618" type="line"/>
      <point x="555" y="618" type="line"/>
      <point x="555" y="1156" type="line"/>
      <point x="1531" y="1156" type="line"/>
      <point x="1531" y="1322" type="line"/>
      <point x="127" y="1324" type="line"/>
    </contour>
    <contour>
      <point x="415" y="234"/>
      <point x="315" y="134"/>
      <point x="283" y="188" type="qcurve" smooth="yes" name="inserted"/>
      <point x="251" y="242"/>
      <point x="315" y="422"/>
      <point x="407" y="438" type="qcurve"/>
    </contour>
  </outline>
</glyph>
<glyph name="dhou" format="2">
  <advance width="1540"/>
  <unicode hex="ABD9"/>
  <outline>
    <contour>
      <point x="1426" y="1156" type="line"/>
      <point x="978" y="1156" type="line"/>
      <point x="980" y="0" type="line"/>
      <point x="816" y="0" type="line"/>
      <point x="816" y="219" type="line"/>
      <point x="714" y="21"/>
      <point x="366" y="-17"/>
      <point x="266" y="76" type="qcurve" smooth="yes"/>
      <point x="167" y="168"/>
      <point x="140" y="438"/>
      <point x="230" y="551" type="qcurve" smooth="yes"/>
      <point x="275" y="608"/>
      <point x="436" y="671"/>
      <point x="552" y="678" type="qcurve"/>
      <point x="551" y="488" type="line"/>
      <point x="348" y="492"/>
      <point x="292" y="210"/>
      <point x="438" y="168" type="qcurve" smooth="yes"/>
      <point x="512" y="146"/>
      <point x="650" y="244"/>
      <point x="716" y="362" type="qcurve"/>
      <point x="764" y="460"/>
      <point x="812" y="625"/>
      <point x="812" y="691" type="qcurve"/>
      <point x="810" y="1156" type="line"/>
      <point x="132" y="1156" type="line"/>
      <point x="132" y="1324" type="line"/>
      <point x="1428" y="1325" type="line"/>
    </contour>
  </outline>
</glyph>
<glyph name="bham-mm" format="2">
  <advance width="1558"/>
  <unicode hex="ABDA"/>
  <outline>
    <contour>
      <point x="1434" y="1151" type="line"/>
      <point x="1278" y="1150" type="line"/>
      <point x="1278" y="0" type="line"/>
      <point x="1104" y="0" type="line"/>
      <point x="1104" y="1159" type="line"/>
      <point x="577" y="1159" type="line"/>
      <point x="575" y="846" type="line"/>
      <point x="583" y="664"/>
      <point x="560" y="550"/>
      <point x="506" y="505" type="curve" smooth="yes"/>
      <point x="452" y="459"/>
      <point x="395" y="441"/>
      <point x="334" y="452" type="curve" smooth="yes"/>
      <point x="273" y="463"/>
      <point x="223" y="489"/>
      <point x="182" y="532" type="curve" smooth="yes"/>
      <point x="141" y="575"/>
      <point x="122" y="654"/>
      <point x="125" y="771" type="curve"/>
      <point x="291" y="771" type="line"/>
      <point x="285" y="689"/>
      <point x="299" y="645"/>
      <point x="333" y="638" type="curve" smooth="yes"/>
      <point x="367" y="631"/>
      <point x="388" y="641"/>
      <point x="395" y="670" type="curve" smooth="yes"/>
      <point x="402" y="698"/>
      <point x="405" y="766"/>
      <point x="402" y="873" type="curve" smooth="yes"/>
      <point x="399" y="980"/>
      <point x="400" y="1075"/>
      <point x="403" y="1157" type="curve"/>
      <point x="122" y="1156" type="line"/>
      <point x="124" y="1324" type="line"/>
      <point x="1434" y="1325" type="line"/>
    </contour>
  </outline>
</glyph>
<glyph name="bham" format="2">
  <advance width="1558"/>
  <unicode hex="ABDA"/>
  <outline>
    <contour>
      <point x="1434" y="1151" type="line"/>
      <point x="1278" y="1150" type="line"/>
      <point x="1278" y="0" type="line"/>
      <point x="1104" y="0" type="line"/>
      <point x="1104" y="1159" type="line"/>
      <point x="577" y="1159" type="line"/>
      <point x="575" y="846" type="line"/>
      <point x="587" y="573"/>
      <point x="425" y="436"/>
      <point x="334" y="452" type="qcurve" smooth="yes"/>
      <point x="243" y="468"/>
      <point x="121" y="596"/>
      <point x="125" y="771" type="qcurve"/>
      <point x="291" y="771" type="line"/>
      <point x="282" y="648"/>
      <point x="384" y="627"/>
      <point x="395" y="670" type="qcurve" smooth="yes"/>
      <point x="406" y="712"/>
      <point x="398" y="1034"/>
      <point x="403" y="1157" type="qcurve"/>
      <point x="122" y="1156" type="line"/>
      <point x="124" y="1324" type="line"/>
      <point x="1434" y="1325" type="line"/>
    </contour>
  </outline>
</glyph>
<glyph name="kok lonsum" format="2">
  <advance width="1648"/>
  <unicode hex="ABDB"/>
  <outline>
    <contour>
      <point x="126" y="1324" type="line"/>
      <point x="1523" y="1324" type="line"/>
      <point x="1524" y="842" type="line"/>
      <point x="1363" y="838" type="line"/>
      <point x="1362" y="1156" type="line"/>
      <point x="1157" y="1156" type="line"/>
      <point x="1157" y="0" type="line"/>
      <point x="218" y="0" type="line"/>
      <point x="218" y="1156" type="line"/>
      <point x="126" y="1156" type="line"/>
    </contour>
    <contour>
      <point x="773" y="158" type="line"/>
      <point x="995" y="158" type="line"/>
      <point x="995" y="1156" type="line"/>
      <point x="773" y="1156" type="line"/>
    </contour>
    <contour>
      <point x="372" y="150" type="line"/>
      <point x="603" y="150" type="line"/>
      <point x="603" y="1156" type="line"/>
      <point x="372" y="1156" type="line"/>
    </contour>
  </outline>
</glyph>
<glyph name="lai lonsum" format="2">
  <advance width="1388"/>
  <unicode hex="ABDC"/>
  <outline>
    <contour>
      <point x="128" y="1156" type="line"/>
      <point x="892" y="1156" type="line"/>
      <point x="892" y="304" type="line"/>
      <point x="772" y="440"/>
      <point x="452" y="568"/>
      <point x="204" y="576" type="qcurve"/>
      <point x="204" y="400" type="line"/>
      <point x="452" y="396"/>
      <point x="812" y="188"/>
      <point x="892" y="0" type="qcurve"/>
      <point x="1072" y="0" type="line"/>
      <point x="1072" y="1152" type="line"/>
      <point x="1260" y="1152" type="line"/>
      <point x="1260" y="1324" type="line"/>
      <point x="128" y="1324" type="line"/>
    </contour>
  </outline>
</glyph>
<glyph name="mit lonsum" format="2">
  <advance width="1516"/>
  <unicode hex="ABDD"/>
  <outline>
    <contour>
      <point x="164" y="1156" type="line"/>
      <point x="252" y="1156" type="line"/>
      <point x="252" y="0" type="line"/>
      <point x="429" y="1" type="line"/>
      <point x="429" y="446" type="line"/>
      <point x="814" y="446" type="line"/>
      <point x="814" y="0" type="line"/>
      <point x="995" y="2" type="line"/>
      <point x="995" y="446" type="line"/>
      <point x="1210" y="446" type="line"/>
      <point x="1210" y="623" type="line"/>
      <point x="991" y="622" type="line"/>
      <point x="991" y="1156" type="line"/>
      <point x="1360" y="1156" type="line"/>
      <point x="1361" y="1324" type="line"/>
      <point x="164" y="1324" type="line"/>
    </contour>
    <contour>
      <point x="814" y="1156" type="line"/>
      <point x="814" y="622" type="line"/>
      <point x="429" y="622" type="line"/>
      <point x="429" y="1156" type="line"/>
    </contour>
  </outline>
</glyph>
<glyph name="pa lonsum" format="2">
  <advance width="1503"/>
  <unicode hex="ABDE"/>
  <outline>
    <contour>
      <point x="1374" y="1324" type="line"/>
      <point x="838" y="1324" type="line"/>
      <point x="841" y="1156" type="line"/>
      <point x="1123" y="1156" type="line"/>
      <point x="995" y="909"/>
      <point x="939" y="481"/>
      <point x="945" y="403" type="qcurve" smooth="yes"/>
      <point x="951" y="325"/>
      <point x="987" y="182"/>
      <point x="1025" y="108" type="qcurve" smooth="yes"/>
      <point x="1063" y="35"/>
      <point x="1276" y="-24"/>
      <point x="1352" y="208" type="qcurve"/>
      <point x="1259" y="347" type="line"/>
      <point x="1183" y="91"/>
      <point x="1068" y="424"/>
      <point x="1124" y="713" type="qcurve"/>
      <point x="1166" y="864"/>
      <point x="1258" y="1082"/>
      <point x="1308" y="1149" type="qcurve"/>
      <point x="1372" y="1156" type="line"/>
    </contour>
    <contour>
      <point x="126" y="1324" type="line"/>
      <point x="839" y="1325" type="line"/>
      <point x="839" y="0" type="line"/>
      <point x="685" y="0" type="line"/>
      <point x="685" y="1151" type="line"/>
      <point x="394" y="1151" type="line"/>
      <point x="494" y="981"/>
      <point x="570" y="647"/>
      <point x="576" y="490" type="qcurve" smooth="yes"/>
      <point x="583" y="334"/>
      <point x="490" y="28"/>
      <point x="352" y="6" type="qcurve" smooth="yes"/>
      <point x="283" y="-4"/>
      <point x="181" y="98"/>
      <point x="148" y="211" type="qcurve"/>
      <point x="245" y="341" type="line"/>
      <point x="307" y="122"/>
      <point x="423" y="274"/>
      <point x="426" y="402" type="qcurve" smooth="yes"/>
      <point x="430" y="530"/>
      <point x="414" y="652"/>
      <point x="361" y="842" type="qcurve" smooth="yes"/>
      <point x="334" y="938"/>
      <point x="246" y="1095"/>
      <point x="184" y="1157" type="qcurve"/>
      <point x="124" y="1156" type="line"/>
    </contour>
  </outline>
</glyph>
<glyph name="na lonsum" format="2">
  <advance width="1610"/>
  <unicode hex="ABDF"/>
  <outline>
    <contour>
      <point x="116" y="1324" type="line"/>
      <point x="1493" y="1324" type="line"/>
      <point x="1493" y="1156" type="line"/>
      <point x="1318" y="1157" type="line"/>
      <point x="1163" y="831" type="line"/>
      <point x="969" y="831" type="line"/>
      <point x="1121" y="1157" type="line"/>
      <point x="880" y="1156" type="line"/>
      <point x="741" y="869"/>
      <point x="722" y="583"/>
      <point x="842" y="553" type="qcurve" smooth="yes" name="inserted"/>
      <point x="963" y="523"/>
      <point x="1204" y="625"/>
      <point x="1289" y="711" type="qcurve" smooth="yes" name="inserted"/>
      <point x="1332" y="754" name="inserted"/>
      <point x="1428" y="872"/>
      <point x="1483" y="947" type="qcurve"/>
      <point x="1483" y="703" type="line"/>
      <point x="1398" y="552"/>
      <point x="1099" y="371"/>
      <point x="938" y="368" type="qcurve" smooth="yes" name="inserted"/>
      <point x="776" y="365"/>
      <point x="548" y="520"/>
      <point x="554" y="694" type="qcurve" smooth="yes" name="inserted"/>
      <point x="556" y="781" name="inserted"/>
      <point x="629" y="1012"/>
      <point x="699" y="1157" type="qcurve"/>
      <point x="490" y="1156" type="line"/>
      <point x="377" y="945"/>
      <point x="306" y="626"/>
      <point x="354" y="501" type="qcurve" smooth="yes" name="inserted"/>
      <point x="401" y="376"/>
      <point x="596" y="223"/>
      <point x="722" y="187" type="qcurve" smooth="yes" name="inserted"/>
      <point x="849" y="151"/>
      <point x="1133" y="204"/>
      <point x="1235" y="274" type="qcurve" smooth="yes" name="inserted"/>
      <point x="1286" y="309" name="inserted"/>
      <point x="1415" y="428"/>
      <point x="1493" y="511" type="qcurve"/>
      <point x="1494" y="270" type="line"/>
      <point x="1408" y="183"/>
      <point x="1242" y="60"/>
      <point x="1120" y="29" type="qcurve" smooth="yes" name="inserted"/>
      <point x="998" y="-2"/>
      <point x="718" y="7"/>
      <point x="561" y="74" type="qcurve" smooth="yes" name="inserted"/>
      <point x="404" y="142"/>
      <point x="242" y="314"/>
      <point x="196" y="434" type="qcurve" smooth="yes" name="inserted"/>
      <point x="150" y="555"/>
      <point x="175" y="876"/>
      <point x="294" y="1156" type="qcurve"/>
      <point x="116" y="1156" type="line"/>
    </contour>
  </outline>
</glyph>
<glyph name="nalonsum-mm" format="2">
  <advance width="1610"/>
  <unicode hex="ABDF"/>
  <outline>
    <contour>
      <point x="116" y="1324" type="line"/>
      <point x="1493" y="1324" type="line"/>
      <point x="1493" y="1156" type="line"/>
      <point x="1318" y="1157" type="line"/>
      <point x="1163" y="831" type="line"/>
      <point x="969" y="831" type="line"/>
      <point x="1121" y="1157" type="line"/>
      <point x="880" y="1156" type="line"/>
      <point x="695" y="773"/>
      <point x="682" y="593"/>
      <point x="843" y="553" type="curve" smooth="yes"/>
      <point x="923" y="533"/>
      <point x="1003" y="540"/>
      <point x="1084" y="574" type="curve" smooth="yes"/>
      <point x="1164" y="608"/>
      <point x="1232" y="654"/>
      <point x="1289" y="711" type="curve" smooth="yes"/>
      <point x="1346" y="768"/>
      <point x="1410" y="847"/>
      <point x="1483" y="947" type="curve"/>
      <point x="1483" y="703" type="line"/>
      <point x="1426" y="602"/>
      <point x="1348" y="522"/>
      <point x="1249" y="462" type="curve" smooth="yes"/>
      <point x="1149" y="401"/>
      <point x="1045" y="370"/>
      <point x="938" y="368" type="curve" smooth="yes"/>
      <point x="830" y="366"/>
      <point x="738" y="391"/>
      <point x="662" y="443" type="curve" smooth="yes"/>
      <point x="510" y="546"/>
      <point x="512" y="772"/>
      <point x="699" y="1157" type="curve"/>
      <point x="490" y="1156" type="line"/>
      <point x="415" y="1015"/>
      <point x="365" y="892"/>
      <point x="342" y="786" type="curve" smooth="yes"/>
      <point x="294" y="573"/>
      <point x="369" y="402"/>
      <point x="499" y="300" type="curve" smooth="yes"/>
      <point x="629" y="198"/>
      <point x="802" y="142"/>
      <point x="991" y="178" type="curve"/>
      <point x="1086" y="195"/>
      <point x="1167" y="227"/>
      <point x="1235" y="274" type="curve" smooth="yes"/>
      <point x="1303" y="321"/>
      <point x="1389" y="400"/>
      <point x="1493" y="511" type="curve"/>
      <point x="1494" y="270" type="line"/>
      <point x="1379" y="154"/>
      <point x="1283" y="70"/>
      <point x="1120" y="29" type="curve" smooth="yes"/>
      <point x="957" y="-12"/>
      <point x="770" y="-16"/>
      <point x="561" y="75" type="curve" smooth="yes"/>
      <point x="352" y="165"/>
      <point x="257" y="274"/>
      <point x="196" y="435" type="curve" smooth="yes"/>
      <point x="165" y="515"/>
      <point x="154" y="609"/>
      <point x="163" y="716" type="curve" smooth="yes"/>
      <point x="171" y="823"/>
      <point x="215" y="969"/>
      <point x="294" y="1156" type="curve"/>
      <point x="116" y="1156" type="line"/>
    </contour>
  </outline>
</glyph>
<glyph name="til lonsum" format="2">
  <advance width="1555"/>
  <unicode hex="ABE0"/>
  <outline>
    <contour>
      <point x="293" y="1324" type="line"/>
      <point x="116" y="392" type="line"/>
      <point x="254" y="450" name="inserted"/>
      <point x="486" y="476"/>
      <point x="580" y="444" type="qcurve"/>
      <point x="504" y="284"/>
      <point x="612" y="24"/>
      <point x="740" y="4" type="qcurve" smooth="yes" name="inserted"/>
      <point x="867" y="-16"/>
      <point x="1012" y="95"/>
      <point x="1030" y="246" type="qcurve" smooth="yes" name="inserted"/>
      <point x="1039" y="321" name="inserted"/>
      <point x="922" y="466"/>
      <point x="796" y="536" type="qcurve"/>
      <point x="844" y="692"/>
      <point x="1120" y="1112"/>
      <point x="1416" y="1324" type="qcurve"/>
      <point x="1187" y="1324" type="line"/>
      <point x="1012" y="1208"/>
      <point x="744" y="836"/>
      <point x="640" y="596" type="qcurve"/>
      <point x="538" y="630" name="inserted"/>
      <point x="368" y="630"/>
      <point x="300" y="597" type="qcurve"/>
      <point x="476" y="1324" type="line"/>
    </contour>
    <contour>
      <point x="884" y="320"/>
      <point x="864" y="144"/>
      <point x="800" y="142" type="qcurve" smooth="yes" name="inserted"/>
      <point x="736" y="140"/>
      <point x="676" y="252"/>
      <point x="736" y="392" type="qcurve"/>
    </contour>
  </outline>
</glyph>
<glyph name="tillonsum-mm" format="2">
  <advance width="1555"/>
  <unicode hex="ABE0"/>
  <outline>
    <contour>
      <point x="293" y="1324" type="line"/>
      <point x="116" y="392" type="line"/>
      <point x="299" y="470"/>
      <point x="454" y="487"/>
      <point x="580" y="444" type="curve"/>
      <point x="529" y="337"/>
      <point x="522" y="241"/>
      <point x="558" y="154" type="curve" smooth="yes"/>
      <point x="594" y="67"/>
      <point x="655" y="17"/>
      <point x="740" y="4" type="curve" smooth="yes"/>
      <point x="825" y="-9"/>
      <point x="891" y="3"/>
      <point x="940" y="40" type="curve" smooth="yes"/>
      <point x="988" y="77"/>
      <point x="1018" y="145"/>
      <point x="1030" y="246" type="curve" smooth="yes"/>
      <point x="1042" y="346"/>
      <point x="964" y="443"/>
      <point x="796" y="536" type="curve"/>
      <point x="828" y="640"/>
      <point x="890" y="762"/>
      <point x="982" y="902" type="curve" smooth="yes"/>
      <point x="1074" y="1042"/>
      <point x="1219" y="1183"/>
      <point x="1416" y="1324" type="curve"/>
      <point x="1187" y="1324" type="line"/>
      <point x="954" y="1169"/>
      <point x="779" y="916"/>
      <point x="640" y="596" type="curve"/>
      <point x="504" y="641"/>
      <point x="391" y="642"/>
      <point x="300" y="597" type="curve"/>
      <point x="476" y="1324" type="line"/>
    </contour>
    <contour>
      <point x="736" y="392" type="curve"/>
      <point x="835" y="344"/>
      <point x="881" y="291"/>
      <point x="874" y="232" type="curve" smooth="yes"/>
      <point x="867" y="173"/>
      <point x="843" y="143"/>
      <point x="800" y="142" type="curve" smooth="yes"/>
      <point x="757" y="141"/>
      <point x="726" y="159"/>
      <point x="706" y="196" type="curve" smooth="yes"/>
      <point x="686" y="233"/>
      <point x="696" y="299"/>
    </contour>
  </outline>
</glyph>
<glyph name="ngou lonsum" format="2">
  <advance width="1391"/>
  <unicode hex="ABE1"/>
  <outline>
    <contour>
      <point x="142" y="1324" type="line"/>
      <point x="1265" y="1324" type="line"/>
      <point x="1265" y="1138" type="line"/>
      <point x="1171" y="1138" type="line"/>
      <point x="1171" y="0" type="line"/>
      <point x="228" y="0" type="line"/>
      <point x="228" y="1156" type="line"/>
      <point x="142" y="1156" type="line"/>
    </contour>
    <contour>
      <point x="787" y="172" type="line"/>
      <point x="998" y="172" type="line"/>
      <point x="998" y="1141" type="line"/>
      <point x="787" y="1141" type="line"/>
    </contour>
    <contour>
      <point x="393" y="172" type="line"/>
      <point x="613" y="172" type="line"/>
      <point x="613" y="1146" type="line"/>
      <point x="393" y="1146" type="line"/>
    </contour>
  </outline>
</glyph>
<glyph name="ilonsum-mm" format="2">
  <advance width="1588"/>
  <unicode hex="ABE2"/>
  <outline>
    <contour>
      <point x="116" y="0" type="line"/>
      <point x="228" y="8"/>
      <point x="319" y="42"/>
      <point x="390" y="101" type="curve" smooth="yes"/>
      <point x="530" y="219"/>
      <point x="582" y="447"/>
      <point x="519" y="764" type="curve" smooth="yes"/>
      <point x="505" y="834"/>
      <point x="465" y="902"/>
      <point x="438" y="954" type="curve" smooth="yes"/>
      <point x="414" y="1000"/>
      <point x="375" y="1065"/>
      <point x="316" y="1156" type="curve"/>
      <point x="1468" y="1156" type="line"/>
      <point x="1468" y="1324" type="line"/>
      <point x="112" y="1324" type="line"/>
      <point x="112" y="1156" type="line"/>
      <point x="232" y="1017"/>
      <point x="308" y="883"/>
      <point x="340" y="754" type="curve" smooth="yes"/>
      <point x="372" y="625"/>
      <point x="385" y="521"/>
      <point x="380" y="444" type="curve" smooth="yes"/>
      <point x="369" y="289"/>
      <point x="303" y="187"/>
      <point x="116" y="175" type="curve"/>
    </contour>
    <contour>
      <point x="1140" y="0" type="curve" smooth="yes"/>
      <point x="1355" y="0"/>
      <point x="1464" y="152"/>
      <point x="1464" y="354" type="curve" smooth="yes"/>
      <point x="1464" y="556"/>
      <point x="1296" y="670"/>
      <point x="1130" y="670" type="curve" smooth="yes"/>
      <point x="1014" y="670"/>
      <point x="935" y="651"/>
      <point x="834" y="651" type="curve" smooth="yes"/>
      <point x="694" y="651"/>
      <point x="595" y="671"/>
      <point x="472" y="670" type="curve"/>
      <point x="485" y="510" type="line"/>
      <point x="589" y="510"/>
      <point x="715" y="491"/>
      <point x="836" y="491" type="curve" smooth="yes"/>
      <point x="938" y="491"/>
      <point x="1046" y="510"/>
      <point x="1131" y="510" type="curve" smooth="yes"/>
      <point x="1236" y="510"/>
      <point x="1309" y="450"/>
      <point x="1309" y="337" type="curve" smooth="yes"/>
      <point x="1309" y="224"/>
      <point x="1253" y="158"/>
      <point x="1143" y="158" type="curve" smooth="yes"/>
      <point x="1033" y="158"/>
      <point x="983" y="232"/>
      <point x="983" y="337" type="curve" smooth="yes"/>
      <point x="983" y="363"/>
      <point x="983" y="388"/>
      <point x="984" y="412" type="curve"/>
      <point x="820" y="412" type="line"/>
      <point x="818" y="368"/>
      <point x="818" y="344"/>
      <point x="818" y="300" type="curve" smooth="yes"/>
      <point x="818" y="155"/>
      <point x="925" y="0"/>
    </contour>
  </outline>
</glyph>
<glyph name="onap" format="2">
  <advance width="615"/>
  <unicode hex="ABE3"/>
  <outline>
    <contour>
      <point x="64" y="1363" type="curve" smooth="yes"/>
      <point x="47" y="1280"/>
      <point x="65" y="1206"/>
      <point x="120" y="1142" type="curve" smooth="yes"/>
      <point x="174" y="1078"/>
      <point x="247" y="1052"/>
      <point x="338" y="1063" type="curve" smooth="yes"/>
      <point x="429" y="1074"/>
      <point x="495" y="1117"/>
      <point x="534" y="1192" type="curve" smooth="yes"/>
      <point x="573" y="1267"/>
      <point x="580" y="1351"/>
      <point x="557" y="1444" type="curve" smooth="yes"/>
      <point x="533" y="1537"/>
      <point x="470" y="1623"/>
      <point x="369" y="1702" type="curve" smooth="yes"/>
      <point x="267" y="1781"/>
      <point x="166" y="1819"/>
      <point x="67" y="1815" type="curve"/>
      <point x="71" y="1653" type="line"/>
      <point x="134" y="1652"/>
      <point x="188" y="1631"/>
      <point x="233" y="1592" type="curve"/>
      <point x="137" y="1523"/>
      <point x="81" y="1446"/>
    </contour>
    <contour>
      <point x="353" y="1499" type="curve"/>
      <point x="401" y="1463"/>
      <point x="426" y="1413"/>
      <point x="429" y="1350" type="curve" smooth="yes"/>
      <point x="432" y="1287"/>
      <point x="405" y="1245"/>
      <point x="348" y="1224" type="curve" smooth="yes"/>
      <point x="291" y="1203"/>
      <point x="249" y="1221"/>
      <point x="222" y="1278" type="curve" smooth="yes"/>
      <point x="194" y="1335"/>
      <point x="238" y="1408"/>
    </contour>
  </outline>
</glyph>
<glyph name="inap-mm" format="2">
  <advance width="795"/>
  <unicode hex="ABE4"/>
  <outline>
    <contour>
      <point x="75" y="1156" type="line"/>
      <point x="211" y="1157" type="line"/>
      <point x="211" y="0" type="line"/>
      <point x="367" y="-2" type="line"/>
      <point x="367" y="1153" type="line"/>
      <point x="508" y="1159"/>
      <point x="606" y="1179"/>
      <point x="660" y="1212" type="curve" smooth="yes"/>
      <point x="767" y="1279"/>
      <point x="758" y="1391"/>
      <point x="723" y="1485" type="curve" smooth="yes"/>
      <point x="705" y="1532"/>
      <point x="650" y="1565"/>
      <point x="557" y="1585" type="curve" smooth="yes"/>
      <point x="464" y="1604"/>
      <point x="383" y="1588"/>
      <point x="314" y="1536" type="curve" smooth="yes"/>
      <point x="244" y="1484"/>
      <point x="208" y="1414"/>
      <point x="205" y="1325" type="curve"/>
      <point x="75" y="1324" type="line"/>
    </contour>
    <contour>
      <point x="371" y="1326" type="curve"/>
      <point x="384" y="1377"/>
      <point x="417" y="1408"/>
      <point x="472" y="1419" type="curve" smooth="yes"/>
      <point x="526" y="1429"/>
      <point x="558" y="1422"/>
      <point x="568" y="1399" type="curve" smooth="yes"/>
      <point x="578" y="1375"/>
      <point x="561" y="1356"/>
      <point x="518" y="1343" type="curve" smooth="yes"/>
      <point x="475" y="1329"/>
      <point x="426" y="1323"/>
    </contour>
  </outline>
</glyph>
<glyph name="inap" format="2">
  <advance width="795"/>
  <unicode hex="ABE4"/>
  <outline>
    <contour>
      <point x="75" y="1156" type="line"/>
      <point x="211" y="1157" type="line"/>
      <point x="211" y="0" type="line"/>
      <point x="367" y="-2" type="line"/>
      <point x="367" y="1153" type="line"/>
      <point x="579" y="1162"/>
      <point x="740" y="1262"/>
      <point x="744" y="1338" type="qcurve" smooth="yes"/>
      <point x="749" y="1414"/>
      <point x="696" y="1555"/>
      <point x="557" y="1584" type="qcurve" smooth="yes"/>
      <point x="418" y="1614"/>
      <point x="209" y="1458"/>
      <point x="205" y="1325" type="qcurve"/>
      <point x="75" y="1324" type="line"/>
    </contour>
    <contour>
      <point x="371" y="1326" type="qcurve"/>
      <point x="390" y="1403"/>
      <point x="553" y="1434"/>
      <point x="568" y="1398" type="qcurve" smooth="yes"/>
      <point x="583" y="1363"/>
      <point x="453" y="1322"/>
    </contour>
  </outline>
</glyph>
<glyph name="anap" format="2">
  <advance width="582"/>
  <unicode hex="ABE5"/>
  <outline>
    <contour>
      <point x="81" y="1210" type="line"/>
      <point x="282" y="1210" type="line"/>
      <point x="22" y="1595" type="line"/>
      <point x="-168" y="1595" type="line"/>
    </contour>
  </outline>
</glyph>
<glyph name="yenap-mm" format="2">
  <advance width="696"/>
  <unicode hex="ABE6"/>
  <outline>
    <contour>
      <point x="62" y="624" type="curve" smooth="yes"/>
      <point x="65" y="461"/>
      <point x="177" y="351"/>
      <point x="332" y="346" type="curve" smooth="yes"/>
      <point x="409" y="343"/>
      <point x="478" y="370"/>
      <point x="538" y="426" type="curve" smooth="yes"/>
      <point x="598" y="482"/>
      <point x="625" y="557"/>
      <point x="620" y="650" type="curve" smooth="yes"/>
      <point x="615" y="743"/>
      <point x="579" y="815"/>
      <point x="514" y="864" type="curve" smooth="yes"/>
      <point x="449" y="913"/>
      <point x="377" y="931"/>
      <point x="298" y="916" type="curve" smooth="yes"/>
      <point x="141" y="887"/>
      <point x="59" y="787"/>
    </contour>
    <contour>
      <point x="376" y="768" type="curve" smooth="yes"/>
      <point x="443" y="751"/>
      <point x="477" y="707"/>
      <point x="480" y="636" type="curve" smooth="yes"/>
      <point x="483" y="565"/>
      <point x="447" y="521"/>
      <point x="374" y="502" type="curve" smooth="yes"/>
      <point x="301" y="483"/>
      <point x="248" y="500"/>
      <point x="216" y="552" type="curve" smooth="yes"/>
      <point x="184" y="604"/>
      <point x="186" y="657"/>
      <point x="222" y="712" type="curve" smooth="yes"/>
      <point x="258" y="767"/>
      <point x="309" y="785"/>
    </contour>
  </outline>
</glyph>
<glyph name="yenap" format="2">
  <advance width="696"/>
  <unicode hex="ABE6"/>
  <outline>
    <contour>
      <point x="64" y="502"/>
      <point x="216" y="350"/>
      <point x="332" y="346" type="qcurve" smooth="yes" name="inserted"/>
      <point x="448" y="342"/>
      <point x="628" y="510"/>
      <point x="620" y="650" type="qcurve" smooth="yes" name="inserted"/>
      <point x="612" y="790"/>
      <point x="416" y="938"/>
      <point x="298" y="916" type="qcurve" smooth="yes" name="inserted"/>
      <point x="180" y="894"/>
      <point x="60" y="746"/>
      <point x="62" y="624" type="qcurve" smooth="yes" name="inserted"/>
    </contour>
    <contour>
      <point x="476" y="742"/>
      <point x="484" y="530"/>
      <point x="374" y="502" type="qcurve" smooth="yes" name="inserted"/>
      <point x="264" y="474"/>
      <point x="168" y="630"/>
      <point x="222" y="712" type="qcurve" smooth="yes" name="inserted"/>
      <point x="249" y="753" name="inserted"/>
      <point x="326" y="781"/>
      <point x="376" y="768" type="qcurve" smooth="yes" name="inserted"/>
    </contour>
  </outline>
</glyph>
<glyph name="sounap-mm" format="2">
  <advance width="736"/>
  <unicode hex="ABE7"/>
  <outline>
    <contour>
      <point x="434" y="1804" type="curve" smooth="yes"/>
      <point x="521" y="1823"/>
      <point x="589" y="1807"/>
      <point x="637" y="1756" type="curve" smooth="yes"/>
      <point x="685" y="1704"/>
      <point x="699" y="1643"/>
      <point x="678" y="1573" type="curve" smooth="yes"/>
      <point x="657" y="1503"/>
      <point x="617" y="1453"/>
      <point x="556" y="1424" type="curve" smooth="yes"/>
      <point x="495" y="1394"/>
      <point x="446" y="1380"/>
      <point x="408" y="1383" type="curve"/>
      <point x="409" y="1208"/>
      <point x="335" y="1100"/>
      <point x="122" y="1116" type="curve"/>
      <point x="119" y="1277" type="line"/>
      <point x="230" y="1253"/>
      <point x="276" y="1313"/>
      <point x="269" y="1413" type="curve"/>
      <point x="157" y="1420"/>
      <point x="81" y="1461"/>
      <point x="40" y="1537" type="curve" smooth="yes"/>
      <point x="-2" y="1613"/>
      <point x="1" y="1706"/>
      <point x="48" y="1816" type="curve"/>
      <point x="214" y="1816" type="line"/>
      <point x="99" y="1659"/>
      <point x="149" y="1569"/>
      <point x="268" y="1565" type="curve"/>
      <point x="291" y="1704"/>
      <point x="347" y="1784"/>
    </contour>
    <contour>
      <point x="401" y="1536" type="curve"/>
      <point x="480" y="1532"/>
      <point x="526" y="1552"/>
      <point x="538" y="1595" type="curve" smooth="yes"/>
      <point x="550" y="1638"/>
      <point x="532" y="1658"/>
      <point x="484" y="1654" type="curve" smooth="yes"/>
      <point x="436" y="1649"/>
      <point x="408" y="1610"/>
    </contour>
  </outline>
</glyph>
<glyph name="sounap" format="2">
  <advance width="736"/>
  <unicode hex="ABE7"/>
  <outline>
    <contour>
      <point x="268" y="1565" type="qcurve"/>
      <point x="303" y="1774"/>
      <point x="565" y="1833"/>
      <point x="637" y="1756" type="qcurve" smooth="yes"/>
      <point x="709" y="1678"/>
      <point x="647" y="1468"/>
      <point x="556" y="1424" type="qcurve" smooth="yes"/>
      <point x="510" y="1401"/>
      <point x="436" y="1381"/>
      <point x="408" y="1383" type="qcurve"/>
      <point x="409" y="1252"/>
      <point x="282" y="1104"/>
      <point x="122" y="1116" type="qcurve"/>
      <point x="119" y="1277" type="line"/>
      <point x="202" y="1259"/>
      <point x="274" y="1338"/>
      <point x="269" y="1413" type="qcurve"/>
      <point x="101" y="1423"/>
      <point x="-22" y="1651"/>
      <point x="48" y="1816" type="qcurve"/>
      <point x="214" y="1816" type="line"/>
      <point x="128" y="1698"/>
      <point x="179" y="1568"/>
    </contour>
    <contour>
      <point x="520" y="1530"/>
      <point x="556" y="1660"/>
      <point x="484" y="1654" type="qcurve" smooth="yes"/>
      <point x="448" y="1650"/>
      <point x="406" y="1592"/>
      <point x="401" y="1536" type="qcurve"/>
    </contour>
  </outline>
</glyph>
<glyph name="unap-mm" format="2">
  <advance width="104"/>
  <unicode hex="ABE8"/>
  <outline>
    <contour>
      <point x="-251" y="-428" type="line"/>
      <point x="-148" y="-407"/>
      <point x="-91" y="-357"/>
      <point x="-78" y="-280" type="curve" smooth="yes"/>
      <point x="-65" y="-202"/>
      <point x="-83" y="-142"/>
      <point x="-133" y="-101" type="curve" smooth="yes"/>
      <point x="-233" y="-17"/>
      <point x="-361" y="-50"/>
      <point x="-426" y="-191" type="curve"/>
      <point x="-449" y="-98"/>
      <point x="-534" y="-44"/>
      <point x="-623" y="-50" type="curve" smooth="yes"/>
      <point x="-668" y="-53"/>
      <point x="-707" y="-69"/>
      <point x="-740" y="-100" type="curve" smooth="yes"/>
      <point x="-773" y="-130"/>
      <point x="-789" y="-183"/>
      <point x="-787" y="-259" type="curve" smooth="yes"/>
      <point x="-784" y="-335"/>
      <point x="-725" y="-390"/>
      <point x="-608" y="-424" type="curve"/>
      <point x="-608" y="-286" type="line"/>
      <point x="-659" y="-269"/>
      <point x="-676" y="-245"/>
      <point x="-661" y="-214" type="curve" smooth="yes"/>
      <point x="-645" y="-182"/>
      <point x="-616" y="-171"/>
      <point x="-574" y="-182" type="curve" smooth="yes"/>
      <point x="-531" y="-192"/>
      <point x="-511" y="-227"/>
      <point x="-512" y="-286" type="curve"/>
      <point x="-342" y="-289" type="line"/>
      <point x="-329" y="-227"/>
      <point x="-301" y="-194"/>
      <point x="-258" y="-189" type="curve" smooth="yes"/>
      <point x="-215" y="-184"/>
      <point x="-195" y="-198"/>
      <point x="-196" y="-233" type="curve" smooth="yes"/>
      <point x="-197" y="-268"/>
      <point x="-216" y="-290"/>
      <point x="-253" y="-299" type="curve"/>
    </contour>
  </outline>
</glyph>
<glyph name="unap" format="2">
  <advance width="104"/>
  <unicode hex="ABE8"/>
  <outline>
    <contour>
      <point x="-251" y="-428" type="line"/>
      <point x="-97" y="-396"/>
      <point x="-58" y="-163"/>
      <point x="-133" y="-100" type="qcurve" smooth="yes" name="inserted"/>
      <point x="-208" y="-38"/>
      <point x="-377" y="-85"/>
      <point x="-426" y="-191" type="qcurve"/>
      <point x="-443" y="-121"/>
      <point x="-556" y="-45"/>
      <point x="-623" y="-50" type="qcurve" smooth="yes" name="inserted"/>
      <point x="-690" y="-54"/>
      <point x="-790" y="-145"/>
      <point x="-786" y="-259" type="qcurve" smooth="yes" name="inserted"/>
      <point x="-785" y="-316" name="inserted"/>
      <point x="-696" y="-398"/>
      <point x="-608" y="-424" type="qcurve"/>
      <point x="-608" y="-286" type="line"/>
      <point x="-684" y="-261"/>
      <point x="-637" y="-166"/>
      <point x="-574" y="-182" type="qcurve" smooth="yes" name="inserted"/>
      <point x="-542" y="-189" name="inserted"/>
      <point x="-511" y="-242"/>
      <point x="-512" y="-286" type="qcurve"/>
      <point x="-342" y="-289" type="line"/>
      <point x="-322" y="-196"/>
      <point x="-194" y="-181"/>
      <point x="-196" y="-233" type="qcurve" smooth="yes" name="inserted"/>
      <point x="-197" y="-259" name="inserted"/>
      <point x="-226" y="-292"/>
      <point x="-253" y="-299" type="qcurve"/>
    </contour>
  </outline>
</glyph>
<glyph name="cheinap-mm" format="2">
  <advance width="500"/>
  <unicode hex="ABE9"/>
  <outline>
    <contour>
      <point x="186" y="1752" type="curve" smooth="yes"/>
      <point x="271" y="1777"/>
      <point x="341" y="1765"/>
      <point x="397" y="1716" type="curve" smooth="yes"/>
      <point x="453" y="1667"/>
      <point x="479" y="1596"/>
      <point x="474" y="1505" type="curve" smooth="yes"/>
      <point x="469" y="1414"/>
      <point x="433" y="1351"/>
      <point x="366" y="1318" type="curve" smooth="yes"/>
      <point x="299" y="1284"/>
      <point x="239" y="1271"/>
      <point x="188" y="1279" type="curve"/>
      <point x="189" y="1132" type="line"/>
      <point x="43" y="1133" type="line"/>
      <point x="45" y="1301" type="line"/>
      <point x="-56" y="1332"/>
      <point x="-133" y="1389"/>
      <point x="-185" y="1473" type="curve" smooth="yes"/>
      <point x="-236" y="1557"/>
      <point x="-257" y="1650"/>
      <point x="-248" y="1752" type="curve"/>
      <point x="-106" y="1752" type="line"/>
      <point x="-105" y="1673"/>
      <point x="-93" y="1614"/>
      <point x="-71" y="1573" type="curve" smooth="yes"/>
      <point x="-48" y="1532"/>
      <point x="-6" y="1491"/>
      <point x="56" y="1449" type="curve"/>
      <point x="58" y="1626"/>
      <point x="101" y="1727"/>
    </contour>
    <contour>
      <point x="193" y="1420" type="curve"/>
      <point x="288" y="1423"/>
      <point x="357" y="1487"/>
      <point x="322" y="1559" type="curve" smooth="yes"/>
      <point x="305" y="1594"/>
      <point x="277" y="1605"/>
      <point x="240" y="1592" type="curve" smooth="yes"/>
      <point x="203" y="1578"/>
      <point x="187" y="1521"/>
    </contour>
  </outline>
</glyph>
<glyph name="cheinap" format="2">
  <advance width="500"/>
  <unicode hex="ABE9"/>
  <outline>
    <contour>
      <point x="56" y="1449" type="qcurve"/>
      <point x="59" y="1714"/>
      <point x="313" y="1789"/>
      <point x="397" y="1716" type="qcurve" smooth="yes"/>
      <point x="481" y="1642"/>
      <point x="467" y="1368"/>
      <point x="366" y="1318" type="qcurve" smooth="yes"/>
      <point x="316" y="1292"/>
      <point x="226" y="1273"/>
      <point x="188" y="1279" type="qcurve"/>
      <point x="189" y="1132" type="line"/>
      <point x="43" y="1133" type="line"/>
      <point x="45" y="1301" type="line"/>
      <point x="-107" y="1347"/>
      <point x="-262" y="1599"/>
      <point x="-248" y="1752" type="qcurve"/>
      <point x="-106" y="1752" type="line"/>
      <point x="-104" y="1634"/>
      <point x="-37" y="1512"/>
    </contour>
    <contour>
      <point x="264" y="1422"/>
      <point x="348" y="1505"/>
      <point x="322" y="1558" type="qcurve" smooth="yes"/>
      <point x="296" y="1612"/>
      <point x="184" y="1571"/>
      <point x="193" y="1420" type="qcurve"/>
    </contour>
  </outline>
</glyph>
<glyph name="nung-mm" format="2">
  <advance width="852"/>
  <unicode hex="ABEA"/>
  <outline>
    <contour>
      <point x="112" y="1168" type="line"/>
      <point x="325" y="1168"/>
      <point x="441" y="1248"/>
      <point x="502" y="1392" type="curve" smooth="yes"/>
      <point x="563" y="1536"/>
      <point x="531" y="1686"/>
      <point x="422" y="1758" type="curve" smooth="yes"/>
      <point x="367" y="1794"/>
      <point x="307" y="1803"/>
      <point x="242" y="1784" type="curve" smooth="yes"/>
      <point x="177" y="1765"/>
      <point x="134" y="1722"/>
      <point x="114" y="1654" type="curve" smooth="yes"/>
      <point x="74" y="1518"/>
      <point x="136" y="1440"/>
      <point x="280" y="1344" type="curve"/>
      <point x="227" y="1323"/>
      <point x="172" y="1317"/>
      <point x="116" y="1328" type="curve"/>
    </contour>
    <contour>
      <point x="312" y="1636" type="curve" smooth="yes"/>
      <point x="347" y="1644"/>
      <point x="373" y="1628"/>
      <point x="392" y="1588" type="curve" smooth="yes"/>
      <point x="411" y="1548"/>
      <point x="401" y="1495"/>
      <point x="364" y="1428" type="curve"/>
      <point x="247" y="1535"/>
      <point x="243" y="1620"/>
    </contour>
  </outline>
</glyph>
<glyph name="nung" format="2">
  <advance width="852"/>
  <unicode hex="ABEA"/>
  <outline>
    <contour>
      <point x="112" y="1168" type="line"/>
      <point x="272" y="1168"/>
      <point x="456" y="1284"/>
      <point x="502" y="1392" type="qcurve" smooth="yes"/>
      <point x="548" y="1500"/>
      <point x="504" y="1704"/>
      <point x="422" y="1758" type="qcurve" smooth="yes"/>
      <point x="340" y="1812"/>
      <point x="144" y="1756"/>
      <point x="114" y="1654" type="qcurve" smooth="yes"/>
      <point x="84" y="1552"/>
      <point x="172" y="1416"/>
      <point x="280" y="1344" type="qcurve"/>
      <point x="240" y="1328"/>
      <point x="158" y="1320"/>
      <point x="116" y="1328" type="qcurve"/>
    </contour>
    <contour>
      <point x="364" y="1428" type="qcurve"/>
      <point x="276" y="1508"/>
      <point x="260" y="1624"/>
      <point x="312" y="1636" type="qcurve" smooth="yes"/>
      <point x="364" y="1648"/>
      <point x="420" y="1528"/>
    </contour>
  </outline>
</glyph>
<glyph name="cheikhei" format="2">
  <advance width="1150"/>
  <unicode hex="ABEB"/>
  <outline>
    <contour>
      <point x="990" y="1418" type="line"/>
      <point x="990" y="0" type="line"/>
      <point x="860" y="0" type="line"/>
      <point x="860" y="1418" type="line"/>
    </contour>
    <contour>
      <point x="529" y="1414" type="line"/>
      <point x="529" y="-4" type="line"/>
      <point x="399" y="-4" type="line"/>
      <point x="399" y="1414" type="line"/>
    </contour>
  </outline>
</glyph>
<glyph name="lum iyek" format="2">
  <advance width="450"/>
  <unicode hex="ABEC"/>
  <outline>
    <contour>
      <point x="153" y="312" type="curve" smooth="yes"/>
      <point x="216" y="312"/>
      <point x="264" y="262"/>
      <point x="264" y="201" type="curve" smooth="yes"/>
      <point x="264" y="140"/>
      <point x="214" y="90"/>
      <point x="153" y="90" type="curve" smooth="yes"/>
      <point x="92" y="90"/>
      <point x="42" y="140"/>
      <point x="42" y="201" type="curve" smooth="yes"/>
      <point x="42" y="264"/>
      <point x="92" y="312"/>
    </contour>
  </outline>
</glyph>
<glyph name="apun iyek" format="2">
  <advance width="44"/>
  <unicode hex="ABED"/>
  <outline>
    <contour>
      <point x="-2704" y="-76" type="line"/>
      <point x="-2704" y="-192" type="line"/>
      <point x="-304" y="-192" type="line"/>
      <point x="-304" y="-76" type="line"/>
    </contour>
  </outline>
</glyph>
<glyph name="apuniyek-mm" format="2">
  <advance width="44"/>
  <unicode hex="ABED"/>
  <outline>
    <contour>
      <point x="-1450" y="-76" type="line"/>
      <point x="-1450" y="-192" type="line"/>
      <point x="1494" y="-192" type="line"/>
      <point x="1494" y="-76" type="line"/>
    </contour>
  </outline>
</glyph>
<glyph name="zero-mm" format="2">
  <advance width="1532"/>
  <unicode hex="ABF0"/>
  <outline>
    <contour>
      <point x="868" y="1292" type="curve" smooth="yes"/>
      <point x="775" y="1309"/>
      <point x="679" y="1305"/>
      <point x="582" y="1280" type="curve" smooth="yes"/>
      <point x="387" y="1229"/>
      <point x="230" y="1075"/>
      <point x="174" y="862" type="curve" smooth="yes"/>
      <point x="118" y="649"/>
      <point x="151" y="421"/>
      <point x="250" y="266" type="curve" smooth="yes"/>
      <point x="349" y="111"/>
      <point x="488" y="36"/>
      <point x="655" y="5" type="curve" smooth="yes"/>
      <point x="738" y="-10"/>
      <point x="831" y="-7"/>
      <point x="932" y="14" type="curve" smooth="yes"/>
      <point x="1033" y="35"/>
      <point x="1121" y="79"/>
      <point x="1196" y="144" type="curve" smooth="yes"/>
      <point x="1345" y="275"/>
      <point x="1393" y="454"/>
      <point x="1388" y="614" type="curve" smooth="yes"/>
      <point x="1383" y="774"/>
      <point x="1352" y="926"/>
      <point x="1256" y="1054" type="curve" smooth="yes"/>
      <point x="1160" y="1182"/>
      <point x="1055" y="1257"/>
    </contour>
    <contour>
      <point x="980" y="1020" type="curve" smooth="yes"/>
      <point x="1113" y="927"/>
      <point x="1193" y="760"/>
      <point x="1190" y="617" type="curve" smooth="yes"/>
      <point x="1186" y="413"/>
      <point x="1061" y="172"/>
      <point x="708" y="208" type="curve" smooth="yes"/>
      <point x="591" y="220"/>
      <point x="503" y="263"/>
      <point x="444" y="338" type="curve" smooth="yes"/>
      <point x="385" y="413"/>
      <point x="352" y="500"/>
      <point x="344" y="600" type="curve" smooth="yes"/>
      <point x="336" y="700"/>
      <point x="351" y="786"/>
      <point x="390" y="858" type="curve" smooth="yes"/>
      <point x="429" y="930"/>
      <point x="481" y="988"/>
      <point x="547" y="1032" type="curve" smooth="yes"/>
      <point x="679" y="1120"/>
      <point x="847" y="1113"/>
    </contour>
  </outline>
</glyph>
<glyph name="zero" format="2">
  <advance width="1532"/>
  <unicode hex="ABF0"/>
  <outline>
    <contour>
      <point x="728" y="1318"/>
      <point x="436" y="1242"/>
      <point x="326" y="1132" type="qcurve" smooth="yes"/>
      <point x="216" y="1022"/>
      <point x="132" y="702"/>
      <point x="154" y="542" type="qcurve" smooth="yes"/>
      <point x="176" y="382"/>
      <point x="324" y="150"/>
      <point x="427" y="89" type="qcurve" smooth="yes"/>
      <point x="530" y="28"/>
      <point x="780" y="-18"/>
      <point x="932" y="14" type="qcurve" smooth="yes"/>
      <point x="1084" y="46"/>
      <point x="1308" y="242"/>
      <point x="1350" y="368" type="qcurve" smooth="yes"/>
      <point x="1392" y="494"/>
      <point x="1384" y="734"/>
      <point x="1356" y="846" type="qcurve" smooth="yes"/>
      <point x="1328" y="958"/>
      <point x="1184" y="1150"/>
      <point x="1096" y="1208" type="qcurve" smooth="yes"/>
      <point x="1052" y="1237"/>
      <point x="938" y="1279"/>
      <point x="868" y="1292" type="qcurve" smooth="yes"/>
    </contour>
    <contour>
      <point x="1080" y="950"/>
      <point x="1192" y="724"/>
      <point x="1190" y="617" type="qcurve" smooth="yes"/>
      <point x="1188" y="510"/>
      <point x="1092" y="314"/>
      <point x="988" y="252" type="qcurve" smooth="yes"/>
      <point x="884" y="190"/>
      <point x="532" y="226"/>
      <point x="444" y="338" type="qcurve" smooth="yes"/>
      <point x="356" y="450"/>
      <point x="332" y="750"/>
      <point x="390" y="858" type="qcurve" smooth="yes"/>
      <point x="448" y="966"/>
      <point x="646" y="1098"/>
      <point x="763" y="1094" type="qcurve" smooth="yes"/>
      <point x="822" y="1092"/>
      <point x="930" y="1055"/>
      <point x="980" y="1020" type="qcurve" smooth="yes"/>
    </contour>
  </outline>
</glyph>
<glyph name="one-mm" format="2">
  <advance width="1428"/>
  <unicode hex="ABF1"/>
  <outline>
    <contour>
      <point x="168" y="988" type="curve" smooth="yes"/>
      <point x="139" y="893"/>
      <point x="144" y="801"/>
      <point x="184" y="710" type="curve" smooth="yes"/>
      <point x="224" y="619"/>
      <point x="295" y="547"/>
      <point x="396" y="492" type="curve" smooth="yes"/>
      <point x="497" y="437"/>
      <point x="573" y="397"/>
      <point x="624" y="372" type="curve" smooth="yes"/>
      <point x="675" y="347"/>
      <point x="715" y="322"/>
      <point x="746" y="298" type="curve" smooth="yes"/>
      <point x="777" y="274"/>
      <point x="779" y="247"/>
      <point x="752" y="218" type="curve" smooth="yes"/>
      <point x="725" y="189"/>
      <point x="669" y="173"/>
      <point x="582" y="170" type="curve" smooth="yes"/>
      <point x="495" y="167"/>
      <point x="406" y="202"/>
      <point x="314" y="273" type="curve"/>
      <point x="314" y="51" type="line"/>
      <point x="435" y="2"/>
      <point x="543" y="-18"/>
      <point x="638" y="-10" type="curve" smooth="yes"/>
      <point x="827" y="6"/>
      <point x="937" y="66"/>
      <point x="966" y="194" type="curve" smooth="yes"/>
      <point x="995" y="322"/>
      <point x="921" y="433"/>
      <point x="772" y="500" type="curve" smooth="yes"/>
      <point x="697" y="533"/>
      <point x="615" y="576"/>
      <point x="526" y="628" type="curve" smooth="yes"/>
      <point x="437" y="680"/>
      <point x="383" y="732"/>
      <point x="364" y="784" type="curve" smooth="yes"/>
      <point x="345" y="836"/>
      <point x="347" y="890"/>
      <point x="370" y="946" type="curve" smooth="yes"/>
      <point x="393" y="1002"/>
      <point x="430" y="1042"/>
      <point x="482" y="1066" type="curve" smooth="yes"/>
      <point x="586" y="1114"/>
      <point x="732" y="1138"/>
      <point x="908" y="1090" type="curve" smooth="yes"/>
      <point x="996" y="1066"/>
      <point x="1051" y="1022"/>
      <point x="1072" y="958" type="curve" smooth="yes"/>
      <point x="1093" y="894"/>
      <point x="1081" y="848"/>
      <point x="1036" y="819" type="curve" smooth="yes"/>
      <point x="991" y="790"/>
      <point x="942" y="779"/>
      <point x="890" y="788" type="curve" smooth="yes"/>
      <point x="838" y="797"/>
      <point x="805" y="844"/>
      <point x="790" y="929" type="curve"/>
      <point x="616" y="925" type="line"/>
      <point x="610" y="817"/>
      <point x="648" y="734"/>
      <point x="729" y="677" type="curve" smooth="yes"/>
      <point x="810" y="620"/>
      <point x="899" y="598"/>
      <point x="994" y="611" type="curve" smooth="yes"/>
      <point x="1089" y="624"/>
      <point x="1160" y="661"/>
      <point x="1208" y="722" type="curve" smooth="yes"/>
      <point x="1256" y="783"/>
      <point x="1278" y="856"/>
      <point x="1274" y="940" type="curve" smooth="yes"/>
      <point x="1270" y="1024"/>
      <point x="1231" y="1100"/>
      <point x="1158" y="1168" type="curve" smooth="yes"/>
      <point x="1085" y="1236"/>
      <point x="1007" y="1277"/>
      <point x="926" y="1290" type="curve" smooth="yes"/>
      <point x="845" y="1303"/>
      <point x="774" y="1310"/>
      <point x="714" y="1310" type="curve" smooth="yes"/>
      <point x="654" y="1310"/>
      <point x="589" y="1303"/>
      <point x="520" y="1290" type="curve" smooth="yes"/>
      <point x="451" y="1277"/>
      <point x="382" y="1247"/>
      <point x="314" y="1200" type="curve" smooth="yes"/>
      <point x="246" y="1153"/>
      <point x="197" y="1083"/>
    </contour>
  </outline>
</glyph>
<glyph name="one" format="2">
  <advance width="1428"/>
  <unicode hex="ABF1"/>
  <outline>
    <contour>
      <point x="607" y="763"/>
      <point x="851" y="591"/>
      <point x="994" y="610" type="qcurve" smooth="yes" name="inserted"/>
      <point x="1136" y="630"/>
      <point x="1280" y="814"/>
      <point x="1274" y="940" type="qcurve" smooth="yes" name="inserted"/>
      <point x="1268" y="1066"/>
      <point x="1048" y="1270"/>
      <point x="926" y="1290" type="qcurve" smooth="yes" name="inserted"/>
      <point x="804" y="1310"/>
      <point x="624" y="1310"/>
      <point x="520" y="1290" type="qcurve" smooth="yes" name="inserted"/>
      <point x="416" y="1270"/>
      <point x="212" y="1130"/>
      <point x="168" y="988" type="qcurve" smooth="yes" name="inserted"/>
      <point x="124" y="846"/>
      <point x="244" y="574"/>
      <point x="396" y="492" type="qcurve" smooth="yes" name="inserted"/>
      <point x="548" y="410"/>
      <point x="700" y="334"/>
      <point x="746" y="298" type="qcurve" smooth="yes" name="inserted"/>
      <point x="792" y="262"/>
      <point x="712" y="174"/>
      <point x="582" y="170" type="qcurve" smooth="yes" name="inserted"/>
      <point x="517" y="168" name="inserted"/>
      <point x="383" y="220"/>
      <point x="314" y="273" type="qcurve"/>
      <point x="314" y="51" type="line"/>
      <point x="496" y="-22"/>
      <point x="780" y="2"/>
      <point x="862" y="50" type="qcurve" smooth="yes" name="inserted"/>
      <point x="944" y="98"/>
      <point x="988" y="290"/>
      <point x="936" y="370" type="qcurve" smooth="yes" name="inserted"/>
      <point x="884" y="450"/>
      <point x="660" y="550"/>
      <point x="526" y="628" type="qcurve" smooth="yes" name="inserted"/>
      <point x="392" y="706"/>
      <point x="336" y="862"/>
      <point x="370" y="946" type="qcurve" smooth="yes" name="inserted"/>
      <point x="404" y="1030"/>
      <point x="560" y="1102"/>
      <point x="668" y="1114" type="qcurve" smooth="yes" name="inserted"/>
      <point x="776" y="1126"/>
      <point x="1040" y="1054"/>
      <point x="1072" y="958" type="qcurve" smooth="yes" name="inserted"/>
      <point x="1104" y="862"/>
      <point x="968" y="775"/>
      <point x="890" y="788" type="qcurve" smooth="yes" name="inserted"/>
      <point x="851" y="794" name="inserted"/>
      <point x="801" y="865"/>
      <point x="790" y="929" type="qcurve"/>
      <point x="616" y="925" type="line"/>
    </contour>
  </outline>
</glyph>
<glyph name="two" format="2">
  <advance width="1435"/>
  <unicode hex="ABF2"/>
  <outline>
    <contour>
      <point x="602" y="819"/>
      <point x="781" y="664"/>
      <point x="946" y="668" type="qcurve" smooth="yes"/>
      <point x="1112" y="672"/>
      <point x="1256" y="852"/>
      <point x="1242" y="982" type="qcurve" smooth="yes"/>
      <point x="1229" y="1111"/>
      <point x="1020" y="1270"/>
      <point x="898" y="1290" type="qcurve" smooth="yes"/>
      <point x="776" y="1310"/>
      <point x="596" y="1310"/>
      <point x="492" y="1290" type="qcurve" smooth="yes"/>
      <point x="388" y="1270"/>
      <point x="184" y="1130"/>
      <point x="140" y="988" type="qcurve" smooth="yes"/>
      <point x="96" y="846"/>
      <point x="216" y="574"/>
      <point x="444" y="454" type="qcurve" smooth="yes"/>
      <point x="672" y="334"/>
      <point x="764" y="228"/>
      <point x="700" y="174" type="qcurve" smooth="yes"/>
      <point x="635" y="121"/>
      <point x="424" y="242"/>
      <point x="585" y="375" type="qcurve"/>
      <point x="430" y="463" type="line"/>
      <point x="294" y="371"/>
      <point x="295" y="142"/>
      <point x="382" y="71" type="qcurve" smooth="yes"/>
      <point x="468" y="0"/>
      <point x="728" y="-14"/>
      <point x="822" y="42" type="qcurve" smooth="yes"/>
      <point x="916" y="98"/>
      <point x="952" y="294"/>
      <point x="867" y="378" type="qcurve"/>
      <point x="980" y="369"/>
      <point x="1133" y="224"/>
      <point x="1115" y="-2" type="qcurve"/>
      <point x="1293" y="-2" type="line"/>
      <point x="1319" y="198"/>
      <point x="1199" y="465"/>
      <point x="1050" y="512" type="qcurve" smooth="yes"/>
      <point x="976" y="535"/>
      <point x="760" y="552"/>
      <point x="619" y="545" type="qcurve"/>
      <point x="364" y="706"/>
      <point x="308" y="862"/>
      <point x="342" y="946" type="qcurve" smooth="yes"/>
      <point x="376" y="1030"/>
      <point x="547" y="1121"/>
      <point x="646" y="1133" type="qcurve" smooth="yes"/>
      <point x="744" y="1145"/>
      <point x="986" y="1092"/>
      <point x="1031" y="1007" type="qcurve" smooth="yes"/>
      <point x="1076" y="922"/>
      <point x="1012" y="830"/>
      <point x="904" y="835" type="qcurve" smooth="yes"/>
      <point x="850" y="838"/>
      <point x="798" y="896"/>
      <point x="799" y="952" type="qcurve"/>
      <point x="622" y="952" type="line"/>
    </contour>
  </outline>
</glyph>
<glyph name="three" format="2">
  <advance width="1657"/>
  <unicode hex="ABF3"/>
  <outline>
    <contour>
      <point x="511" y="863"/>
      <point x="694" y="692"/>
      <point x="860" y="696" type="qcurve" smooth="yes"/>
      <point x="1025" y="700"/>
      <point x="1157" y="892"/>
      <point x="1142" y="1010" type="qcurve" smooth="yes"/>
      <point x="1126" y="1127"/>
      <point x="901" y="1290"/>
      <point x="795" y="1306" type="qcurve" smooth="yes"/>
      <point x="689" y="1322"/>
      <point x="521" y="1298"/>
      <point x="439" y="1278" type="qcurve" smooth="yes"/>
      <point x="357" y="1258"/>
      <point x="169" y="1130"/>
      <point x="125" y="988" type="qcurve" smooth="yes"/>
      <point x="81" y="846"/>
      <point x="201" y="574"/>
      <point x="369" y="482" type="qcurve" smooth="yes"/>
      <point x="537" y="390"/>
      <point x="517" y="188"/>
      <point x="434" y="178" type="qcurve" smooth="yes"/>
      <point x="352" y="169"/>
      <point x="289" y="310"/>
      <point x="462" y="423" type="qcurve"/>
      <point x="311" y="519" type="line"/>
      <point x="139" y="411"/>
      <point x="120" y="150"/>
      <point x="212" y="75" type="qcurve" smooth="yes"/>
      <point x="305" y="0"/>
      <point x="557" y="10"/>
      <point x="627" y="74" type="qcurve" smooth="yes"/>
      <point x="697" y="138"/>
      <point x="717" y="366"/>
      <point x="672" y="426" type="qcurve"/>
      <point x="726" y="436"/>
      <point x="840" y="424"/>
      <point x="898" y="404" type="qcurve"/>
      <point x="828" y="314"/>
      <point x="841" y="72"/>
      <point x="932" y="28" type="qcurve" smooth="yes"/>
      <point x="1022" y="-17"/>
      <point x="1226" y="38"/>
      <point x="1236" y="175" type="qcurve" smooth="yes"/>
      <point x="1240" y="244"/>
      <point x="1197" y="366"/>
      <point x="1149" y="419" type="qcurve"/>
      <point x="1240" y="507"/>
      <point x="1350" y="423"/>
      <point x="1288" y="327" type="qcurve"/>
      <point x="1448" y="251" type="line"/>
      <point x="1520" y="444"/>
      <point x="1384" y="647"/>
      <point x="1286" y="660" type="qcurve" smooth="yes"/>
      <point x="1188" y="674"/>
      <point x="1070" y="601"/>
      <point x="1012" y="531" type="qcurve"/>
      <point x="908" y="593"/>
      <point x="598" y="622"/>
      <point x="488" y="601" type="qcurve"/>
      <point x="349" y="706"/>
      <point x="293" y="862"/>
      <point x="327" y="946" type="qcurve" smooth="yes"/>
      <point x="361" y="1030"/>
      <point x="532" y="1121"/>
      <point x="650" y="1125" type="qcurve" smooth="yes"/>
      <point x="769" y="1129"/>
      <point x="923" y="1056"/>
      <point x="950" y="1003" type="qcurve" smooth="yes"/>
      <point x="977" y="950"/>
      <point x="921" y="854"/>
      <point x="819" y="863" type="qcurve" smooth="yes"/>
      <point x="768" y="868"/>
      <point x="724" y="926"/>
      <point x="732" y="980" type="qcurve"/>
      <point x="555" y="980" type="line"/>
    </contour>
    <contour>
      <point x="1089" y="226"/>
      <point x="1057" y="142"/>
      <point x="1015" y="172" type="qcurve" smooth="yes"/>
      <point x="994" y="187"/>
      <point x="1007" y="240"/>
      <point x="1041" y="278" type="qcurve"/>
    </contour>
  </outline>
</glyph>
<glyph name="four-mm" format="2">
  <advance width="1396"/>
  <unicode hex="ABF4"/>
  <outline>
    <contour>
      <point x="492" y="892" type="line"/>
      <point x="436" y="919"/>
      <point x="407" y="954"/>
      <point x="406" y="998" type="curve" smooth="yes"/>
      <point x="405" y="1042"/>
      <point x="436" y="1076"/>
      <point x="500" y="1100" type="curve" smooth="yes"/>
      <point x="564" y="1124"/>
      <point x="636" y="1125"/>
      <point x="716" y="1102" type="curve" smooth="yes"/>
      <point x="796" y="1079"/>
      <point x="837" y="1034"/>
      <point x="840" y="966" type="curve" smooth="yes"/>
      <point x="843" y="898"/>
      <point x="805" y="845"/>
      <point x="726" y="806" type="curve" smooth="yes"/>
      <point x="647" y="767"/>
      <point x="545" y="720"/>
      <point x="418" y="664" type="curve" smooth="yes"/>
      <point x="291" y="608"/>
      <point x="207" y="535"/>
      <point x="164" y="446" type="curve" smooth="yes"/>
      <point x="121" y="357"/>
      <point x="131" y="271"/>
      <point x="194" y="190" type="curve" smooth="yes"/>
      <point x="257" y="109"/>
      <point x="360" y="53"/>
      <point x="504" y="22" type="curve" smooth="yes"/>
      <point x="648" y="-9"/>
      <point x="797" y="-1"/>
      <point x="950" y="44" type="curve" smooth="yes"/>
      <point x="1103" y="89"/>
      <point x="1198" y="166"/>
      <point x="1234" y="274" type="curve" smooth="yes"/>
      <point x="1270" y="382"/>
      <point x="1257" y="463"/>
      <point x="1194" y="516" type="curve" smooth="yes"/>
      <point x="1069" y="623"/>
      <point x="909" y="583"/>
      <point x="760" y="444" type="curve"/>
      <point x="884" y="316" type="line"/>
      <point x="993" y="407"/>
      <point x="1055" y="424"/>
      <point x="1070" y="368" type="curve" smooth="yes"/>
      <point x="1085" y="312"/>
      <point x="1027" y="260"/>
      <point x="898" y="212" type="curve" smooth="yes"/>
      <point x="769" y="164"/>
      <point x="650" y="154"/>
      <point x="542" y="182" type="curve" smooth="yes"/>
      <point x="434" y="210"/>
      <point x="365" y="252"/>
      <point x="336" y="308" type="curve" smooth="yes"/>
      <point x="307" y="364"/>
      <point x="338" y="416"/>
      <point x="430" y="464" type="curve" smooth="yes"/>
      <point x="522" y="512"/>
      <point x="613" y="550"/>
      <point x="702" y="578" type="curve" smooth="yes"/>
      <point x="791" y="606"/>
      <point x="867" y="652"/>
      <point x="928" y="716" type="curve" smooth="yes"/>
      <point x="1051" y="844"/>
      <point x="1078" y="1009"/>
      <point x="958" y="1166" type="curve" smooth="yes"/>
      <point x="898" y="1245"/>
      <point x="800" y="1290"/>
      <point x="665" y="1302" type="curve" smooth="yes"/>
      <point x="530" y="1314"/>
      <point x="419" y="1283"/>
      <point x="333" y="1210" type="curve" smooth="yes"/>
      <point x="247" y="1137"/>
      <point x="206" y="1058"/>
      <point x="210" y="974" type="curve" smooth="yes"/>
      <point x="214" y="890"/>
      <point x="259" y="833"/>
      <point x="344" y="804" type="curve"/>
    </contour>
  </outline>
</glyph>
<glyph name="four" format="2">
  <advance width="1396"/>
  <unicode hex="ABF4"/>
  <outline>
    <contour>
      <point x="408" y="932"/>
      <point x="404" y="1064"/>
      <point x="500" y="1100" type="qcurve" smooth="yes" name="inserted"/>
      <point x="596" y="1136"/>
      <point x="836" y="1068"/>
      <point x="840" y="966" type="qcurve" smooth="yes" name="inserted"/>
      <point x="844" y="864"/>
      <point x="608" y="748"/>
      <point x="418" y="664" type="qcurve" smooth="yes" name="inserted"/>
      <point x="228" y="580"/>
      <point x="100" y="312"/>
      <point x="194" y="190" type="qcurve" smooth="yes" name="inserted"/>
      <point x="288" y="68"/>
      <point x="720" y="-24"/>
      <point x="950" y="44" type="qcurve" smooth="yes" name="inserted"/>
      <point x="1180" y="112"/>
      <point x="1288" y="436"/>
      <point x="1194" y="516" type="qcurve" smooth="yes" name="inserted"/>
      <point x="1100" y="596"/>
      <point x="872" y="548"/>
      <point x="760" y="444" type="qcurve"/>
      <point x="884" y="316" type="line"/>
      <point x="1048" y="452"/>
      <point x="1092" y="284"/>
      <point x="898" y="212" type="qcurve" smooth="yes" name="inserted"/>
      <point x="704" y="140"/>
      <point x="380" y="224"/>
      <point x="336" y="308" type="qcurve" smooth="yes" name="inserted"/>
      <point x="292" y="392"/>
      <point x="568" y="536"/>
      <point x="702" y="578" type="qcurve" smooth="yes" name="inserted"/>
      <point x="836" y="620"/>
      <point x="1020" y="812"/>
      <point x="1034" y="930" type="qcurve" smooth="yes" name="inserted"/>
      <point x="1048" y="1048"/>
      <point x="868" y="1284"/>
      <point x="665" y="1302" type="qcurve" smooth="yes" name="inserted"/>
      <point x="462" y="1320"/>
      <point x="204" y="1100"/>
      <point x="210" y="974" type="qcurve" smooth="yes" name="inserted"/>
      <point x="213" y="911" name="inserted"/>
      <point x="280" y="826"/>
      <point x="344" y="804" type="qcurve"/>
      <point x="492" y="892" type="line"/>
    </contour>
  </outline>
</glyph>
<glyph name="five-mm" format="2">
  <advance width="1376"/>
  <unicode hex="ABF5"/>
  <outline>
    <contour>
      <point x="412" y="0" type="line"/>
      <point x="412" y="482" type="line"/>
      <point x="281" y="530"/>
      <point x="197" y="594"/>
      <point x="160" y="674" type="curve" smooth="yes"/>
      <point x="123" y="754"/>
      <point x="110" y="831"/>
      <point x="122" y="906" type="curve" smooth="yes"/>
      <point x="158" y="1130"/>
      <point x="332" y="1274"/>
      <point x="564" y="1307" type="curve" smooth="yes"/>
      <point x="724" y="1330"/>
      <point x="904" y="1308"/>
      <point x="1064" y="1220" type="curve" smooth="yes"/>
      <point x="1144" y="1176"/>
      <point x="1198" y="1129"/>
      <point x="1226" y="1078" type="curve" smooth="yes"/>
      <point x="1254" y="1027"/>
      <point x="1260" y="969"/>
      <point x="1244" y="904" type="curve" smooth="yes"/>
      <point x="1228" y="839"/>
      <point x="1153" y="782"/>
      <point x="1020" y="734" type="curve"/>
      <point x="952" y="898" type="line"/>
      <point x="1051" y="914"/>
      <point x="1088" y="948"/>
      <point x="1064" y="1000" type="curve" smooth="yes"/>
      <point x="1040" y="1052"/>
      <point x="986" y="1091"/>
      <point x="902" y="1118" type="curve" smooth="yes"/>
      <point x="818" y="1145"/>
      <point x="729" y="1154"/>
      <point x="634" y="1146" type="curve" smooth="yes"/>
      <point x="539" y="1138"/>
      <point x="456" y="1110"/>
      <point x="384" y="1062" type="curve" smooth="yes"/>
      <point x="312" y="1014"/>
      <point x="276" y="940"/>
      <point x="276" y="840" type="curve" smooth="yes"/>
      <point x="276" y="740"/>
      <point x="321" y="677"/>
      <point x="412" y="650" type="curve"/>
      <point x="417" y="781"/>
      <point x="451" y="869"/>
      <point x="514" y="916" type="curve" smooth="yes"/>
      <point x="577" y="963"/>
      <point x="647" y="975"/>
      <point x="724" y="952" type="curve" smooth="yes"/>
      <point x="801" y="929"/>
      <point x="851" y="871"/>
      <point x="874" y="778" type="curve" smooth="yes"/>
      <point x="919" y="591"/>
      <point x="817" y="477"/>
      <point x="572" y="482" type="curve"/>
      <point x="572" y="0" type="line"/>
    </contour>
    <contour>
      <point x="568" y="638" type="curve"/>
      <point x="685" y="606"/>
      <point x="740" y="666"/>
      <point x="724" y="746" type="curve" smooth="yes"/>
      <point x="716" y="786"/>
      <point x="689" y="803"/>
      <point x="644" y="796" type="curve" smooth="yes"/>
      <point x="599" y="789"/>
      <point x="573" y="737"/>
    </contour>
  </outline>
</glyph>
<glyph name="five" format="2">
  <advance width="1376"/>
  <unicode hex="ABF5"/>
  <outline>
    <contour>
      <point x="412" y="0" type="line"/>
      <point x="412" y="482" type="line"/>
      <point x="216" y="554"/>
      <point x="104" y="794"/>
      <point x="122" y="906" type="qcurve" smooth="yes"/>
      <point x="140" y="1018"/>
      <point x="264" y="1186"/>
      <point x="354" y="1238" type="qcurve" smooth="yes"/>
      <point x="444" y="1290"/>
      <point x="684" y="1324"/>
      <point x="814" y="1305" type="qcurve" smooth="yes"/>
      <point x="944" y="1286"/>
      <point x="1184" y="1154"/>
      <point x="1226" y="1078" type="qcurve" smooth="yes"/>
      <point x="1268" y="1002"/>
      <point x="1220" y="806"/>
      <point x="1020" y="734" type="qcurve"/>
      <point x="952" y="898" type="line"/>
      <point x="1100" y="922"/>
      <point x="1028" y="1078"/>
      <point x="902" y="1118" type="qcurve" smooth="yes"/>
      <point x="776" y="1158"/>
      <point x="492" y="1134"/>
      <point x="384" y="1062" type="qcurve" smooth="yes"/>
      <point x="276" y="990"/>
      <point x="276" y="690"/>
      <point x="412" y="650" type="qcurve"/>
      <point x="420" y="846"/>
      <point x="608" y="986"/>
      <point x="724" y="952" type="qcurve" smooth="yes"/>
      <point x="840" y="918"/>
      <point x="908" y="638"/>
      <point x="832" y="558" type="qcurve" smooth="yes"/>
      <point x="794" y="518"/>
      <point x="664" y="480"/>
      <point x="572" y="482" type="qcurve"/>
      <point x="572" y="0" type="line"/>
    </contour>
    <contour>
      <point x="656" y="614"/>
      <point x="736" y="686"/>
      <point x="724" y="746" type="qcurve" smooth="yes"/>
      <point x="712" y="806"/>
      <point x="576" y="786"/>
      <point x="568" y="638" type="qcurve"/>
    </contour>
  </outline>
</glyph>
<glyph name="six" format="2">
  <advance width="1403"/>
  <unicode hex="ABF6"/>
  <outline>
    <contour>
      <point x="431" y="0" type="line"/>
      <point x="431" y="482" type="line"/>
      <point x="300" y="530"/>
      <point x="216" y="594"/>
      <point x="179" y="674" type="curve" smooth="yes"/>
      <point x="142" y="754"/>
      <point x="129" y="831"/>
      <point x="141" y="906" type="curve" smooth="yes"/>
      <point x="177" y="1130"/>
      <point x="351" y="1274"/>
      <point x="583" y="1307" type="curve" smooth="yes"/>
      <point x="743" y="1330"/>
      <point x="923" y="1308"/>
      <point x="1083" y="1220" type="curve" smooth="yes"/>
      <point x="1163" y="1176"/>
      <point x="1217" y="1129"/>
      <point x="1245" y="1078" type="curve" smooth="yes"/>
      <point x="1273" y="1027"/>
      <point x="1279" y="969"/>
      <point x="1263" y="904" type="curve" smooth="yes"/>
      <point x="1247" y="839"/>
      <point x="1172" y="782"/>
      <point x="1039" y="734" type="curve"/>
      <point x="971" y="898" type="line"/>
      <point x="1070" y="914"/>
      <point x="1107" y="948"/>
      <point x="1083" y="1000" type="curve" smooth="yes"/>
      <point x="1059" y="1052"/>
      <point x="1005" y="1091"/>
      <point x="921" y="1118" type="curve" smooth="yes"/>
      <point x="837" y="1145"/>
      <point x="748" y="1154"/>
      <point x="653" y="1146" type="curve" smooth="yes"/>
      <point x="558" y="1138"/>
      <point x="475" y="1110"/>
      <point x="403" y="1062" type="curve" smooth="yes"/>
      <point x="331" y="1014"/>
      <point x="295" y="940"/>
      <point x="295" y="840" type="curve" smooth="yes"/>
      <point x="295" y="740"/>
      <point x="340" y="677"/>
      <point x="431" y="650" type="curve"/>
      <point x="436" y="781"/>
      <point x="470" y="869"/>
      <point x="533" y="916" type="curve" smooth="yes"/>
      <point x="596" y="963"/>
      <point x="666" y="975"/>
      <point x="743" y="952" type="curve" smooth="yes"/>
      <point x="820" y="929"/>
      <point x="870" y="871"/>
      <point x="893" y="778" type="curve" smooth="yes"/>
      <point x="938" y="591"/>
      <point x="836" y="477"/>
      <point x="591" y="482" type="curve"/>
      <point x="591" y="200" type="line"/>
      <point x="1031" y="559" type="line"/>
      <point x="1171" y="462" type="line"/>
      <point x="591" y="0" type="line"/>
    </contour>
    <contour>
      <point x="587" y="638" type="curve"/>
      <point x="704" y="606"/>
      <point x="759" y="666"/>
      <point x="743" y="746" type="curve" smooth="yes"/>
      <point x="735" y="786"/>
      <point x="708" y="803"/>
      <point x="663" y="796" type="curve" smooth="yes"/>
      <point x="618" y="789"/>
      <point x="592" y="737"/>
    </contour>
  </outline>
</glyph>
<glyph name="seven" format="2">
  <advance width="1516"/>
  <unicode hex="ABF7"/>
  <outline>
    <contour>
      <point x="160" y="964"/>
      <point x="168" y="1232"/>
      <point x="271" y="1279" type="qcurve" smooth="yes" name="inserted"/>
      <point x="374" y="1326"/>
      <point x="592" y="1284"/>
      <point x="666" y="1180" type="qcurve" smooth="yes" name="inserted"/>
      <point x="703" y="1128" name="inserted"/>
      <point x="764" y="918"/>
      <point x="788" y="760" type="qcurve"/>
      <point x="984" y="808" type="line"/>
      <point x="832" y="1032"/>
      <point x="940" y="1312"/>
      <point x="1096" y="1312" type="qcurve" smooth="yes" name="inserted"/>
      <point x="1252" y="1312"/>
      <point x="1388" y="1092"/>
      <point x="1362" y="970" type="qcurve" smooth="yes" name="inserted"/>
      <point x="1349" y="909" name="inserted"/>
      <point x="1274" y="800"/>
      <point x="1212" y="752" type="qcurve"/>
      <point x="1368" y="588"/>
      <point x="1352" y="196"/>
      <point x="1228" y="20" type="qcurve"/>
      <point x="1084" y="140" type="line"/>
      <point x="1208" y="296"/>
      <point x="1160" y="604"/>
      <point x="1060" y="676" type="qcurve"/>
      <point x="816" y="596" type="line"/>
      <point x="832" y="344"/>
      <point x="692" y="108"/>
      <point x="568" y="40" type="qcurve" smooth="yes" name="inserted"/>
      <point x="444" y="-28"/>
      <point x="216" y="96"/>
      <point x="216" y="250" type="qcurve" smooth="yes" name="inserted"/>
      <point x="216" y="404"/>
      <point x="416" y="632"/>
      <point x="624" y="700" type="qcurve"/>
      <point x="604" y="892"/>
      <point x="520" y="1132"/>
      <point x="444" y="1143" type="qcurve" smooth="yes" name="inserted"/>
      <point x="368" y="1154"/>
      <point x="324" y="1096"/>
      <point x="432" y="1020" type="qcurve"/>
      <point x="368" y="864" type="line"/>
    </contour>
    <contour>
      <point x="1216" y="952"/>
      <point x="1188" y="1132"/>
      <point x="1126" y="1136" type="qcurve" smooth="yes" name="inserted"/>
      <point x="1064" y="1140"/>
      <point x="1024" y="1016"/>
      <point x="1120" y="880" type="qcurve"/>
    </contour>
    <contour>
      <point x="648" y="520" type="qcurve"/>
      <point x="456" y="460"/>
      <point x="348" y="260"/>
      <point x="392" y="212" type="qcurve" smooth="yes" name="inserted"/>
      <point x="436" y="164"/>
      <point x="564" y="228"/>
      <point x="614" y="316" type="qcurve" smooth="yes" name="inserted"/>
      <point x="639" y="360" name="inserted"/>
      <point x="656" y="462"/>
    </contour>
  </outline>
</glyph>
<glyph name="eight" format="2">
  <advance width="1384"/>
  <unicode hex="ABF8"/>
  <outline>
    <contour>
      <point x="346" y="1" type="curve" smooth="yes"/>
      <point x="278" y="8"/>
      <point x="224" y="42"/>
      <point x="184" y="101" type="curve"/>
      <point x="232" y="247" type="line"/>
      <point x="315" y="174"/>
      <point x="370" y="152"/>
      <point x="398" y="181" type="curve" smooth="yes"/>
      <point x="426" y="210"/>
      <point x="433" y="310"/>
      <point x="420" y="482" type="curve"/>
      <point x="289" y="530"/>
      <point x="205" y="594"/>
      <point x="168" y="674" type="curve" smooth="yes"/>
      <point x="131" y="754"/>
      <point x="118" y="831"/>
      <point x="130" y="906" type="curve" smooth="yes"/>
      <point x="166" y="1130"/>
      <point x="340" y="1274"/>
      <point x="572" y="1307" type="curve" smooth="yes"/>
      <point x="732" y="1330"/>
      <point x="912" y="1308"/>
      <point x="1072" y="1220" type="curve" smooth="yes"/>
      <point x="1152" y="1176"/>
      <point x="1206" y="1129"/>
      <point x="1234" y="1078" type="curve" smooth="yes"/>
      <point x="1262" y="1027"/>
      <point x="1268" y="969"/>
      <point x="1252" y="904" type="curve" smooth="yes"/>
      <point x="1236" y="839"/>
      <point x="1161" y="782"/>
      <point x="1028" y="734" type="curve"/>
      <point x="960" y="898" type="line"/>
      <point x="1059" y="914"/>
      <point x="1101" y="945"/>
      <point x="1088" y="990" type="curve" smooth="yes"/>
      <point x="1075" y="1035"/>
      <point x="1021" y="1075"/>
      <point x="926" y="1108" type="curve" smooth="yes"/>
      <point x="831" y="1141"/>
      <point x="737" y="1154"/>
      <point x="642" y="1146" type="curve" smooth="yes"/>
      <point x="547" y="1138"/>
      <point x="464" y="1110"/>
      <point x="392" y="1062" type="curve" smooth="yes"/>
      <point x="320" y="1014"/>
      <point x="284" y="940"/>
      <point x="284" y="840" type="curve" smooth="yes"/>
      <point x="284" y="740"/>
      <point x="329" y="677"/>
      <point x="420" y="650" type="curve"/>
      <point x="425" y="781"/>
      <point x="459" y="869"/>
      <point x="522" y="916" type="curve" smooth="yes"/>
      <point x="585" y="963"/>
      <point x="657" y="972"/>
      <point x="740" y="944" type="curve" smooth="yes"/>
      <point x="823" y="916"/>
      <point x="873" y="858"/>
      <point x="890" y="770" type="curve" smooth="yes"/>
      <point x="925" y="594"/>
      <point x="825" y="477"/>
      <point x="580" y="482" type="curve"/>
      <point x="593" y="251"/>
      <point x="575" y="112"/>
      <point x="524" y="63" type="curve" smooth="yes"/>
      <point x="473" y="14"/>
      <point x="414" y="-6"/>
    </contour>
    <contour>
      <point x="576" y="638" type="curve"/>
      <point x="693" y="606"/>
      <point x="748" y="666"/>
      <point x="732" y="746" type="curve" smooth="yes"/>
      <point x="724" y="786"/>
      <point x="697" y="803"/>
      <point x="652" y="796" type="curve" smooth="yes"/>
      <point x="607" y="789"/>
      <point x="581" y="737"/>
    </contour>
  </outline>
</glyph>
<glyph name="nine-mm" format="2">
  <advance width="1416"/>
  <unicode hex="ABF9"/>
  <outline>
    <contour>
      <point x="378" y="1" type="curve" smooth="yes"/>
      <point x="310" y="8"/>
      <point x="251" y="36"/>
      <point x="200" y="83" type="curve" smooth="yes"/>
      <point x="149" y="130"/>
      <point x="127" y="183"/>
      <point x="134" y="242" type="curve" smooth="yes"/>
      <point x="140" y="301"/>
      <point x="166" y="347"/>
      <point x="211" y="380" type="curve" smooth="yes"/>
      <point x="256" y="412"/>
      <point x="349" y="425"/>
      <point x="491" y="420" type="curve"/>
      <point x="477" y="492" type="line"/>
      <point x="330" y="533"/>
      <point x="237" y="594"/>
      <point x="200" y="674" type="curve" smooth="yes"/>
      <point x="163" y="754"/>
      <point x="150" y="831"/>
      <point x="162" y="906" type="curve" smooth="yes"/>
      <point x="198" y="1130"/>
      <point x="372" y="1274"/>
      <point x="604" y="1307" type="curve" smooth="yes"/>
      <point x="764" y="1330"/>
      <point x="944" y="1308"/>
      <point x="1104" y="1220" type="curve" smooth="yes"/>
      <point x="1184" y="1176"/>
      <point x="1238" y="1129"/>
      <point x="1266" y="1078" type="curve" smooth="yes"/>
      <point x="1294" y="1027"/>
      <point x="1300" y="969"/>
      <point x="1284" y="904" type="curve" smooth="yes"/>
      <point x="1268" y="839"/>
      <point x="1193" y="782"/>
      <point x="1060" y="734" type="curve"/>
      <point x="992" y="898" type="line"/>
      <point x="1091" y="914"/>
      <point x="1133" y="945"/>
      <point x="1120" y="990" type="curve" smooth="yes"/>
      <point x="1107" y="1035"/>
      <point x="1053" y="1075"/>
      <point x="958" y="1108" type="curve" smooth="yes"/>
      <point x="863" y="1141"/>
      <point x="769" y="1154"/>
      <point x="674" y="1146" type="curve" smooth="yes"/>
      <point x="579" y="1138"/>
      <point x="496" y="1110"/>
      <point x="424" y="1062" type="curve" smooth="yes"/>
      <point x="352" y="1014"/>
      <point x="316" y="940"/>
      <point x="316" y="840" type="curve" smooth="yes"/>
      <point x="316" y="740"/>
      <point x="361" y="677"/>
      <point x="452" y="650" type="curve"/>
      <point x="457" y="781"/>
      <point x="491" y="869"/>
      <point x="554" y="916" type="curve" smooth="yes"/>
      <point x="617" y="963"/>
      <point x="689" y="972"/>
      <point x="772" y="944" type="curve" smooth="yes"/>
      <point x="855" y="916"/>
      <point x="905" y="858"/>
      <point x="922" y="770" type="curve" smooth="yes"/>
      <point x="957" y="594"/>
      <point x="857" y="477"/>
      <point x="612" y="482" type="curve"/>
      <point x="617" y="419" type="line"/>
      <point x="994" y="418" type="line"/>
      <point x="1061" y="278" type="line"/>
      <point x="622" y="278" type="line"/>
      <point x="629" y="183"/>
      <point x="607" y="112"/>
      <point x="556" y="63" type="curve" smooth="yes"/>
      <point x="505" y="14"/>
      <point x="446" y="-6"/>
    </contour>
    <contour>
      <point x="478" y="282" type="curve"/>
      <point x="341" y="321"/>
      <point x="279" y="259"/>
      <point x="305" y="179" type="curve" smooth="yes"/>
      <point x="318" y="139"/>
      <point x="352" y="122"/>
      <point x="407" y="129" type="curve" smooth="yes"/>
      <point x="462" y="136"/>
      <point x="486" y="187"/>
    </contour>
    <contour>
      <point x="580" y="638" type="curve"/>
      <point x="697" y="606"/>
      <point x="752" y="666"/>
      <point x="736" y="746" type="curve" smooth="yes"/>
      <point x="728" y="786"/>
      <point x="701" y="803"/>
      <point x="656" y="796" type="curve" smooth="yes"/>
      <point x="611" y="789"/>
      <point x="585" y="737"/>
    </contour>
  </outline>
</glyph>
<glyph name="nine" format="2">
  <advance width="1416"/>
  <unicode hex="ABF9"/>
  <outline>
    <contour>
      <point x="632" y="136"/>
      <point x="480" y="-10"/>
      <point x="378" y="1" type="qcurve" smooth="yes"/>
      <point x="276" y="12"/>
      <point x="124" y="153"/>
      <point x="134" y="242" type="qcurve" smooth="yes"/>
      <point x="143" y="331"/>
      <point x="278" y="428"/>
      <point x="491" y="420" type="qcurve"/>
      <point x="477" y="492" type="line"/>
      <point x="256" y="554"/>
      <point x="144" y="794"/>
      <point x="162" y="906" type="qcurve" smooth="yes"/>
      <point x="180" y="1018"/>
      <point x="304" y="1186"/>
      <point x="394" y="1238" type="qcurve" smooth="yes"/>
      <point x="484" y="1290"/>
      <point x="724" y="1324"/>
      <point x="854" y="1305" type="qcurve" smooth="yes"/>
      <point x="984" y="1286"/>
      <point x="1224" y="1154"/>
      <point x="1266" y="1078" type="qcurve" smooth="yes"/>
      <point x="1308" y="1002"/>
      <point x="1260" y="806"/>
      <point x="1060" y="734" type="qcurve"/>
      <point x="992" y="898" type="line"/>
      <point x="1140" y="922"/>
      <point x="1100" y="1058"/>
      <point x="958" y="1108" type="qcurve" smooth="yes"/>
      <point x="816" y="1158"/>
      <point x="532" y="1134"/>
      <point x="424" y="1062" type="qcurve" smooth="yes"/>
      <point x="316" y="990"/>
      <point x="316" y="690"/>
      <point x="452" y="650" type="qcurve"/>
      <point x="460" y="846"/>
      <point x="648" y="986"/>
      <point x="772" y="944" type="qcurve" smooth="yes"/>
      <point x="896" y="902"/>
      <point x="948" y="638"/>
      <point x="872" y="558" type="qcurve" smooth="yes"/>
      <point x="834" y="518"/>
      <point x="704" y="480"/>
      <point x="612" y="482" type="qcurve"/>
      <point x="617" y="419" type="line"/>
      <point x="994" y="418" type="line"/>
      <point x="1061" y="278" type="line"/>
      <point x="622" y="278" type="line"/>
    </contour>
    <contour>
      <point x="375" y="311"/>
      <point x="285" y="239"/>
      <point x="304" y="179" type="qcurve" smooth="yes"/>
      <point x="324" y="119"/>
      <point x="490" y="139"/>
      <point x="478" y="282" type="qcurve"/>
    </contour>
    <contour>
      <point x="668" y="614"/>
      <point x="748" y="686"/>
      <point x="736" y="746" type="qcurve" smooth="yes"/>
      <point x="724" y="806"/>
      <point x="588" y="786"/>
      <point x="580" y="638" type="qcurve"/>
    </contour>
  </outline>
</glyph>
<glyph name="ampersand-mm" format="2">
  <advance width="1280"/>
  <outline>
    <contour>
      <point x="857" y="258" type="curve"/>
      <point x="753" y="143"/>
      <point x="632" y="86"/>
      <point x="492" y="86" type="curve" smooth="yes"/>
      <point x="362" y="86"/>
      <point x="259" y="130"/>
      <point x="182" y="218" type="curve"/>
      <point x="121" y="290"/>
      <point x="90" y="370"/>
      <point x="90" y="458" type="curve" smooth="yes"/>
      <point x="90" y="615"/>
      <point x="191" y="742"/>
      <point x="392" y="838" type="curve"/>
      <point x="277" y="970"/>
      <point x="249" y="1041"/>
      <point x="249" y="1117" type="curve" smooth="yes"/>
      <point x="249" y="1193"/>
      <point x="279" y="1259"/>
      <point x="339" y="1316" type="curve" smooth="yes"/>
      <point x="398" y="1372"/>
      <point x="474" y="1400"/>
      <point x="565" y="1400" type="curve" smooth="yes"/>
      <point x="652" y="1400"/>
      <point x="723" y="1374"/>
      <point x="778" y="1321" type="curve" smooth="yes"/>
      <point x="833" y="1268"/>
      <point x="860" y="1204"/>
      <point x="860" y="1129" type="curve" smooth="yes"/>
      <point x="860" y="1008"/>
      <point x="780" y="905"/>
      <point x="620" y="820" type="curve"/>
      <point x="848" y="529" type="line"/>
      <point x="874" y="580"/>
      <point x="894" y="639"/>
      <point x="909" y="706" type="curve"/>
      <point x="1071" y="671" type="line"/>
      <point x="1043" y="560"/>
      <point x="1005" y="469"/>
      <point x="958" y="397" type="curve"/>
      <point x="1017" y="320"/>
      <point x="1083" y="255"/>
      <point x="1156" y="203" type="curve"/>
      <point x="1052" y="79" type="line"/>
      <point x="989" y="119"/>
      <point x="924" y="179"/>
    </contour>
    <contour>
      <point x="529" y="905" type="line"/>
      <point x="664" y="985"/>
      <point x="690" y="1037"/>
      <point x="690" y="1109" type="curve" smooth="yes"/>
      <point x="690" y="1196"/>
      <point x="629" y="1257"/>
      <point x="546" y="1257" type="curve" smooth="yes"/>
      <point x="462" y="1257"/>
      <point x="399" y="1195"/>
      <point x="399" y="1116" type="curve" smooth="yes"/>
      <point x="399" y="1077"/>
      <point x="419" y="1034"/>
      <point x="459" y="985" type="curve"/>
    </contour>
    <contour>
      <point x="751" y="391" type="curve"/>
      <point x="465" y="745" type="line"/>
      <point x="297" y="645"/>
      <point x="250" y="562"/>
      <point x="250" y="478" type="curve" smooth="yes"/>
      <point x="250" y="427"/>
      <point x="271" y="373"/>
      <point x="312" y="318" type="curve" smooth="yes"/>
      <point x="353" y="262"/>
      <point x="411" y="234"/>
      <point x="486" y="234" type="curve" smooth="yes"/>
      <point x="579" y="234"/>
      <point x="691" y="299"/>
    </contour>
  </outline>
</glyph>
<glyph name="backslash-mm" format="2">
  <advance width="780"/>
  <outline>
    <contour>
      <point x="516" y="76" type="line"/>
      <point x="147" y="1390" type="line"/>
      <point x="273" y="1390" type="line"/>
      <point x="640" y="76" type="line"/>
    </contour>
  </outline>
</glyph>
